G04 #@! TF.GenerationSoftware,KiCad,Pcbnew,8.0.8*
G04 #@! TF.CreationDate,2025-05-26T08:32:39+07:00*
G04 #@! TF.ProjectId,LP_MSPM0C1104-EB-V1.1,4c505f4d-5350-44d3-9043-313130342d45,rev?*
G04 #@! TF.SameCoordinates,Original*
G04 #@! TF.FileFunction,Paste,Top*
G04 #@! TF.FilePolarity,Positive*
%FSLAX46Y46*%
G04 Gerber Fmt 4.6, Leading zero omitted, Abs format (unit mm)*
G04 Created by KiCad (PCBNEW 8.0.8) date 2025-05-26 08:32:39*
%MOMM*%
%LPD*%
G01*
G04 APERTURE LIST*
G04 Aperture macros list*
%AMRoundRect*
0 Rectangle with rounded corners*
0 $1 Rounding radius*
0 $2 $3 $4 $5 $6 $7 $8 $9 X,Y pos of 4 corners*
0 Add a 4 corners polygon primitive as box body*
4,1,4,$2,$3,$4,$5,$6,$7,$8,$9,$2,$3,0*
0 Add four circle primitives for the rounded corners*
1,1,$1+$1,$2,$3*
1,1,$1+$1,$4,$5*
1,1,$1+$1,$6,$7*
1,1,$1+$1,$8,$9*
0 Add four rect primitives between the rounded corners*
20,1,$1+$1,$2,$3,$4,$5,0*
20,1,$1+$1,$4,$5,$6,$7,0*
20,1,$1+$1,$6,$7,$8,$9,0*
20,1,$1+$1,$8,$9,$2,$3,0*%
G04 Aperture macros list end*
%ADD10RoundRect,0.200000X-0.200000X-0.275000X0.200000X-0.275000X0.200000X0.275000X-0.200000X0.275000X0*%
%ADD11RoundRect,0.200000X0.200000X0.275000X-0.200000X0.275000X-0.200000X-0.275000X0.200000X-0.275000X0*%
%ADD12RoundRect,0.200000X0.275000X-0.200000X0.275000X0.200000X-0.275000X0.200000X-0.275000X-0.200000X0*%
%ADD13RoundRect,0.250000X0.250000X0.475000X-0.250000X0.475000X-0.250000X-0.475000X0.250000X-0.475000X0*%
%ADD14RoundRect,0.250000X-0.650000X1.000000X-0.650000X-1.000000X0.650000X-1.000000X0.650000X1.000000X0*%
%ADD15RoundRect,0.218750X0.256250X-0.218750X0.256250X0.218750X-0.256250X0.218750X-0.256250X-0.218750X0*%
%ADD16RoundRect,0.225000X-0.250000X0.225000X-0.250000X-0.225000X0.250000X-0.225000X0.250000X0.225000X0*%
%ADD17RoundRect,0.150000X0.150000X-0.587500X0.150000X0.587500X-0.150000X0.587500X-0.150000X-0.587500X0*%
%ADD18RoundRect,0.250000X-0.312500X-1.075000X0.312500X-1.075000X0.312500X1.075000X-0.312500X1.075000X0*%
%ADD19RoundRect,0.250000X0.650000X-1.000000X0.650000X1.000000X-0.650000X1.000000X-0.650000X-1.000000X0*%
%ADD20R,0.350000X0.375000*%
%ADD21R,0.375000X0.350000*%
%ADD22RoundRect,0.112500X-0.187500X-0.112500X0.187500X-0.112500X0.187500X0.112500X-0.187500X0.112500X0*%
%ADD23RoundRect,0.225000X-0.225000X-0.375000X0.225000X-0.375000X0.225000X0.375000X-0.225000X0.375000X0*%
%ADD24RoundRect,0.225000X0.225000X0.250000X-0.225000X0.250000X-0.225000X-0.250000X0.225000X-0.250000X0*%
%ADD25RoundRect,0.225000X-0.375000X0.225000X-0.375000X-0.225000X0.375000X-0.225000X0.375000X0.225000X0*%
%ADD26RoundRect,0.140000X0.170000X-0.140000X0.170000X0.140000X-0.170000X0.140000X-0.170000X-0.140000X0*%
%ADD27RoundRect,0.200000X-0.275000X0.200000X-0.275000X-0.200000X0.275000X-0.200000X0.275000X0.200000X0*%
%ADD28RoundRect,0.225000X-0.225000X-0.250000X0.225000X-0.250000X0.225000X0.250000X-0.225000X0.250000X0*%
%ADD29RoundRect,0.150000X-0.150000X0.587500X-0.150000X-0.587500X0.150000X-0.587500X0.150000X0.587500X0*%
%ADD30RoundRect,0.150000X-0.825000X-0.150000X0.825000X-0.150000X0.825000X0.150000X-0.825000X0.150000X0*%
%ADD31RoundRect,0.225000X0.250000X-0.225000X0.250000X0.225000X-0.250000X0.225000X-0.250000X-0.225000X0*%
%ADD32RoundRect,0.150000X-0.150000X0.512500X-0.150000X-0.512500X0.150000X-0.512500X0.150000X0.512500X0*%
%ADD33RoundRect,0.250000X0.350000X0.450000X-0.350000X0.450000X-0.350000X-0.450000X0.350000X-0.450000X0*%
%ADD34RoundRect,0.218750X-0.218750X-0.256250X0.218750X-0.256250X0.218750X0.256250X-0.218750X0.256250X0*%
%ADD35RoundRect,0.250000X0.312500X0.625000X-0.312500X0.625000X-0.312500X-0.625000X0.312500X-0.625000X0*%
%ADD36RoundRect,0.250000X1.000000X0.650000X-1.000000X0.650000X-1.000000X-0.650000X1.000000X-0.650000X0*%
G04 APERTURE END LIST*
D10*
G04 #@! TO.C,R20*
X138512000Y-111808050D03*
X140162000Y-111808050D03*
G04 #@! TD*
D11*
G04 #@! TO.C,R19*
X143912000Y-108708050D03*
X142262000Y-108708050D03*
G04 #@! TD*
D10*
G04 #@! TO.C,R18*
X146162000Y-123808050D03*
X147812000Y-123808050D03*
G04 #@! TD*
D11*
G04 #@! TO.C,R17*
X163712000Y-110058050D03*
X162062000Y-110058050D03*
G04 #@! TD*
D12*
G04 #@! TO.C,R16*
X162237000Y-103133050D03*
X162237000Y-101483050D03*
G04 #@! TD*
D10*
G04 #@! TO.C,R15*
X159512000Y-97058050D03*
X157862000Y-97058050D03*
G04 #@! TD*
G04 #@! TO.C,R13*
X150262000Y-97058050D03*
X151912000Y-97058050D03*
G04 #@! TD*
D11*
G04 #@! TO.C,R21*
X151912000Y-93108050D03*
X150262000Y-93108050D03*
G04 #@! TD*
D10*
G04 #@! TO.C,R26*
X162162000Y-108058050D03*
X163812000Y-108058050D03*
G04 #@! TD*
G04 #@! TO.C,R27*
X141462000Y-122308050D03*
X143112000Y-122308050D03*
G04 #@! TD*
D13*
G04 #@! TO.C,C17*
X136137000Y-117558050D03*
X134237000Y-117558050D03*
G04 #@! TD*
D10*
G04 #@! TO.C,R10*
X146162000Y-120808050D03*
X147812000Y-120808050D03*
G04 #@! TD*
D14*
G04 #@! TO.C,D11*
X138787000Y-114558050D03*
X138787000Y-118558050D03*
G04 #@! TD*
D15*
G04 #@! TO.C,D2*
X128787000Y-113155550D03*
X128787000Y-111580550D03*
G04 #@! TD*
D16*
G04 #@! TO.C,C2*
X159137000Y-110033050D03*
X159137000Y-111583050D03*
G04 #@! TD*
D12*
G04 #@! TO.C,R1*
X167637000Y-105483050D03*
X167637000Y-103833050D03*
G04 #@! TD*
D10*
G04 #@! TO.C,R14*
X160962000Y-89158050D03*
X162612000Y-89158050D03*
G04 #@! TD*
D17*
G04 #@! TO.C,Q8*
X141574500Y-113295550D03*
X143474500Y-113295550D03*
X142524500Y-111420550D03*
G04 #@! TD*
G04 #@! TO.C,Q4*
X161012000Y-96795550D03*
X162912000Y-96795550D03*
X161962000Y-94920550D03*
G04 #@! TD*
D18*
G04 #@! TO.C,R11*
X138324500Y-90908050D03*
X141249500Y-90908050D03*
G04 #@! TD*
D19*
G04 #@! TO.C,D4*
X143937000Y-91008050D03*
X143937000Y-87008050D03*
G04 #@! TD*
D20*
G04 #@! TO.C,U1*
X165937000Y-103245550D03*
X165437000Y-103245550D03*
X164937000Y-103245550D03*
X164437000Y-103245550D03*
D21*
X164424500Y-103758050D03*
X164424500Y-104258050D03*
D20*
X164437000Y-104770550D03*
X164937000Y-104770550D03*
X165437000Y-104770550D03*
X165937000Y-104770550D03*
D21*
X165949500Y-104258050D03*
X165949500Y-103758050D03*
G04 #@! TD*
D22*
G04 #@! TO.C,D1*
X128437000Y-98058050D03*
X130537000Y-98058050D03*
G04 #@! TD*
D23*
G04 #@! TO.C,D3*
X133487000Y-97958050D03*
X136787000Y-97958050D03*
G04 #@! TD*
D24*
G04 #@! TO.C,C20*
X147462000Y-113658050D03*
X145912000Y-113658050D03*
G04 #@! TD*
D25*
G04 #@! TO.C,D10*
X132187000Y-113708050D03*
X132187000Y-117008050D03*
G04 #@! TD*
D26*
G04 #@! TO.C,C14*
X143687000Y-98888050D03*
X143687000Y-97928050D03*
G04 #@! TD*
D27*
G04 #@! TO.C,R24*
X131887000Y-118433050D03*
X131887000Y-120083050D03*
G04 #@! TD*
D28*
G04 #@! TO.C,C3*
X164262000Y-106408050D03*
X165812000Y-106408050D03*
G04 #@! TD*
D12*
G04 #@! TO.C,R25*
X136187000Y-115383050D03*
X136187000Y-113733050D03*
G04 #@! TD*
D17*
G04 #@! TO.C,Q1*
X142374500Y-106745550D03*
X144274500Y-106745550D03*
X143324500Y-104870550D03*
G04 #@! TD*
D10*
G04 #@! TO.C,R9*
X128562000Y-99808050D03*
X130212000Y-99808050D03*
G04 #@! TD*
D29*
G04 #@! TO.C,Q5*
X155287000Y-90970550D03*
X153387000Y-90970550D03*
X154337000Y-92845550D03*
G04 #@! TD*
D17*
G04 #@! TO.C,Q2*
X161024500Y-92845550D03*
X162924500Y-92845550D03*
X161974500Y-90970550D03*
G04 #@! TD*
D28*
G04 #@! TO.C,C9*
X142662000Y-94858050D03*
X144212000Y-94858050D03*
G04 #@! TD*
D30*
G04 #@! TO.C,U6*
X142012000Y-115303050D03*
X142012000Y-116573050D03*
X142012000Y-117843050D03*
X142012000Y-119113050D03*
X146962000Y-119113050D03*
X146962000Y-117843050D03*
X146962000Y-116573050D03*
X146962000Y-115303050D03*
G04 #@! TD*
D27*
G04 #@! TO.C,R28*
X144587000Y-120733050D03*
X144587000Y-122383050D03*
G04 #@! TD*
D14*
G04 #@! TO.C,D5*
X157887000Y-90658050D03*
X157887000Y-94658050D03*
G04 #@! TD*
D11*
G04 #@! TO.C,R3*
X130112000Y-92908050D03*
X128462000Y-92908050D03*
G04 #@! TD*
D31*
G04 #@! TO.C,C18*
X134687000Y-115333050D03*
X134687000Y-113783050D03*
G04 #@! TD*
D12*
G04 #@! TO.C,R4*
X160737000Y-103133050D03*
X160737000Y-101483050D03*
G04 #@! TD*
D11*
G04 #@! TO.C,R22*
X135812000Y-119358050D03*
X134162000Y-119358050D03*
G04 #@! TD*
D27*
G04 #@! TO.C,R2*
X167637000Y-100433050D03*
X167637000Y-102083050D03*
G04 #@! TD*
D16*
G04 #@! TO.C,C5*
X146637000Y-88833050D03*
X146637000Y-90383050D03*
G04 #@! TD*
D11*
G04 #@! TO.C,R5*
X130162000Y-96308050D03*
X128512000Y-96308050D03*
G04 #@! TD*
D16*
G04 #@! TO.C,C7*
X159187000Y-101533050D03*
X159187000Y-103083050D03*
G04 #@! TD*
D32*
G04 #@! TO.C,U4*
X142387000Y-96570550D03*
X141437000Y-96570550D03*
X140487000Y-96570550D03*
X140487000Y-98845550D03*
X142387000Y-98845550D03*
G04 #@! TD*
D29*
G04 #@! TO.C,Q6*
X155299500Y-94920550D03*
X153399500Y-94920550D03*
X154349500Y-96795550D03*
G04 #@! TD*
D24*
G04 #@! TO.C,C4*
X165512000Y-101358050D03*
X163962000Y-101358050D03*
G04 #@! TD*
D33*
G04 #@! TO.C,R7*
X144437000Y-102858050D03*
X142437000Y-102858050D03*
G04 #@! TD*
D34*
G04 #@! TO.C,D13*
X165299500Y-108058050D03*
X166874500Y-108058050D03*
G04 #@! TD*
D24*
G04 #@! TO.C,C8*
X147762000Y-122308050D03*
X146212000Y-122308050D03*
G04 #@! TD*
D28*
G04 #@! TO.C,C6*
X142662000Y-93358050D03*
X144212000Y-93358050D03*
G04 #@! TD*
D12*
G04 #@! TO.C,R8*
X128737000Y-116433050D03*
X128737000Y-114783050D03*
G04 #@! TD*
D35*
G04 #@! TO.C,R12*
X151199500Y-87008050D03*
X148274500Y-87008050D03*
G04 #@! TD*
D36*
G04 #@! TO.C,D6*
X138087000Y-94308050D03*
X134087000Y-94308050D03*
G04 #@! TD*
D31*
G04 #@! TO.C,C15*
X144937000Y-98883050D03*
X144937000Y-97333050D03*
G04 #@! TD*
D12*
G04 #@! TO.C,R6*
X160637000Y-111633050D03*
X160637000Y-109983050D03*
G04 #@! TD*
D28*
G04 #@! TO.C,C1*
X128562000Y-94808050D03*
X130112000Y-94808050D03*
G04 #@! TD*
M02*
