M48
; DRILL file {KiCad 8.0.8} date 2025-05-26T08:30:59+0700
; FORMAT={-:-/ absolute / inch / decimal}
; #@! TF.CreationDate,2025-05-26T08:30:59+07:00
; #@! TF.GenerationSoftware,Kicad,Pcbnew,8.0.8
; #@! TF.FileFunction,MixedPlating,1,2
FMAT,2
INCH
; #@! TA.AperFunction,Plated,PTH,ViaDrill
T1C0.0118
; #@! TA.AperFunction,Plated,PTH,ComponentDrill
T2C0.0394
; #@! TA.AperFunction,Plated,PTH,ComponentDrill
T3C0.0400
; #@! TA.AperFunction,Plated,PTH,ComponentDrill
T4C0.0402
; #@! TA.AperFunction,Plated,PTH,ComponentDrill
T5C0.0433
%
G90
G05
T1
X5.1393Y-4.5358
X5.1786Y-3.7247
X5.1786Y-3.772
X5.1786Y-3.8192
X5.1865Y-4.5358
X5.1904Y-3.6578
X5.2337Y-4.5358
X5.3046Y-4.5751
X5.3381Y-3.8153
X5.344Y-3.394
X5.344Y-3.4334
X5.344Y-3.4728
X5.3519Y-4.5751
X5.3991Y-4.5751
X5.4306Y-4.7405
X5.4778Y-4.7405
X5.5251Y-4.7405
X5.5487Y-3.9609
X5.5723Y-4.7405
X5.5881Y-3.9609
X5.6117Y-3.583
X5.6274Y-3.9609
X5.6668Y-3.7798
X5.6983Y-4.3783
X5.6983Y-4.4176
X5.6983Y-4.457
X5.7062Y-3.7798
X5.7298Y-4.1657
X5.7298Y-4.2129
X5.7298Y-4.2602
X5.7456Y-3.6854
X5.7456Y-3.7798
X5.7849Y-3.6854
X5.8322Y-3.6854
X5.8696Y-3.8251
X5.9345Y-3.7188
X5.9621Y-3.5515
X5.9621Y-3.5869
X5.9621Y-3.6204
X6.0211Y-4.4176
X6.0605Y-4.4176
X6.0999Y-4.4176
X6.1904Y-3.8527
X6.281Y-3.6991
X6.281Y-3.7503
X6.2967Y-4.085
X6.2987Y-3.5082
X6.3007Y-4.4373
X6.3046Y-4.1735
X6.3046Y-4.2208
X6.3046Y-4.268
X6.3361Y-3.896
X6.34Y-4.4373
X6.344Y-4.7798
X6.3696Y-3.896
X6.3794Y-4.4373
X6.3833Y-4.7798
X6.3873Y-4.0909
X6.4227Y-4.7798
X6.4267Y-4.0554
X6.4404Y-4.1283
X6.4877Y-3.6106
X6.4877Y-3.6617
X6.5034Y-4.0987
X6.5093Y-4.1499
X6.5172Y-3.9314
X6.5585Y-4.1814
X6.6038Y-4.2011
X6.6117Y-3.8586
X6.6117Y-3.898
X6.6432Y-3.4728
X6.6432Y-3.5121
X6.6432Y-3.5594
X6.655Y-4.3232
T2
X5.1885Y-4.1499
X5.3528Y-4.8035
X5.4237Y-3.4373
X5.4444Y-4.1499
X5.4528Y-4.8035
X5.5237Y-3.4373
X6.1107Y-3.4334
X6.2107Y-3.4334
T3
X4.9495Y-4.5498
X4.9495Y-4.6498
X4.9495Y-4.7498
X6.7495Y-4.5498
X6.7495Y-4.6498
X6.7495Y-4.7498
T4
X4.9495Y-3.4498
X4.9495Y-3.5498
X4.9495Y-3.6498
X4.9495Y-3.7498
X4.9495Y-3.8498
X4.9495Y-3.9498
X4.9495Y-4.0498
X4.9495Y-4.1498
X4.9495Y-4.2498
X4.9495Y-4.3498
X5.0495Y-3.4498
X5.0495Y-3.5498
X6.7495Y-3.4498
X6.7495Y-3.5498
X6.7495Y-3.6498
X6.7495Y-3.7498
X6.7495Y-3.8498
X6.7495Y-3.9498
X6.7495Y-4.0498
X6.7495Y-4.1498
X6.7495Y-4.2498
X6.7495Y-4.3498
T5
X5.9168Y-4.0003
X5.9168Y-4.1775
X5.9168Y-4.331
X5.9168Y-4.5082
X5.9168Y-4.6342
X5.9168Y-4.8113
X6.1727Y-4.0003
X6.1727Y-4.1775
X6.1727Y-4.331
X6.1727Y-4.5082
X6.1727Y-4.6342
X6.1727Y-4.8113
M30
