G04 #@! TF.GenerationSoftware,KiCad,Pcbnew,8.0.8*
G04 #@! TF.CreationDate,2025-05-26T08:32:39+07:00*
G04 #@! TF.ProjectId,LP_MSPM0C1104-EB-V1.1,4c505f4d-5350-44d3-9043-313130342d45,rev?*
G04 #@! TF.SameCoordinates,Original*
G04 #@! TF.FileFunction,Copper,L2,Bot*
G04 #@! TF.FilePolarity,Positive*
%FSLAX46Y46*%
G04 Gerber Fmt 4.6, Leading zero omitted, Abs format (unit mm)*
G04 Created by KiCad (PCBNEW 8.0.8) date 2025-05-26 08:32:39*
%MOMM*%
%LPD*%
G01*
G04 APERTURE LIST*
G04 Aperture macros list*
%AMRoundRect*
0 Rectangle with rounded corners*
0 $1 Rounding radius*
0 $2 $3 $4 $5 $6 $7 $8 $9 X,Y pos of 4 corners*
0 Add a 4 corners polygon primitive as box body*
4,1,4,$2,$3,$4,$5,$6,$7,$8,$9,$2,$3,0*
0 Add four circle primitives for the rounded corners*
1,1,$1+$1,$2,$3*
1,1,$1+$1,$4,$5*
1,1,$1+$1,$6,$7*
1,1,$1+$1,$8,$9*
0 Add four rect primitives between the rounded corners*
20,1,$1+$1,$2,$3,$4,$5,0*
20,1,$1+$1,$4,$5,$6,$7,0*
20,1,$1+$1,$6,$7,$8,$9,0*
20,1,$1+$1,$8,$9,$2,$3,0*%
G04 Aperture macros list end*
G04 #@! TA.AperFunction,ComponentPad*
%ADD10R,1.700000X1.700000*%
G04 #@! TD*
G04 #@! TA.AperFunction,ComponentPad*
%ADD11O,1.700000X1.700000*%
G04 #@! TD*
G04 #@! TA.AperFunction,ComponentPad*
%ADD12C,2.000000*%
G04 #@! TD*
G04 #@! TA.AperFunction,ComponentPad*
%ADD13R,2.000000X2.000000*%
G04 #@! TD*
G04 #@! TA.AperFunction,ComponentPad*
%ADD14R,1.650000X1.650000*%
G04 #@! TD*
G04 #@! TA.AperFunction,ComponentPad*
%ADD15C,1.650000*%
G04 #@! TD*
G04 #@! TA.AperFunction,ComponentPad*
%ADD16C,1.550000*%
G04 #@! TD*
G04 #@! TA.AperFunction,ComponentPad*
%ADD17RoundRect,0.046500X-0.728500X0.728500X-0.728500X-0.728500X0.728500X-0.728500X0.728500X0.728500X0*%
G04 #@! TD*
G04 #@! TA.AperFunction,ViaPad*
%ADD18C,0.600000*%
G04 #@! TD*
G04 #@! TA.AperFunction,Conductor*
%ADD19C,0.200000*%
G04 #@! TD*
G04 #@! TA.AperFunction,Conductor*
%ADD20C,0.300000*%
G04 #@! TD*
G04 APERTURE END LIST*
D10*
G04 #@! TO.P,J1,1,Pin_1*
G04 #@! TO.N,GND*
X137762000Y-87308050D03*
D11*
G04 #@! TO.P,J1,2,Pin_2*
G04 #@! TO.N,VIN*
X140302000Y-87308050D03*
G04 #@! TD*
D10*
G04 #@! TO.P,L1,1,1*
G04 #@! TO.N,Net-(C17-Pad2)*
X135962000Y-122008050D03*
D11*
G04 #@! TO.P,L1,2,2*
G04 #@! TO.N,GND*
X138502000Y-122008050D03*
G04 #@! TD*
D12*
G04 #@! TO.P,SW2,1,1*
G04 #@! TO.N,3V3*
X156787000Y-114508050D03*
X150287000Y-114508050D03*
G04 #@! TO.P,SW2,2,2*
G04 #@! TO.N,/KEY1*
X156787000Y-110008050D03*
X150287000Y-110008050D03*
G04 #@! TD*
D13*
G04 #@! TO.P,BZ1,1,-*
G04 #@! TO.N,V_ALL*
X131787000Y-105408050D03*
D12*
G04 #@! TO.P,BZ1,2,+*
G04 #@! TO.N,Net-(BZ1-+)*
X138287000Y-105408050D03*
G04 #@! TD*
D10*
G04 #@! TO.P,J2,1,Pin_1*
G04 #@! TO.N,GND*
X155212000Y-87208050D03*
D11*
G04 #@! TO.P,J2,2,Pin_2*
G04 #@! TO.N,LIN*
X157752000Y-87208050D03*
G04 #@! TD*
D12*
G04 #@! TO.P,SW3,1,1*
G04 #@! TO.N,3V3*
X156787000Y-106108050D03*
X150287000Y-106108050D03*
G04 #@! TO.P,SW3,2,2*
G04 #@! TO.N,/KEY0*
X156787000Y-101608050D03*
X150287000Y-101608050D03*
G04 #@! TD*
D14*
G04 #@! TO.P,J4,1*
G04 #@! TO.N,3V3*
X125717300Y-120645550D03*
D15*
G04 #@! TO.P,J4,2*
G04 #@! TO.N,GND*
X125717300Y-118105550D03*
G04 #@! TO.P,J4,3*
X125717300Y-115565550D03*
G04 #@! TD*
D14*
G04 #@! TO.P,J5,1*
G04 #@! TO.N,+5V*
X171437300Y-120645550D03*
D15*
G04 #@! TO.P,J5,2*
G04 #@! TO.N,GND*
X171437300Y-118105550D03*
G04 #@! TO.P,J5,3*
X171437300Y-115565550D03*
G04 #@! TD*
D12*
G04 #@! TO.P,SW1,1,1*
G04 #@! TO.N,GND*
X156787000Y-122208050D03*
X150287000Y-122208050D03*
G04 #@! TO.P,SW1,2,2*
G04 #@! TO.N,/KEY2*
X156787000Y-117708050D03*
X150287000Y-117708050D03*
G04 #@! TD*
D16*
G04 #@! TO.P,J2,11*
G04 #@! TO.N,PA20_A6*
X171437300Y-110485550D03*
G04 #@! TO.P,J2,12*
G04 #@! TO.N,PA23*
X171437300Y-107945550D03*
G04 #@! TO.P,J2,13*
G04 #@! TO.N,PA2*
X171437300Y-105405550D03*
G04 #@! TO.P,J2,14*
G04 #@! TO.N,PA4*
X171437300Y-102865550D03*
G04 #@! TO.P,J2,15*
G04 #@! TO.N,PA18_A7_BP*
X171437300Y-100325550D03*
G04 #@! TO.P,J2,16*
G04 #@! TO.N,PA1_NRST*
X171437300Y-97785550D03*
G04 #@! TO.P,J2,17*
G04 #@! TO.N,PA19*
X171437300Y-95245550D03*
G04 #@! TO.P,J2,18*
G04 #@! TO.N,PA17_A9_BP*
X171437300Y-92705550D03*
G04 #@! TO.P,J2,19*
G04 #@! TO.N,PA16*
X171437300Y-90165550D03*
G04 #@! TO.P,J2,20*
G04 #@! TO.N,GND*
X171437300Y-87625550D03*
G04 #@! TD*
G04 #@! TO.P,J3,21*
G04 #@! TO.N,+5V*
X128257300Y-87625550D03*
G04 #@! TO.P,J3,22*
G04 #@! TO.N,GND*
X128257300Y-90165550D03*
G04 #@! TD*
D17*
G04 #@! TO.P,J1,1*
G04 #@! TO.N,3V3*
X125717300Y-87625550D03*
D16*
G04 #@! TO.P,J1,2*
G04 #@! TO.N,PA25_A2*
X125717300Y-90165550D03*
G04 #@! TO.P,J1,3*
G04 #@! TO.N,PA26_UART_RX_A1*
X125717300Y-92705550D03*
G04 #@! TO.P,J1,4*
G04 #@! TO.N,PA27_UART_TX_A0*
X125717300Y-95245550D03*
G04 #@! TO.P,J1,5*
G04 #@! TO.N,PA24_A3*
X125717300Y-97785550D03*
G04 #@! TO.P,J1,6*
G04 #@! TO.N,PA28_A5*
X125717300Y-100325550D03*
G04 #@! TO.P,J1,7*
G04 #@! TO.N,PA6*
X125717300Y-102865550D03*
G04 #@! TO.P,J1,8*
G04 #@! TO.N,PA22_A4*
X125717300Y-105405550D03*
G04 #@! TO.P,J1,9*
G04 #@! TO.N,PA11_BP*
X125717300Y-107945550D03*
G04 #@! TO.P,J1,10*
G04 #@! TO.N,PA0_BP*
X125717300Y-110485550D03*
G04 #@! TD*
D18*
G04 #@! TO.N,GND*
X164787000Y-91708050D03*
X164787000Y-93008050D03*
G04 #@! TO.N,PA27_UART_TX_A0*
X157237000Y-97858050D03*
G04 #@! TO.N,V_ALL*
X150737000Y-94458050D03*
G04 #@! TO.N,PA26_UART_RX_A1*
X149087000Y-97158050D03*
G04 #@! TO.N,GND*
X159937000Y-103758050D03*
G04 #@! TO.N,PA16*
X162237000Y-103908050D03*
G04 #@! TO.N,PA17_A9_BP*
X163237000Y-103008050D03*
G04 #@! TO.N,PA18_A7_BP*
X169037000Y-109808050D03*
G04 #@! TO.N,GND*
X148137000Y-93608050D03*
X152937000Y-112208050D03*
X141537000Y-120408050D03*
X159537000Y-95258050D03*
X154937000Y-112208050D03*
X165187000Y-104108050D03*
X144737000Y-112208050D03*
X134737000Y-116208050D03*
X130537000Y-115208050D03*
X132937000Y-115208050D03*
X145537000Y-108208050D03*
X160037000Y-112708050D03*
X135737000Y-87208050D03*
X162037000Y-112708050D03*
X167737000Y-106708050D03*
X167937000Y-98008050D03*
X159537000Y-93958050D03*
X168737000Y-88208050D03*
X160137000Y-108408050D03*
X144737000Y-113208050D03*
X162137000Y-121408050D03*
X163137000Y-121408050D03*
X145937000Y-96008050D03*
X160137000Y-106008050D03*
X131537000Y-95808050D03*
X151437000Y-91958050D03*
X144737000Y-111208050D03*
X141937000Y-100608050D03*
X140337000Y-120408050D03*
X145537000Y-105808050D03*
X135737000Y-86208050D03*
X143937000Y-96008050D03*
X139137000Y-120408050D03*
X137937000Y-120408050D03*
X131537000Y-94608050D03*
X144937000Y-96008050D03*
X146937000Y-93608050D03*
X153937000Y-112208050D03*
X145937000Y-93608050D03*
X160937000Y-98958050D03*
X168737000Y-89208050D03*
X161037000Y-112708050D03*
X131537000Y-97008050D03*
X151437000Y-91108050D03*
X168737000Y-90408050D03*
X135937000Y-116208050D03*
X161787000Y-98958050D03*
X137137000Y-116208050D03*
X131737000Y-115208050D03*
X167937000Y-99008050D03*
X165337000Y-105408050D03*
X140937000Y-100608050D03*
X135737000Y-88208050D03*
X142937000Y-100608050D03*
X145537000Y-107008050D03*
X151437000Y-90208050D03*
X161137000Y-121408050D03*
X160137000Y-107208050D03*
G04 #@! TO.N,3V3*
X163587000Y-104858050D03*
X165537000Y-99858050D03*
X166587000Y-106208050D03*
G04 #@! TO.N,VIN*
X131837000Y-92908050D03*
G04 #@! TO.N,V_ALL*
X159987000Y-89108050D03*
X142537000Y-91008050D03*
X135587000Y-96908050D03*
G04 #@! TD*
D19*
G04 #@! TO.N,PA27_UART_TX_A0*
X157237000Y-97908050D02*
X157237000Y-97858050D01*
X157087000Y-98058050D02*
X157237000Y-97908050D01*
X130029800Y-99558050D02*
X125717300Y-95245550D01*
X155587000Y-99558050D02*
X130029800Y-99558050D01*
X157087000Y-98058050D02*
X155587000Y-99558050D01*
D20*
G04 #@! TO.N,V_ALL*
X150737000Y-94458050D02*
X154637000Y-94458050D01*
X154637000Y-94458050D02*
X159987000Y-89108050D01*
D19*
G04 #@! TO.N,PA26_UART_RX_A1*
X148337000Y-97908050D02*
X149087000Y-97158050D01*
X147587000Y-97908050D02*
X148337000Y-97908050D01*
X130919800Y-97908050D02*
X147587000Y-97908050D01*
G04 #@! TO.N,PA16*
X169187000Y-93392365D02*
X169187000Y-92408050D01*
X162237000Y-100342365D02*
X169187000Y-93392365D01*
X162237000Y-103908050D02*
X162237000Y-100342365D01*
X169187000Y-92408050D02*
X169194800Y-92408050D01*
X169194800Y-92408050D02*
X171437300Y-90165550D01*
G04 #@! TO.N,PA17_A9_BP*
X168234800Y-95908050D02*
X171437300Y-92705550D01*
X167237000Y-95908050D02*
X168234800Y-95908050D01*
X163237000Y-99908050D02*
X167237000Y-95908050D01*
X163237000Y-103008050D02*
X163237000Y-99908050D01*
G04 #@! TO.N,PA26_UART_RX_A1*
X125717300Y-92705550D02*
X130919800Y-97908050D01*
G04 #@! TO.N,PA18_A7_BP*
X169037000Y-109808050D02*
X169037000Y-102725850D01*
X169037000Y-102725850D02*
X171437300Y-100325550D01*
G04 #@! TO.N,3V3*
X158037000Y-104858050D02*
X163587000Y-104858050D01*
D20*
X125717300Y-120645550D02*
X128999500Y-120645550D01*
D19*
X165537000Y-99858050D02*
X164437000Y-100958050D01*
D20*
X166437000Y-106358050D02*
X166587000Y-106208050D01*
D19*
X148987000Y-113208050D02*
X150287000Y-114508050D01*
D20*
X147737000Y-117008050D02*
X147787000Y-117008050D01*
D19*
X150287000Y-106108050D02*
X148987000Y-107408050D01*
X148987000Y-107408050D02*
X148987000Y-113208050D01*
D20*
X123537000Y-118465250D02*
X123537000Y-89805850D01*
D19*
X164437000Y-104008050D02*
X163587000Y-104858050D01*
X164437000Y-100958050D02*
X164437000Y-104008050D01*
X163587000Y-104858050D02*
X164937000Y-106208050D01*
D20*
X131637000Y-118008050D02*
X146737000Y-118008050D01*
X150287000Y-114508050D02*
X156787000Y-114508050D01*
X156787000Y-106108050D02*
X150287000Y-106108050D01*
D19*
X156787000Y-106108050D02*
X158037000Y-104858050D01*
D20*
X163137000Y-114508050D02*
X166437000Y-111208050D01*
X125717300Y-120645550D02*
X123537000Y-118465250D01*
X166437000Y-111208050D02*
X166437000Y-106358050D01*
X128999500Y-120645550D02*
X131637000Y-118008050D01*
X156787000Y-114508050D02*
X163137000Y-114508050D01*
X147787000Y-117008050D02*
X150287000Y-114508050D01*
X146737000Y-118008050D02*
X147737000Y-117008050D01*
D19*
X164937000Y-106208050D02*
X166587000Y-106208050D01*
D20*
X123537000Y-89805850D02*
X125717300Y-87625550D01*
D19*
G04 #@! TO.N,VIN*
X134702000Y-92908050D02*
X140302000Y-87308050D01*
X131837000Y-92908050D02*
X134702000Y-92908050D01*
D20*
G04 #@! TO.N,V_ALL*
X141487000Y-91008050D02*
X142537000Y-91008050D01*
X135587000Y-96908050D02*
X141487000Y-91008050D01*
G04 #@! TD*
G04 #@! TA.AperFunction,Conductor*
G04 #@! TO.N,GND*
G36*
X163198108Y-105177457D02*
G01*
X163214733Y-105192717D01*
X163255872Y-105240193D01*
X163376947Y-105318003D01*
X163483403Y-105349261D01*
X163515035Y-105358549D01*
X163515036Y-105358549D01*
X163515039Y-105358550D01*
X163515041Y-105358550D01*
X163621521Y-105358550D01*
X163679712Y-105377457D01*
X163691525Y-105387546D01*
X164696540Y-106392561D01*
X164696539Y-106392561D01*
X164752489Y-106448510D01*
X164821007Y-106488069D01*
X164821011Y-106488071D01*
X164897435Y-106508549D01*
X164897437Y-106508550D01*
X164897438Y-106508550D01*
X165987500Y-106508550D01*
X166045691Y-106527457D01*
X166081655Y-106576957D01*
X166086500Y-106607550D01*
X166086500Y-111021860D01*
X166067593Y-111080051D01*
X166057504Y-111091864D01*
X163020814Y-114128554D01*
X162966297Y-114156331D01*
X162950810Y-114157550D01*
X158010183Y-114157550D01*
X157951992Y-114138643D01*
X157916028Y-114089143D01*
X157914963Y-114085644D01*
X157911229Y-114072523D01*
X157911227Y-114072519D01*
X157812058Y-113873361D01*
X157677981Y-113695814D01*
X157513562Y-113545926D01*
X157324401Y-113428803D01*
X157116940Y-113348432D01*
X157116939Y-113348431D01*
X157116937Y-113348431D01*
X156898243Y-113307550D01*
X156675757Y-113307550D01*
X156457062Y-113348431D01*
X156380797Y-113377976D01*
X156249599Y-113428803D01*
X156220580Y-113446771D01*
X156060438Y-113545926D01*
X155896020Y-113695813D01*
X155761943Y-113873359D01*
X155761938Y-113873368D01*
X155662770Y-114072523D01*
X155659037Y-114085644D01*
X155624926Y-114136439D01*
X155567474Y-114157482D01*
X155563817Y-114157550D01*
X151510183Y-114157550D01*
X151451992Y-114138643D01*
X151416028Y-114089143D01*
X151414963Y-114085644D01*
X151411229Y-114072523D01*
X151411227Y-114072519D01*
X151312058Y-113873361D01*
X151177981Y-113695814D01*
X151013562Y-113545926D01*
X150824401Y-113428803D01*
X150616940Y-113348432D01*
X150616939Y-113348431D01*
X150616937Y-113348431D01*
X150398243Y-113307550D01*
X150175757Y-113307550D01*
X149957062Y-113348431D01*
X149749596Y-113428804D01*
X149749587Y-113428808D01*
X149744077Y-113432220D01*
X149684647Y-113446771D01*
X149628014Y-113423610D01*
X149621967Y-113418046D01*
X149316496Y-113112575D01*
X149288719Y-113058058D01*
X149287500Y-113042571D01*
X149287500Y-110945570D01*
X149306407Y-110887379D01*
X149355907Y-110851415D01*
X149417093Y-110851415D01*
X149453190Y-110872404D01*
X149560438Y-110970174D01*
X149749599Y-111087297D01*
X149957060Y-111167668D01*
X150175757Y-111208550D01*
X150398243Y-111208550D01*
X150616940Y-111167668D01*
X150824401Y-111087297D01*
X151013562Y-110970174D01*
X151177981Y-110820286D01*
X151312058Y-110642739D01*
X151411229Y-110443578D01*
X151472115Y-110229586D01*
X151492643Y-110008050D01*
X155581357Y-110008050D01*
X155601885Y-110229586D01*
X155662771Y-110443578D01*
X155761942Y-110642739D01*
X155896019Y-110820286D01*
X156060438Y-110970174D01*
X156249599Y-111087297D01*
X156457060Y-111167668D01*
X156675757Y-111208550D01*
X156898243Y-111208550D01*
X157116940Y-111167668D01*
X157324401Y-111087297D01*
X157513562Y-110970174D01*
X157677981Y-110820286D01*
X157812058Y-110642739D01*
X157911229Y-110443578D01*
X157972115Y-110229586D01*
X157992643Y-110008050D01*
X157972115Y-109786514D01*
X157911229Y-109572522D01*
X157812058Y-109373361D01*
X157677981Y-109195814D01*
X157513562Y-109045926D01*
X157324401Y-108928803D01*
X157116940Y-108848432D01*
X157116939Y-108848431D01*
X157116937Y-108848431D01*
X156898243Y-108807550D01*
X156675757Y-108807550D01*
X156457062Y-108848431D01*
X156450031Y-108851155D01*
X156249599Y-108928803D01*
X156060438Y-109045926D01*
X155896020Y-109195813D01*
X155761943Y-109373359D01*
X155761938Y-109373368D01*
X155681615Y-109534678D01*
X155662771Y-109572522D01*
X155601885Y-109786514D01*
X155581357Y-110008050D01*
X151492643Y-110008050D01*
X151472115Y-109786514D01*
X151411229Y-109572522D01*
X151312058Y-109373361D01*
X151177981Y-109195814D01*
X151013562Y-109045926D01*
X150824401Y-108928803D01*
X150616940Y-108848432D01*
X150616939Y-108848431D01*
X150616937Y-108848431D01*
X150398243Y-108807550D01*
X150175757Y-108807550D01*
X149957062Y-108848431D01*
X149950031Y-108851155D01*
X149749599Y-108928803D01*
X149560438Y-109045926D01*
X149453194Y-109143691D01*
X149397455Y-109168921D01*
X149337529Y-109156569D01*
X149296309Y-109111352D01*
X149287500Y-109070529D01*
X149287500Y-107573527D01*
X149306407Y-107515336D01*
X149316484Y-107503536D01*
X149621969Y-107198050D01*
X149676484Y-107170275D01*
X149736916Y-107179846D01*
X149744083Y-107183882D01*
X149749599Y-107187297D01*
X149957060Y-107267668D01*
X150175757Y-107308550D01*
X150398243Y-107308550D01*
X150616940Y-107267668D01*
X150824401Y-107187297D01*
X151013562Y-107070174D01*
X151177981Y-106920286D01*
X151312058Y-106742739D01*
X151411229Y-106543578D01*
X151414963Y-106530456D01*
X151449074Y-106479661D01*
X151506526Y-106458618D01*
X151510183Y-106458550D01*
X155563817Y-106458550D01*
X155622008Y-106477457D01*
X155657972Y-106526957D01*
X155659037Y-106530456D01*
X155662771Y-106543578D01*
X155761942Y-106742739D01*
X155896019Y-106920286D01*
X156060438Y-107070174D01*
X156249599Y-107187297D01*
X156457060Y-107267668D01*
X156675757Y-107308550D01*
X156898243Y-107308550D01*
X157116940Y-107267668D01*
X157324401Y-107187297D01*
X157513562Y-107070174D01*
X157677981Y-106920286D01*
X157812058Y-106742739D01*
X157911229Y-106543578D01*
X157972115Y-106329586D01*
X157992643Y-106108050D01*
X157972115Y-105886514D01*
X157911229Y-105672522D01*
X157855309Y-105560221D01*
X157846297Y-105499706D01*
X157873926Y-105446093D01*
X158132475Y-105187546D01*
X158186991Y-105159769D01*
X158202478Y-105158550D01*
X163139917Y-105158550D01*
X163198108Y-105177457D01*
G37*
G04 #@! TD.AperFunction*
G04 #@! TA.AperFunction,Conductor*
G36*
X160085564Y-85179736D02*
G01*
X160421551Y-85193733D01*
X160429761Y-85194417D01*
X160761399Y-85236059D01*
X160769524Y-85237425D01*
X161096534Y-85306505D01*
X161104496Y-85308536D01*
X161424643Y-85404579D01*
X161432432Y-85407274D01*
X161743462Y-85529607D01*
X161750999Y-85532940D01*
X162050788Y-85680724D01*
X162058003Y-85684663D01*
X162344377Y-85856819D01*
X162346475Y-85858117D01*
X162349512Y-85860049D01*
X162350144Y-85860452D01*
X162351497Y-85861329D01*
X162525844Y-85976349D01*
X162899922Y-86180539D01*
X162899932Y-86180543D01*
X162899937Y-86180546D01*
X162900012Y-86180579D01*
X163289687Y-86352907D01*
X163692438Y-86492257D01*
X164105385Y-86597625D01*
X164525665Y-86668280D01*
X164950366Y-86703732D01*
X165376544Y-86703736D01*
X165801245Y-86668291D01*
X165971086Y-86639741D01*
X166221523Y-86597645D01*
X166362639Y-86561640D01*
X166634475Y-86492283D01*
X167037229Y-86352940D01*
X167426997Y-86180579D01*
X167427058Y-86180546D01*
X167801054Y-85976409D01*
X167801052Y-85976409D01*
X167801078Y-85976396D01*
X167918536Y-85898909D01*
X167918903Y-85898701D01*
X167924227Y-85895185D01*
X167924233Y-85895184D01*
X167977111Y-85860271D01*
X167980611Y-85858066D01*
X168268865Y-85684893D01*
X168276067Y-85680965D01*
X168575882Y-85533274D01*
X168583409Y-85529949D01*
X168655333Y-85501684D01*
X168894473Y-85407706D01*
X168902231Y-85405024D01*
X169222395Y-85309075D01*
X169230361Y-85307045D01*
X169557380Y-85238062D01*
X169565491Y-85236701D01*
X169897121Y-85195155D01*
X169905311Y-85194474D01*
X170240998Y-85180584D01*
X170245071Y-85180500D01*
X170309248Y-85180519D01*
X170309250Y-85180518D01*
X170315546Y-85180520D01*
X170315867Y-85180500D01*
X170316538Y-85180500D01*
X170316671Y-85180490D01*
X177111588Y-85179661D01*
X177169781Y-85198561D01*
X177205751Y-85248057D01*
X177210600Y-85278661D01*
X177210600Y-124719650D01*
X177191693Y-124777841D01*
X177142193Y-124813805D01*
X177111600Y-124818650D01*
X170315845Y-124818650D01*
X170315782Y-124818646D01*
X170309360Y-124818646D01*
X170309359Y-124818646D01*
X170294134Y-124818646D01*
X170245514Y-124818649D01*
X170241396Y-124818563D01*
X169905420Y-124804588D01*
X169897206Y-124803903D01*
X169565601Y-124762285D01*
X169557473Y-124760920D01*
X169230453Y-124691858D01*
X169222466Y-124689820D01*
X168902349Y-124593803D01*
X168894561Y-124591109D01*
X168583535Y-124468796D01*
X168575996Y-124465463D01*
X168276206Y-124317694D01*
X168268972Y-124313745D01*
X168025599Y-124167451D01*
X168016364Y-124160235D01*
X168015958Y-124160766D01*
X168010812Y-124156817D01*
X167970032Y-124133272D01*
X167964946Y-124130126D01*
X167801622Y-124022177D01*
X167427731Y-123817669D01*
X167427725Y-123817666D01*
X167427721Y-123817664D01*
X167038102Y-123644958D01*
X167038098Y-123644956D01*
X167038090Y-123644953D01*
X167038083Y-123644950D01*
X166635480Y-123505263D01*
X166635457Y-123505256D01*
X166222637Y-123399542D01*
X166222613Y-123399537D01*
X166222609Y-123399536D01*
X166074356Y-123374481D01*
X165802377Y-123328518D01*
X165406574Y-123295137D01*
X165377713Y-123292703D01*
X165377345Y-123292702D01*
X164951537Y-123292334D01*
X164951527Y-123292335D01*
X164526806Y-123327416D01*
X164526780Y-123327419D01*
X164106460Y-123397704D01*
X164106440Y-123397709D01*
X163693406Y-123502717D01*
X163290539Y-123641717D01*
X162900625Y-123813746D01*
X162526367Y-124017615D01*
X162526363Y-124017617D01*
X162408724Y-124095078D01*
X162407867Y-124095565D01*
X162407741Y-124095648D01*
X162406566Y-124096316D01*
X162349768Y-124133896D01*
X162349623Y-124133992D01*
X162348916Y-124134458D01*
X162345578Y-124136564D01*
X162057490Y-124310387D01*
X162050262Y-124314347D01*
X161750559Y-124462691D01*
X161743026Y-124466037D01*
X161432007Y-124588942D01*
X161424222Y-124591649D01*
X161104077Y-124688250D01*
X161096094Y-124690301D01*
X160769001Y-124759942D01*
X160760875Y-124761321D01*
X160429141Y-124803511D01*
X160420928Y-124804210D01*
X160097154Y-124818211D01*
X160086946Y-124818125D01*
X160047713Y-124815770D01*
X160042569Y-124816823D01*
X160022748Y-124818832D01*
X119890621Y-124827420D01*
X119832426Y-124808525D01*
X119796452Y-124759033D01*
X119791600Y-124728420D01*
X119791600Y-89759706D01*
X123186500Y-89759706D01*
X123186500Y-118511394D01*
X123188883Y-118520286D01*
X123210386Y-118600538D01*
X123256530Y-118680462D01*
X124662805Y-120086737D01*
X124690581Y-120141252D01*
X124691800Y-120156739D01*
X124691800Y-121490296D01*
X124691801Y-121490308D01*
X124703432Y-121548777D01*
X124703433Y-121548781D01*
X124747748Y-121615102D01*
X124814069Y-121659417D01*
X124858531Y-121668261D01*
X124872541Y-121671048D01*
X124872546Y-121671048D01*
X124872552Y-121671050D01*
X124872553Y-121671050D01*
X126562047Y-121671050D01*
X126562048Y-121671050D01*
X126620531Y-121659417D01*
X126686852Y-121615102D01*
X126731167Y-121548781D01*
X126742800Y-121490298D01*
X126742800Y-121138303D01*
X134911500Y-121138303D01*
X134911500Y-122877796D01*
X134911501Y-122877808D01*
X134923132Y-122936277D01*
X134923133Y-122936281D01*
X134967448Y-123002602D01*
X135033769Y-123046917D01*
X135078231Y-123055761D01*
X135092241Y-123058548D01*
X135092246Y-123058548D01*
X135092252Y-123058550D01*
X135092253Y-123058550D01*
X136831747Y-123058550D01*
X136831748Y-123058550D01*
X136890231Y-123046917D01*
X136956552Y-123002602D01*
X137000867Y-122936281D01*
X137012500Y-122877798D01*
X137012500Y-121138302D01*
X137000867Y-121079819D01*
X136956552Y-121013498D01*
X136930440Y-120996050D01*
X136890233Y-120969184D01*
X136890231Y-120969183D01*
X136890228Y-120969182D01*
X136890227Y-120969182D01*
X136831758Y-120957551D01*
X136831748Y-120957550D01*
X135092252Y-120957550D01*
X135092251Y-120957550D01*
X135092241Y-120957551D01*
X135033772Y-120969182D01*
X135033766Y-120969184D01*
X134967451Y-121013495D01*
X134967445Y-121013501D01*
X134923134Y-121079816D01*
X134923132Y-121079822D01*
X134911501Y-121138291D01*
X134911500Y-121138303D01*
X126742800Y-121138303D01*
X126742800Y-121095050D01*
X126761707Y-121036859D01*
X126811207Y-121000895D01*
X126841800Y-120996050D01*
X129045642Y-120996050D01*
X129045644Y-120996050D01*
X129134788Y-120972164D01*
X129160100Y-120957550D01*
X129214712Y-120926020D01*
X130339928Y-119800803D01*
X170411800Y-119800803D01*
X170411800Y-121490296D01*
X170411801Y-121490308D01*
X170423432Y-121548777D01*
X170423433Y-121548781D01*
X170467748Y-121615102D01*
X170534069Y-121659417D01*
X170578531Y-121668261D01*
X170592541Y-121671048D01*
X170592546Y-121671048D01*
X170592552Y-121671050D01*
X170592553Y-121671050D01*
X172282047Y-121671050D01*
X172282048Y-121671050D01*
X172340531Y-121659417D01*
X172406852Y-121615102D01*
X172451167Y-121548781D01*
X172462800Y-121490298D01*
X172462800Y-119800802D01*
X172451167Y-119742319D01*
X172406852Y-119675998D01*
X172406848Y-119675995D01*
X172340533Y-119631684D01*
X172340531Y-119631683D01*
X172340528Y-119631682D01*
X172340527Y-119631682D01*
X172282058Y-119620051D01*
X172282048Y-119620050D01*
X170592552Y-119620050D01*
X170592551Y-119620050D01*
X170592541Y-119620051D01*
X170534072Y-119631682D01*
X170534066Y-119631684D01*
X170467751Y-119675995D01*
X170467745Y-119676001D01*
X170423434Y-119742316D01*
X170423432Y-119742322D01*
X170411801Y-119800791D01*
X170411800Y-119800803D01*
X130339928Y-119800803D01*
X131753185Y-118387545D01*
X131807702Y-118359769D01*
X131823189Y-118358550D01*
X146783142Y-118358550D01*
X146783144Y-118358550D01*
X146872288Y-118334664D01*
X146880639Y-118329842D01*
X146880644Y-118329841D01*
X146880644Y-118329840D01*
X146899820Y-118318768D01*
X146952212Y-118288520D01*
X147532681Y-117708050D01*
X149081357Y-117708050D01*
X149101885Y-117929586D01*
X149162771Y-118143578D01*
X149261942Y-118342739D01*
X149396019Y-118520286D01*
X149560438Y-118670174D01*
X149749599Y-118787297D01*
X149957060Y-118867668D01*
X150175757Y-118908550D01*
X150398243Y-118908550D01*
X150616940Y-118867668D01*
X150824401Y-118787297D01*
X151013562Y-118670174D01*
X151177981Y-118520286D01*
X151312058Y-118342739D01*
X151411229Y-118143578D01*
X151472115Y-117929586D01*
X151492643Y-117708050D01*
X155581357Y-117708050D01*
X155601885Y-117929586D01*
X155662771Y-118143578D01*
X155761942Y-118342739D01*
X155896019Y-118520286D01*
X156060438Y-118670174D01*
X156249599Y-118787297D01*
X156457060Y-118867668D01*
X156675757Y-118908550D01*
X156898243Y-118908550D01*
X157116940Y-118867668D01*
X157324401Y-118787297D01*
X157513562Y-118670174D01*
X157677981Y-118520286D01*
X157812058Y-118342739D01*
X157911229Y-118143578D01*
X157972115Y-117929586D01*
X157992643Y-117708050D01*
X157972115Y-117486514D01*
X157911229Y-117272522D01*
X157812058Y-117073361D01*
X157677981Y-116895814D01*
X157513562Y-116745926D01*
X157324401Y-116628803D01*
X157116940Y-116548432D01*
X157116939Y-116548431D01*
X157116937Y-116548431D01*
X156898243Y-116507550D01*
X156675757Y-116507550D01*
X156457062Y-116548431D01*
X156380797Y-116577976D01*
X156249599Y-116628803D01*
X156164592Y-116681437D01*
X156060438Y-116745926D01*
X155896020Y-116895813D01*
X155761943Y-117073359D01*
X155761938Y-117073368D01*
X155662772Y-117272519D01*
X155662771Y-117272522D01*
X155601885Y-117486514D01*
X155581357Y-117708050D01*
X151492643Y-117708050D01*
X151472115Y-117486514D01*
X151411229Y-117272522D01*
X151312058Y-117073361D01*
X151177981Y-116895814D01*
X151013562Y-116745926D01*
X150824401Y-116628803D01*
X150616940Y-116548432D01*
X150616939Y-116548431D01*
X150616937Y-116548431D01*
X150398243Y-116507550D01*
X150175757Y-116507550D01*
X149957062Y-116548431D01*
X149880797Y-116577976D01*
X149749599Y-116628803D01*
X149664592Y-116681437D01*
X149560438Y-116745926D01*
X149396020Y-116895813D01*
X149261943Y-117073359D01*
X149261938Y-117073368D01*
X149162772Y-117272519D01*
X149162771Y-117272522D01*
X149101885Y-117486514D01*
X149081357Y-117708050D01*
X147532681Y-117708050D01*
X147881375Y-117359355D01*
X147916983Y-117338805D01*
X147916296Y-117337146D01*
X147922285Y-117334665D01*
X147922285Y-117334664D01*
X147922288Y-117334664D01*
X147932322Y-117328871D01*
X148002212Y-117288520D01*
X149670712Y-115620018D01*
X149725227Y-115592243D01*
X149776474Y-115597708D01*
X149957060Y-115667668D01*
X150175757Y-115708550D01*
X150398243Y-115708550D01*
X150616940Y-115667668D01*
X150824401Y-115587297D01*
X151013562Y-115470174D01*
X151177981Y-115320286D01*
X151312058Y-115142739D01*
X151411229Y-114943578D01*
X151414963Y-114930456D01*
X151449074Y-114879661D01*
X151506526Y-114858618D01*
X151510183Y-114858550D01*
X155563817Y-114858550D01*
X155622008Y-114877457D01*
X155657972Y-114926957D01*
X155659037Y-114930456D01*
X155662771Y-114943578D01*
X155761942Y-115142739D01*
X155896019Y-115320286D01*
X156060438Y-115470174D01*
X156249599Y-115587297D01*
X156457060Y-115667668D01*
X156675757Y-115708550D01*
X156898243Y-115708550D01*
X157116940Y-115667668D01*
X157324401Y-115587297D01*
X157513562Y-115470174D01*
X157677981Y-115320286D01*
X157812058Y-115142739D01*
X157911229Y-114943578D01*
X157914963Y-114930456D01*
X157949074Y-114879661D01*
X158006526Y-114858618D01*
X158010183Y-114858550D01*
X163183142Y-114858550D01*
X163183144Y-114858550D01*
X163272288Y-114834664D01*
X163352212Y-114788520D01*
X166717470Y-111423262D01*
X166763614Y-111343338D01*
X166787500Y-111254193D01*
X166787500Y-111161906D01*
X166787500Y-110485546D01*
X170457080Y-110485546D01*
X170457080Y-110485553D01*
X170475913Y-110676776D01*
X170475914Y-110676781D01*
X170531695Y-110860664D01*
X170531697Y-110860669D01*
X170622269Y-111030119D01*
X170622275Y-111030128D01*
X170622277Y-111030131D01*
X170649144Y-111062868D01*
X170744175Y-111178665D01*
X170744184Y-111178674D01*
X170813458Y-111235525D01*
X170892719Y-111300573D01*
X170892723Y-111300575D01*
X170892730Y-111300580D01*
X171062180Y-111391152D01*
X171062186Y-111391155D01*
X171190288Y-111430014D01*
X171246068Y-111446935D01*
X171246073Y-111446936D01*
X171437297Y-111465770D01*
X171437300Y-111465770D01*
X171437303Y-111465770D01*
X171628526Y-111446936D01*
X171628531Y-111446935D01*
X171812414Y-111391155D01*
X171873170Y-111358679D01*
X171981869Y-111300580D01*
X171981872Y-111300577D01*
X171981881Y-111300573D01*
X172130420Y-111178670D01*
X172252323Y-111030131D01*
X172252327Y-111030122D01*
X172252330Y-111030119D01*
X172310429Y-110921420D01*
X172342905Y-110860664D01*
X172398685Y-110676781D01*
X172398686Y-110676776D01*
X172417520Y-110485553D01*
X172417520Y-110485546D01*
X172398686Y-110294323D01*
X172398685Y-110294318D01*
X172367099Y-110190193D01*
X172342905Y-110110436D01*
X172342902Y-110110430D01*
X172252330Y-109940980D01*
X172252325Y-109940973D01*
X172252323Y-109940969D01*
X172143241Y-109808052D01*
X172130424Y-109792434D01*
X172130415Y-109792425D01*
X172043821Y-109721360D01*
X171981881Y-109670527D01*
X171981878Y-109670525D01*
X171981869Y-109670519D01*
X171812419Y-109579947D01*
X171812414Y-109579945D01*
X171628531Y-109524164D01*
X171628526Y-109524163D01*
X171437303Y-109505330D01*
X171437297Y-109505330D01*
X171246073Y-109524163D01*
X171246068Y-109524164D01*
X171062185Y-109579945D01*
X171062180Y-109579947D01*
X170892730Y-109670519D01*
X170892720Y-109670526D01*
X170744184Y-109792425D01*
X170744175Y-109792434D01*
X170622276Y-109940970D01*
X170622269Y-109940980D01*
X170531697Y-110110430D01*
X170531695Y-110110435D01*
X170475914Y-110294318D01*
X170475913Y-110294323D01*
X170457080Y-110485546D01*
X166787500Y-110485546D01*
X166787500Y-109808047D01*
X168531353Y-109808047D01*
X168531353Y-109808052D01*
X168551834Y-109950506D01*
X168578114Y-110008050D01*
X168611623Y-110081423D01*
X168636758Y-110110430D01*
X168705873Y-110190194D01*
X168826942Y-110268000D01*
X168826947Y-110268003D01*
X168916569Y-110294318D01*
X168965035Y-110308549D01*
X168965036Y-110308549D01*
X168965039Y-110308550D01*
X168965041Y-110308550D01*
X169108959Y-110308550D01*
X169108961Y-110308550D01*
X169247053Y-110268003D01*
X169368128Y-110190193D01*
X169462377Y-110081423D01*
X169522165Y-109950507D01*
X169542647Y-109808050D01*
X169540401Y-109792430D01*
X169522165Y-109665593D01*
X169462377Y-109534678D01*
X169462377Y-109534677D01*
X169368128Y-109425907D01*
X169368127Y-109425906D01*
X169363491Y-109420556D01*
X169365524Y-109418793D01*
X169340067Y-109376555D01*
X169337500Y-109354155D01*
X169337500Y-107945546D01*
X170457080Y-107945546D01*
X170457080Y-107945553D01*
X170475913Y-108136776D01*
X170475914Y-108136781D01*
X170531695Y-108320664D01*
X170531697Y-108320669D01*
X170622269Y-108490119D01*
X170622275Y-108490128D01*
X170622277Y-108490131D01*
X170673110Y-108552071D01*
X170744175Y-108638665D01*
X170744184Y-108638674D01*
X170813458Y-108695525D01*
X170892719Y-108760573D01*
X170892723Y-108760575D01*
X170892730Y-108760580D01*
X171062180Y-108851152D01*
X171062186Y-108851155D01*
X171190288Y-108890014D01*
X171246068Y-108906935D01*
X171246073Y-108906936D01*
X171437297Y-108925770D01*
X171437300Y-108925770D01*
X171437303Y-108925770D01*
X171628526Y-108906936D01*
X171628531Y-108906935D01*
X171812414Y-108851155D01*
X171893993Y-108807550D01*
X171981869Y-108760580D01*
X171981872Y-108760577D01*
X171981881Y-108760573D01*
X172130420Y-108638670D01*
X172252323Y-108490131D01*
X172252327Y-108490122D01*
X172252330Y-108490119D01*
X172342902Y-108320669D01*
X172342905Y-108320664D01*
X172398685Y-108136781D01*
X172398686Y-108136776D01*
X172417520Y-107945553D01*
X172417520Y-107945546D01*
X172398686Y-107754323D01*
X172398685Y-107754318D01*
X172381764Y-107698538D01*
X172342905Y-107570436D01*
X172322639Y-107532521D01*
X172252330Y-107400980D01*
X172252325Y-107400973D01*
X172252323Y-107400969D01*
X172176477Y-107308550D01*
X172130424Y-107252434D01*
X172130415Y-107252425D01*
X172027041Y-107167589D01*
X171981881Y-107130527D01*
X171981878Y-107130525D01*
X171981869Y-107130519D01*
X171812419Y-107039947D01*
X171812414Y-107039945D01*
X171628531Y-106984164D01*
X171628526Y-106984163D01*
X171437303Y-106965330D01*
X171437297Y-106965330D01*
X171246073Y-106984163D01*
X171246068Y-106984164D01*
X171062185Y-107039945D01*
X171062180Y-107039947D01*
X170892730Y-107130519D01*
X170892720Y-107130526D01*
X170744184Y-107252425D01*
X170744175Y-107252434D01*
X170622276Y-107400970D01*
X170622269Y-107400980D01*
X170531697Y-107570430D01*
X170531695Y-107570435D01*
X170475914Y-107754318D01*
X170475913Y-107754323D01*
X170457080Y-107945546D01*
X169337500Y-107945546D01*
X169337500Y-105405546D01*
X170457080Y-105405546D01*
X170457080Y-105405553D01*
X170475913Y-105596776D01*
X170475914Y-105596781D01*
X170531695Y-105780664D01*
X170531697Y-105780669D01*
X170622269Y-105950119D01*
X170622275Y-105950128D01*
X170622277Y-105950131D01*
X170673110Y-106012071D01*
X170744175Y-106098665D01*
X170744184Y-106098674D01*
X170813458Y-106155525D01*
X170892719Y-106220573D01*
X170892723Y-106220575D01*
X170892730Y-106220580D01*
X171062180Y-106311152D01*
X171062186Y-106311155D01*
X171190288Y-106350014D01*
X171246068Y-106366935D01*
X171246073Y-106366936D01*
X171437297Y-106385770D01*
X171437300Y-106385770D01*
X171437303Y-106385770D01*
X171628526Y-106366936D01*
X171628531Y-106366935D01*
X171812414Y-106311155D01*
X171873170Y-106278679D01*
X171981869Y-106220580D01*
X171981872Y-106220577D01*
X171981881Y-106220573D01*
X172130420Y-106098670D01*
X172252323Y-105950131D01*
X172252327Y-105950122D01*
X172252330Y-105950119D01*
X172310429Y-105841420D01*
X172342905Y-105780664D01*
X172398685Y-105596781D01*
X172398686Y-105596776D01*
X172417520Y-105405553D01*
X172417520Y-105405546D01*
X172398686Y-105214323D01*
X172398685Y-105214318D01*
X172377938Y-105145926D01*
X172342905Y-105030436D01*
X172336283Y-105018047D01*
X172252330Y-104860980D01*
X172252325Y-104860973D01*
X172252323Y-104860969D01*
X172180423Y-104773359D01*
X172130424Y-104712434D01*
X172130415Y-104712425D01*
X171988323Y-104595814D01*
X171981881Y-104590527D01*
X171981878Y-104590525D01*
X171981869Y-104590519D01*
X171812419Y-104499947D01*
X171812414Y-104499945D01*
X171628531Y-104444164D01*
X171628526Y-104444163D01*
X171437303Y-104425330D01*
X171437297Y-104425330D01*
X171246073Y-104444163D01*
X171246068Y-104444164D01*
X171062185Y-104499945D01*
X171062180Y-104499947D01*
X170892730Y-104590519D01*
X170892720Y-104590526D01*
X170744184Y-104712425D01*
X170744175Y-104712434D01*
X170622276Y-104860970D01*
X170622269Y-104860980D01*
X170531697Y-105030430D01*
X170531695Y-105030435D01*
X170475914Y-105214318D01*
X170475913Y-105214323D01*
X170457080Y-105405546D01*
X169337500Y-105405546D01*
X169337500Y-102891328D01*
X169345877Y-102865546D01*
X170457080Y-102865546D01*
X170457080Y-102865553D01*
X170475913Y-103056776D01*
X170475914Y-103056781D01*
X170531695Y-103240664D01*
X170531697Y-103240669D01*
X170622269Y-103410119D01*
X170622275Y-103410128D01*
X170622277Y-103410131D01*
X170658407Y-103454155D01*
X170744175Y-103558665D01*
X170744184Y-103558674D01*
X170813458Y-103615525D01*
X170892719Y-103680573D01*
X170892723Y-103680575D01*
X170892730Y-103680580D01*
X171051776Y-103765591D01*
X171062186Y-103771155D01*
X171190288Y-103810014D01*
X171246068Y-103826935D01*
X171246073Y-103826936D01*
X171437297Y-103845770D01*
X171437300Y-103845770D01*
X171437303Y-103845770D01*
X171628526Y-103826936D01*
X171628531Y-103826935D01*
X171812414Y-103771155D01*
X171873170Y-103738679D01*
X171981869Y-103680580D01*
X171981872Y-103680577D01*
X171981881Y-103680573D01*
X172130420Y-103558670D01*
X172252323Y-103410131D01*
X172252327Y-103410122D01*
X172252330Y-103410119D01*
X172342902Y-103240669D01*
X172342905Y-103240664D01*
X172398685Y-103056781D01*
X172398686Y-103056776D01*
X172417520Y-102865553D01*
X172417520Y-102865546D01*
X172398686Y-102674323D01*
X172398685Y-102674318D01*
X172367093Y-102570173D01*
X172342905Y-102490436D01*
X172340208Y-102485390D01*
X172252330Y-102320980D01*
X172252325Y-102320973D01*
X172252323Y-102320969D01*
X172187275Y-102241708D01*
X172130424Y-102172434D01*
X172130415Y-102172425D01*
X172043821Y-102101360D01*
X171981881Y-102050527D01*
X171981878Y-102050525D01*
X171981869Y-102050519D01*
X171812419Y-101959947D01*
X171812414Y-101959945D01*
X171628531Y-101904164D01*
X171628526Y-101904163D01*
X171437303Y-101885330D01*
X171437297Y-101885330D01*
X171246073Y-101904163D01*
X171246068Y-101904164D01*
X171062185Y-101959945D01*
X171062180Y-101959947D01*
X170892730Y-102050519D01*
X170892720Y-102050526D01*
X170744184Y-102172425D01*
X170744175Y-102172434D01*
X170622276Y-102320970D01*
X170622269Y-102320980D01*
X170531697Y-102490430D01*
X170531695Y-102490435D01*
X170475914Y-102674318D01*
X170475913Y-102674323D01*
X170457080Y-102865546D01*
X169345877Y-102865546D01*
X169356407Y-102833137D01*
X169366490Y-102821330D01*
X170941504Y-101246315D01*
X170996019Y-101218540D01*
X171056451Y-101228111D01*
X171058174Y-101229011D01*
X171062180Y-101231152D01*
X171062186Y-101231155D01*
X171190288Y-101270014D01*
X171246068Y-101286935D01*
X171246073Y-101286936D01*
X171437297Y-101305770D01*
X171437300Y-101305770D01*
X171437303Y-101305770D01*
X171628526Y-101286936D01*
X171628531Y-101286935D01*
X171812414Y-101231155D01*
X171922109Y-101172522D01*
X171981869Y-101140580D01*
X171981872Y-101140577D01*
X171981881Y-101140573D01*
X172130420Y-101018670D01*
X172252323Y-100870131D01*
X172252327Y-100870122D01*
X172252330Y-100870119D01*
X172340758Y-100704681D01*
X172342905Y-100700664D01*
X172398685Y-100516781D01*
X172398686Y-100516776D01*
X172417520Y-100325553D01*
X172417520Y-100325546D01*
X172398686Y-100134323D01*
X172398685Y-100134318D01*
X172367805Y-100032521D01*
X172342905Y-99950436D01*
X172331225Y-99928584D01*
X172252330Y-99780980D01*
X172252325Y-99780973D01*
X172252323Y-99780969D01*
X172187275Y-99701708D01*
X172130424Y-99632434D01*
X172130415Y-99632425D01*
X172043821Y-99561360D01*
X171981881Y-99510527D01*
X171981878Y-99510525D01*
X171981869Y-99510519D01*
X171812419Y-99419947D01*
X171812414Y-99419945D01*
X171628531Y-99364164D01*
X171628526Y-99364163D01*
X171437303Y-99345330D01*
X171437297Y-99345330D01*
X171246073Y-99364163D01*
X171246068Y-99364164D01*
X171062185Y-99419945D01*
X171062180Y-99419947D01*
X170892730Y-99510519D01*
X170892720Y-99510526D01*
X170744184Y-99632425D01*
X170744175Y-99632434D01*
X170622276Y-99780970D01*
X170622269Y-99780980D01*
X170531697Y-99950430D01*
X170531695Y-99950435D01*
X170475914Y-100134318D01*
X170475913Y-100134323D01*
X170457080Y-100325546D01*
X170457080Y-100325553D01*
X170475913Y-100516776D01*
X170475914Y-100516781D01*
X170531695Y-100700664D01*
X170531697Y-100700670D01*
X170533841Y-100704681D01*
X170544592Y-100764915D01*
X170517886Y-100819964D01*
X170516531Y-100821346D01*
X168852489Y-102485390D01*
X168852488Y-102485389D01*
X168796539Y-102541339D01*
X168756980Y-102609857D01*
X168756978Y-102609861D01*
X168736500Y-102686285D01*
X168736500Y-109354155D01*
X168717593Y-109412346D01*
X168710258Y-109420339D01*
X168710509Y-109420556D01*
X168611622Y-109534678D01*
X168551834Y-109665593D01*
X168531353Y-109808047D01*
X166787500Y-109808047D01*
X166787500Y-106728200D01*
X166806407Y-106670009D01*
X166832977Y-106644916D01*
X166918126Y-106590194D01*
X166918125Y-106590194D01*
X166918128Y-106590193D01*
X167012377Y-106481423D01*
X167072165Y-106350507D01*
X167078992Y-106303021D01*
X167092647Y-106208052D01*
X167092647Y-106208047D01*
X167072165Y-106065593D01*
X167061724Y-106042731D01*
X167012377Y-105934677D01*
X166918128Y-105825907D01*
X166918127Y-105825906D01*
X166918126Y-105825905D01*
X166797057Y-105748099D01*
X166797054Y-105748097D01*
X166797053Y-105748097D01*
X166797050Y-105748096D01*
X166658964Y-105707550D01*
X166658961Y-105707550D01*
X166515039Y-105707550D01*
X166515035Y-105707550D01*
X166376949Y-105748096D01*
X166376942Y-105748099D01*
X166255876Y-105825904D01*
X166255871Y-105825908D01*
X166214736Y-105873381D01*
X166162340Y-105904977D01*
X166139917Y-105907550D01*
X165102479Y-105907550D01*
X165044288Y-105888643D01*
X165032475Y-105878554D01*
X164117546Y-104963625D01*
X164089769Y-104909108D01*
X164089558Y-104879532D01*
X164092647Y-104858050D01*
X164089558Y-104836567D01*
X164099990Y-104776278D01*
X164117543Y-104752477D01*
X164677460Y-104192561D01*
X164717022Y-104124038D01*
X164737500Y-104047612D01*
X164737500Y-103968488D01*
X164737500Y-101123528D01*
X164756407Y-101065337D01*
X164766490Y-101053530D01*
X165432474Y-100387545D01*
X165486991Y-100359769D01*
X165502478Y-100358550D01*
X165608959Y-100358550D01*
X165608961Y-100358550D01*
X165747053Y-100318003D01*
X165868128Y-100240193D01*
X165962377Y-100131423D01*
X166022165Y-100000507D01*
X166032506Y-99928584D01*
X166042647Y-99858052D01*
X166042647Y-99858047D01*
X166022165Y-99715593D01*
X165962377Y-99584678D01*
X165962377Y-99584677D01*
X165868128Y-99475907D01*
X165868127Y-99475906D01*
X165868126Y-99475905D01*
X165747057Y-99398099D01*
X165747054Y-99398097D01*
X165747053Y-99398097D01*
X165747050Y-99398096D01*
X165608964Y-99357550D01*
X165608961Y-99357550D01*
X165465039Y-99357550D01*
X165465035Y-99357550D01*
X165326949Y-99398096D01*
X165326942Y-99398099D01*
X165205873Y-99475905D01*
X165111622Y-99584678D01*
X165051834Y-99715593D01*
X165031353Y-99858047D01*
X165031353Y-99858053D01*
X165034441Y-99879532D01*
X165024007Y-99939821D01*
X165006453Y-99963623D01*
X164252489Y-100717589D01*
X164196539Y-100773539D01*
X164156980Y-100842057D01*
X164156978Y-100842061D01*
X164136500Y-100918485D01*
X164136500Y-103842571D01*
X164117593Y-103900762D01*
X164107504Y-103912574D01*
X163691523Y-104328554D01*
X163637008Y-104356331D01*
X163621521Y-104357550D01*
X163515035Y-104357550D01*
X163376949Y-104398096D01*
X163376942Y-104398099D01*
X163255876Y-104475904D01*
X163255871Y-104475908D01*
X163214736Y-104523381D01*
X163162340Y-104554977D01*
X163139917Y-104557550D01*
X162487098Y-104557550D01*
X162428907Y-104538643D01*
X162392943Y-104489143D01*
X162392943Y-104427957D01*
X162428907Y-104378457D01*
X162445974Y-104368496D01*
X162447053Y-104368003D01*
X162506464Y-104329822D01*
X162568128Y-104290193D01*
X162662377Y-104181423D01*
X162722165Y-104050507D01*
X162728992Y-104003021D01*
X162742647Y-103908052D01*
X162742647Y-103908047D01*
X162722165Y-103765591D01*
X162662377Y-103634678D01*
X162662377Y-103634677D01*
X162568128Y-103525907D01*
X162568127Y-103525906D01*
X162563491Y-103520556D01*
X162565524Y-103518793D01*
X162540067Y-103476555D01*
X162537500Y-103454155D01*
X162537500Y-103043974D01*
X162547597Y-103012897D01*
X162537500Y-102972125D01*
X162537500Y-100507844D01*
X162556407Y-100449653D01*
X162566496Y-100437840D01*
X162767496Y-100236840D01*
X162822013Y-100209063D01*
X162882445Y-100218634D01*
X162925710Y-100261899D01*
X162936500Y-100306844D01*
X162936500Y-102554155D01*
X162917593Y-102612346D01*
X162910258Y-102620339D01*
X162910509Y-102620556D01*
X162811622Y-102734678D01*
X162751834Y-102865593D01*
X162734492Y-102986214D01*
X162724782Y-103005961D01*
X162734492Y-103029885D01*
X162751834Y-103150506D01*
X162793009Y-103240664D01*
X162811623Y-103281423D01*
X162905872Y-103390193D01*
X162905873Y-103390194D01*
X162936893Y-103410129D01*
X163026947Y-103468003D01*
X163133403Y-103499261D01*
X163165035Y-103508549D01*
X163165036Y-103508549D01*
X163165039Y-103508550D01*
X163165041Y-103508550D01*
X163308959Y-103508550D01*
X163308961Y-103508550D01*
X163447053Y-103468003D01*
X163568128Y-103390193D01*
X163662377Y-103281423D01*
X163722165Y-103150507D01*
X163742647Y-103008050D01*
X163739507Y-102986214D01*
X163722165Y-102865593D01*
X163696114Y-102808550D01*
X163662377Y-102734677D01*
X163568128Y-102625907D01*
X163568127Y-102625906D01*
X163563491Y-102620556D01*
X163565524Y-102618793D01*
X163540067Y-102576555D01*
X163537500Y-102554155D01*
X163537500Y-100073529D01*
X163556407Y-100015338D01*
X163566496Y-100003525D01*
X165784475Y-97785546D01*
X170457080Y-97785546D01*
X170457080Y-97785553D01*
X170475913Y-97976776D01*
X170475914Y-97976781D01*
X170531695Y-98160664D01*
X170531697Y-98160669D01*
X170622269Y-98330119D01*
X170622275Y-98330128D01*
X170622277Y-98330131D01*
X170669396Y-98387546D01*
X170744175Y-98478665D01*
X170744184Y-98478674D01*
X170813458Y-98535525D01*
X170892719Y-98600573D01*
X170892723Y-98600575D01*
X170892730Y-98600580D01*
X171062180Y-98691152D01*
X171062186Y-98691155D01*
X171190288Y-98730014D01*
X171246068Y-98746935D01*
X171246073Y-98746936D01*
X171437297Y-98765770D01*
X171437300Y-98765770D01*
X171437303Y-98765770D01*
X171628526Y-98746936D01*
X171628531Y-98746935D01*
X171812414Y-98691155D01*
X171873170Y-98658679D01*
X171981869Y-98600580D01*
X171981872Y-98600577D01*
X171981881Y-98600573D01*
X172130420Y-98478670D01*
X172252323Y-98330131D01*
X172252327Y-98330122D01*
X172252330Y-98330119D01*
X172317310Y-98208549D01*
X172342905Y-98160664D01*
X172398685Y-97976781D01*
X172398686Y-97976776D01*
X172417520Y-97785553D01*
X172417520Y-97785546D01*
X172398686Y-97594323D01*
X172398685Y-97594318D01*
X172362765Y-97475907D01*
X172342905Y-97410436D01*
X172341897Y-97408550D01*
X172252330Y-97240980D01*
X172252325Y-97240973D01*
X172252323Y-97240969D01*
X172184270Y-97158046D01*
X172130424Y-97092434D01*
X172130415Y-97092425D01*
X172036794Y-97015593D01*
X171981881Y-96970527D01*
X171981878Y-96970525D01*
X171981869Y-96970519D01*
X171812419Y-96879947D01*
X171812414Y-96879945D01*
X171628531Y-96824164D01*
X171628526Y-96824163D01*
X171437303Y-96805330D01*
X171437297Y-96805330D01*
X171246073Y-96824163D01*
X171246068Y-96824164D01*
X171062185Y-96879945D01*
X171062180Y-96879947D01*
X170892730Y-96970519D01*
X170892720Y-96970526D01*
X170744184Y-97092425D01*
X170744175Y-97092434D01*
X170622276Y-97240970D01*
X170622269Y-97240980D01*
X170531697Y-97410430D01*
X170531695Y-97410435D01*
X170475914Y-97594318D01*
X170475913Y-97594323D01*
X170457080Y-97785546D01*
X165784475Y-97785546D01*
X167332475Y-96237546D01*
X167386992Y-96209769D01*
X167402479Y-96208550D01*
X168274363Y-96208550D01*
X168274363Y-96208549D01*
X168350789Y-96188071D01*
X168419311Y-96148510D01*
X168475260Y-96092561D01*
X169322274Y-95245546D01*
X170457080Y-95245546D01*
X170457080Y-95245553D01*
X170475913Y-95436776D01*
X170475914Y-95436781D01*
X170531695Y-95620664D01*
X170531697Y-95620669D01*
X170622269Y-95790119D01*
X170622275Y-95790128D01*
X170622277Y-95790131D01*
X170673110Y-95852071D01*
X170744175Y-95938665D01*
X170744184Y-95938674D01*
X170813458Y-95995525D01*
X170892719Y-96060573D01*
X170892723Y-96060575D01*
X170892730Y-96060580D01*
X171058188Y-96149018D01*
X171062186Y-96151155D01*
X171190288Y-96190014D01*
X171246068Y-96206935D01*
X171246073Y-96206936D01*
X171437297Y-96225770D01*
X171437300Y-96225770D01*
X171437303Y-96225770D01*
X171628526Y-96206936D01*
X171628531Y-96206935D01*
X171812414Y-96151155D01*
X171922036Y-96092561D01*
X171981869Y-96060580D01*
X171981872Y-96060577D01*
X171981881Y-96060573D01*
X172130420Y-95938670D01*
X172252323Y-95790131D01*
X172252327Y-95790122D01*
X172252330Y-95790119D01*
X172310429Y-95681420D01*
X172342905Y-95620664D01*
X172398685Y-95436781D01*
X172398686Y-95436776D01*
X172417520Y-95245553D01*
X172417520Y-95245546D01*
X172398686Y-95054323D01*
X172398685Y-95054318D01*
X172369634Y-94958550D01*
X172342905Y-94870436D01*
X172342902Y-94870430D01*
X172252330Y-94700980D01*
X172252325Y-94700973D01*
X172252323Y-94700969D01*
X172169875Y-94600506D01*
X172130424Y-94552434D01*
X172130415Y-94552425D01*
X172015420Y-94458052D01*
X171981881Y-94430527D01*
X171981878Y-94430525D01*
X171981869Y-94430519D01*
X171812419Y-94339947D01*
X171812414Y-94339945D01*
X171628531Y-94284164D01*
X171628526Y-94284163D01*
X171437303Y-94265330D01*
X171437297Y-94265330D01*
X171246073Y-94284163D01*
X171246068Y-94284164D01*
X171062185Y-94339945D01*
X171062180Y-94339947D01*
X170892730Y-94430519D01*
X170892720Y-94430526D01*
X170744184Y-94552425D01*
X170744175Y-94552434D01*
X170622276Y-94700970D01*
X170622269Y-94700980D01*
X170531697Y-94870430D01*
X170531695Y-94870435D01*
X170475914Y-95054318D01*
X170475913Y-95054323D01*
X170457080Y-95245546D01*
X169322274Y-95245546D01*
X170941504Y-93626315D01*
X170996019Y-93598540D01*
X171056451Y-93608111D01*
X171058174Y-93609011D01*
X171062180Y-93611152D01*
X171062186Y-93611155D01*
X171190288Y-93650014D01*
X171246068Y-93666935D01*
X171246073Y-93666936D01*
X171437297Y-93685770D01*
X171437300Y-93685770D01*
X171437303Y-93685770D01*
X171628526Y-93666936D01*
X171628531Y-93666935D01*
X171812414Y-93611155D01*
X171873170Y-93578679D01*
X171981869Y-93520580D01*
X171981872Y-93520577D01*
X171981881Y-93520573D01*
X172130420Y-93398670D01*
X172252323Y-93250131D01*
X172252327Y-93250122D01*
X172252330Y-93250119D01*
X172336546Y-93092561D01*
X172342905Y-93080664D01*
X172398685Y-92896781D01*
X172398686Y-92896776D01*
X172417520Y-92705553D01*
X172417520Y-92705546D01*
X172398686Y-92514323D01*
X172398685Y-92514318D01*
X172366297Y-92407550D01*
X172342905Y-92330436D01*
X172342902Y-92330430D01*
X172252330Y-92160980D01*
X172252325Y-92160973D01*
X172252323Y-92160969D01*
X172187275Y-92081708D01*
X172130424Y-92012434D01*
X172130415Y-92012425D01*
X172043821Y-91941360D01*
X171981881Y-91890527D01*
X171981878Y-91890525D01*
X171981869Y-91890519D01*
X171812419Y-91799947D01*
X171812414Y-91799945D01*
X171628531Y-91744164D01*
X171628526Y-91744163D01*
X171437303Y-91725330D01*
X171437297Y-91725330D01*
X171246073Y-91744163D01*
X171246068Y-91744164D01*
X171062185Y-91799945D01*
X171062180Y-91799947D01*
X170892730Y-91890519D01*
X170892720Y-91890526D01*
X170744184Y-92012425D01*
X170744175Y-92012434D01*
X170622276Y-92160970D01*
X170622269Y-92160980D01*
X170531697Y-92330430D01*
X170531695Y-92330435D01*
X170475914Y-92514318D01*
X170475913Y-92514323D01*
X170457080Y-92705546D01*
X170457080Y-92705553D01*
X170475913Y-92896776D01*
X170475914Y-92896781D01*
X170531695Y-93080664D01*
X170531697Y-93080670D01*
X170533841Y-93084681D01*
X170544592Y-93144915D01*
X170517886Y-93199964D01*
X170516531Y-93201346D01*
X168139325Y-95578554D01*
X168084808Y-95606331D01*
X168069321Y-95607550D01*
X167635794Y-95607550D01*
X167577603Y-95588643D01*
X167541639Y-95539143D01*
X167541639Y-95477957D01*
X167565790Y-95438546D01*
X167950018Y-95054318D01*
X169427460Y-93576876D01*
X169459966Y-93520573D01*
X169467021Y-93508354D01*
X169487500Y-93431927D01*
X169487500Y-92581328D01*
X169506407Y-92523137D01*
X169516490Y-92511330D01*
X170941504Y-91086315D01*
X170996019Y-91058540D01*
X171056451Y-91068111D01*
X171058174Y-91069011D01*
X171062180Y-91071152D01*
X171062186Y-91071155D01*
X171190288Y-91110014D01*
X171246068Y-91126935D01*
X171246073Y-91126936D01*
X171437297Y-91145770D01*
X171437300Y-91145770D01*
X171437303Y-91145770D01*
X171628526Y-91126936D01*
X171628531Y-91126935D01*
X171812414Y-91071155D01*
X171881180Y-91034399D01*
X171981869Y-90980580D01*
X171981872Y-90980577D01*
X171981881Y-90980573D01*
X172130420Y-90858670D01*
X172252323Y-90710131D01*
X172252327Y-90710122D01*
X172252330Y-90710119D01*
X172338932Y-90548097D01*
X172342905Y-90540664D01*
X172398685Y-90356781D01*
X172398686Y-90356776D01*
X172417520Y-90165553D01*
X172417520Y-90165546D01*
X172398686Y-89974323D01*
X172398685Y-89974318D01*
X172381764Y-89918538D01*
X172342905Y-89790436D01*
X172326480Y-89759707D01*
X172252330Y-89620980D01*
X172252325Y-89620973D01*
X172252323Y-89620969D01*
X172144998Y-89490193D01*
X172130424Y-89472434D01*
X172130415Y-89472425D01*
X172019525Y-89381421D01*
X171981881Y-89350527D01*
X171981878Y-89350525D01*
X171981869Y-89350519D01*
X171812419Y-89259947D01*
X171812414Y-89259945D01*
X171628531Y-89204164D01*
X171628526Y-89204163D01*
X171437303Y-89185330D01*
X171437297Y-89185330D01*
X171246073Y-89204163D01*
X171246068Y-89204164D01*
X171062185Y-89259945D01*
X171062180Y-89259947D01*
X170892730Y-89350519D01*
X170892720Y-89350526D01*
X170744184Y-89472425D01*
X170744175Y-89472434D01*
X170622276Y-89620970D01*
X170622269Y-89620980D01*
X170531697Y-89790430D01*
X170531695Y-89790435D01*
X170475914Y-89974318D01*
X170475913Y-89974323D01*
X170457080Y-90165546D01*
X170457080Y-90165553D01*
X170475913Y-90356776D01*
X170475914Y-90356781D01*
X170531695Y-90540664D01*
X170531697Y-90540670D01*
X170533841Y-90544681D01*
X170544592Y-90604915D01*
X170517886Y-90659964D01*
X170516531Y-90661346D01*
X169030156Y-92147721D01*
X169009658Y-92163450D01*
X169002492Y-92167587D01*
X168946538Y-92223541D01*
X168906980Y-92292057D01*
X168906978Y-92292061D01*
X168886500Y-92368485D01*
X168886500Y-93226886D01*
X168867593Y-93285077D01*
X168857504Y-93296890D01*
X162052489Y-100101905D01*
X162052488Y-100101904D01*
X161996539Y-100157854D01*
X161956980Y-100226372D01*
X161956978Y-100226376D01*
X161936500Y-100302800D01*
X161936500Y-103454155D01*
X161917593Y-103512346D01*
X161910258Y-103520339D01*
X161910509Y-103520556D01*
X161905872Y-103525906D01*
X161905872Y-103525907D01*
X161837915Y-103604333D01*
X161811622Y-103634678D01*
X161751835Y-103765591D01*
X161731353Y-103908047D01*
X161731353Y-103908052D01*
X161751834Y-104050506D01*
X161811622Y-104181421D01*
X161811623Y-104181423D01*
X161905872Y-104290193D01*
X161905873Y-104290194D01*
X162026946Y-104368003D01*
X162028026Y-104368496D01*
X162028755Y-104369165D01*
X162032903Y-104371831D01*
X162032441Y-104372548D01*
X162073105Y-104409867D01*
X162085257Y-104469833D01*
X162059841Y-104525490D01*
X162006564Y-104555578D01*
X161986902Y-104557550D01*
X157997435Y-104557550D01*
X157921011Y-104578028D01*
X157921007Y-104578030D01*
X157852489Y-104617589D01*
X157452030Y-105018047D01*
X157397514Y-105045824D01*
X157337082Y-105036253D01*
X157329921Y-105032220D01*
X157324401Y-105028803D01*
X157116940Y-104948432D01*
X157116939Y-104948431D01*
X157116937Y-104948431D01*
X156898243Y-104907550D01*
X156675757Y-104907550D01*
X156457062Y-104948431D01*
X156417842Y-104963625D01*
X156249599Y-105028803D01*
X156177419Y-105073495D01*
X156060438Y-105145926D01*
X155896020Y-105295813D01*
X155761943Y-105473359D01*
X155761938Y-105473368D01*
X155662770Y-105672523D01*
X155659037Y-105685644D01*
X155624926Y-105736439D01*
X155567474Y-105757482D01*
X155563817Y-105757550D01*
X151510183Y-105757550D01*
X151451992Y-105738643D01*
X151416028Y-105689143D01*
X151414963Y-105685644D01*
X151411229Y-105672523D01*
X151411227Y-105672519D01*
X151312058Y-105473361D01*
X151177981Y-105295814D01*
X151013562Y-105145926D01*
X150824401Y-105028803D01*
X150616940Y-104948432D01*
X150616939Y-104948431D01*
X150616937Y-104948431D01*
X150398243Y-104907550D01*
X150175757Y-104907550D01*
X149957062Y-104948431D01*
X149917842Y-104963625D01*
X149749599Y-105028803D01*
X149677419Y-105073495D01*
X149560438Y-105145926D01*
X149396020Y-105295813D01*
X149261943Y-105473359D01*
X149261938Y-105473368D01*
X149162772Y-105672519D01*
X149162771Y-105672522D01*
X149101885Y-105886514D01*
X149081357Y-106108050D01*
X149101885Y-106329586D01*
X149162770Y-106543576D01*
X149162772Y-106543580D01*
X149218688Y-106655875D01*
X149227701Y-106716393D01*
X149200071Y-106770006D01*
X148802489Y-107167589D01*
X148746539Y-107223539D01*
X148706980Y-107292057D01*
X148706978Y-107292061D01*
X148686500Y-107368485D01*
X148686500Y-113247614D01*
X148706978Y-113324038D01*
X148706980Y-113324042D01*
X148746539Y-113392560D01*
X149200071Y-113846093D01*
X149227848Y-113900609D01*
X149218688Y-113960224D01*
X149162771Y-114072522D01*
X149101885Y-114286514D01*
X149081357Y-114508050D01*
X149101885Y-114729586D01*
X149162770Y-114943576D01*
X149162772Y-114943580D01*
X149195182Y-115008669D01*
X149204195Y-115069187D01*
X149176565Y-115122801D01*
X147642624Y-116656742D01*
X147607022Y-116677301D01*
X147607706Y-116678953D01*
X147601708Y-116681437D01*
X147521790Y-116727578D01*
X146620814Y-117628554D01*
X146566297Y-117656331D01*
X146550810Y-117657550D01*
X131590856Y-117657550D01*
X131501712Y-117681436D01*
X131501711Y-117681436D01*
X131501709Y-117681437D01*
X131421790Y-117727579D01*
X128883314Y-120266054D01*
X128828797Y-120293831D01*
X128813310Y-120295050D01*
X126841800Y-120295050D01*
X126783609Y-120276143D01*
X126747645Y-120226643D01*
X126742800Y-120196050D01*
X126742800Y-119800803D01*
X126742798Y-119800791D01*
X126740011Y-119786781D01*
X126731167Y-119742319D01*
X126686852Y-119675998D01*
X126686848Y-119675995D01*
X126620533Y-119631684D01*
X126620531Y-119631683D01*
X126620528Y-119631682D01*
X126620527Y-119631682D01*
X126562058Y-119620051D01*
X126562048Y-119620050D01*
X126562047Y-119620050D01*
X125228490Y-119620050D01*
X125170299Y-119601143D01*
X125158486Y-119591054D01*
X123916496Y-118349064D01*
X123888719Y-118294547D01*
X123887500Y-118279060D01*
X123887500Y-110485546D01*
X124737080Y-110485546D01*
X124737080Y-110485553D01*
X124755913Y-110676776D01*
X124755914Y-110676781D01*
X124811695Y-110860664D01*
X124811697Y-110860669D01*
X124902269Y-111030119D01*
X124902275Y-111030128D01*
X124902277Y-111030131D01*
X124929144Y-111062868D01*
X125024175Y-111178665D01*
X125024184Y-111178674D01*
X125093458Y-111235525D01*
X125172719Y-111300573D01*
X125172723Y-111300575D01*
X125172730Y-111300580D01*
X125342180Y-111391152D01*
X125342186Y-111391155D01*
X125470288Y-111430014D01*
X125526068Y-111446935D01*
X125526073Y-111446936D01*
X125717297Y-111465770D01*
X125717300Y-111465770D01*
X125717303Y-111465770D01*
X125908526Y-111446936D01*
X125908531Y-111446935D01*
X126092414Y-111391155D01*
X126153170Y-111358679D01*
X126261869Y-111300580D01*
X126261872Y-111300577D01*
X126261881Y-111300573D01*
X126410420Y-111178670D01*
X126532323Y-111030131D01*
X126532327Y-111030122D01*
X126532330Y-111030119D01*
X126590429Y-110921420D01*
X126622905Y-110860664D01*
X126678685Y-110676781D01*
X126678686Y-110676776D01*
X126697520Y-110485553D01*
X126697520Y-110485546D01*
X126678686Y-110294323D01*
X126678685Y-110294318D01*
X126647099Y-110190193D01*
X126622905Y-110110436D01*
X126622902Y-110110430D01*
X126532330Y-109940980D01*
X126532325Y-109940973D01*
X126532323Y-109940969D01*
X126423241Y-109808052D01*
X126410424Y-109792434D01*
X126410415Y-109792425D01*
X126323821Y-109721360D01*
X126261881Y-109670527D01*
X126261878Y-109670525D01*
X126261869Y-109670519D01*
X126092419Y-109579947D01*
X126092414Y-109579945D01*
X125908531Y-109524164D01*
X125908526Y-109524163D01*
X125717303Y-109505330D01*
X125717297Y-109505330D01*
X125526073Y-109524163D01*
X125526068Y-109524164D01*
X125342185Y-109579945D01*
X125342180Y-109579947D01*
X125172730Y-109670519D01*
X125172720Y-109670526D01*
X125024184Y-109792425D01*
X125024175Y-109792434D01*
X124902276Y-109940970D01*
X124902269Y-109940980D01*
X124811697Y-110110430D01*
X124811695Y-110110435D01*
X124755914Y-110294318D01*
X124755913Y-110294323D01*
X124737080Y-110485546D01*
X123887500Y-110485546D01*
X123887500Y-107945546D01*
X124737080Y-107945546D01*
X124737080Y-107945553D01*
X124755913Y-108136776D01*
X124755914Y-108136781D01*
X124811695Y-108320664D01*
X124811697Y-108320669D01*
X124902269Y-108490119D01*
X124902275Y-108490128D01*
X124902277Y-108490131D01*
X124953110Y-108552071D01*
X125024175Y-108638665D01*
X125024184Y-108638674D01*
X125093458Y-108695525D01*
X125172719Y-108760573D01*
X125172723Y-108760575D01*
X125172730Y-108760580D01*
X125342180Y-108851152D01*
X125342186Y-108851155D01*
X125470288Y-108890014D01*
X125526068Y-108906935D01*
X125526073Y-108906936D01*
X125717297Y-108925770D01*
X125717300Y-108925770D01*
X125717303Y-108925770D01*
X125908526Y-108906936D01*
X125908531Y-108906935D01*
X126092414Y-108851155D01*
X126173993Y-108807550D01*
X126261869Y-108760580D01*
X126261872Y-108760577D01*
X126261881Y-108760573D01*
X126410420Y-108638670D01*
X126532323Y-108490131D01*
X126532327Y-108490122D01*
X126532330Y-108490119D01*
X126622902Y-108320669D01*
X126622905Y-108320664D01*
X126678685Y-108136781D01*
X126678686Y-108136776D01*
X126697520Y-107945553D01*
X126697520Y-107945546D01*
X126678686Y-107754323D01*
X126678685Y-107754318D01*
X126661764Y-107698538D01*
X126622905Y-107570436D01*
X126602639Y-107532521D01*
X126532330Y-107400980D01*
X126532325Y-107400973D01*
X126532323Y-107400969D01*
X126456477Y-107308550D01*
X126410424Y-107252434D01*
X126410415Y-107252425D01*
X126307041Y-107167589D01*
X126261881Y-107130527D01*
X126261878Y-107130525D01*
X126261869Y-107130519D01*
X126092419Y-107039947D01*
X126092414Y-107039945D01*
X125908531Y-106984164D01*
X125908526Y-106984163D01*
X125717303Y-106965330D01*
X125717297Y-106965330D01*
X125526073Y-106984163D01*
X125526068Y-106984164D01*
X125342185Y-107039945D01*
X125342180Y-107039947D01*
X125172730Y-107130519D01*
X125172720Y-107130526D01*
X125024184Y-107252425D01*
X125024175Y-107252434D01*
X124902276Y-107400970D01*
X124902269Y-107400980D01*
X124811697Y-107570430D01*
X124811695Y-107570435D01*
X124755914Y-107754318D01*
X124755913Y-107754323D01*
X124737080Y-107945546D01*
X123887500Y-107945546D01*
X123887500Y-105405546D01*
X124737080Y-105405546D01*
X124737080Y-105405553D01*
X124755913Y-105596776D01*
X124755914Y-105596781D01*
X124811695Y-105780664D01*
X124811697Y-105780669D01*
X124902269Y-105950119D01*
X124902275Y-105950128D01*
X124902277Y-105950131D01*
X124953110Y-106012071D01*
X125024175Y-106098665D01*
X125024184Y-106098674D01*
X125093458Y-106155525D01*
X125172719Y-106220573D01*
X125172723Y-106220575D01*
X125172730Y-106220580D01*
X125342180Y-106311152D01*
X125342186Y-106311155D01*
X125470288Y-106350014D01*
X125526068Y-106366935D01*
X125526073Y-106366936D01*
X125717297Y-106385770D01*
X125717300Y-106385770D01*
X125717303Y-106385770D01*
X125908526Y-106366936D01*
X125908531Y-106366935D01*
X126092414Y-106311155D01*
X126153170Y-106278679D01*
X126261869Y-106220580D01*
X126261872Y-106220577D01*
X126261881Y-106220573D01*
X126410420Y-106098670D01*
X126532323Y-105950131D01*
X126532327Y-105950122D01*
X126532330Y-105950119D01*
X126590429Y-105841420D01*
X126622905Y-105780664D01*
X126678685Y-105596781D01*
X126678686Y-105596776D01*
X126697520Y-105405553D01*
X126697520Y-105405546D01*
X126678686Y-105214323D01*
X126678685Y-105214318D01*
X126657938Y-105145926D01*
X126622905Y-105030436D01*
X126616283Y-105018047D01*
X126532330Y-104860980D01*
X126532325Y-104860973D01*
X126532323Y-104860969D01*
X126460423Y-104773359D01*
X126410424Y-104712434D01*
X126410415Y-104712425D01*
X126268323Y-104595814D01*
X126261881Y-104590527D01*
X126261878Y-104590525D01*
X126261869Y-104590519D01*
X126092419Y-104499947D01*
X126092414Y-104499945D01*
X125908531Y-104444164D01*
X125908526Y-104444163D01*
X125717303Y-104425330D01*
X125717297Y-104425330D01*
X125526073Y-104444163D01*
X125526068Y-104444164D01*
X125342185Y-104499945D01*
X125342180Y-104499947D01*
X125172730Y-104590519D01*
X125172720Y-104590526D01*
X125024184Y-104712425D01*
X125024175Y-104712434D01*
X124902276Y-104860970D01*
X124902269Y-104860980D01*
X124811697Y-105030430D01*
X124811695Y-105030435D01*
X124755914Y-105214318D01*
X124755913Y-105214323D01*
X124737080Y-105405546D01*
X123887500Y-105405546D01*
X123887500Y-104388303D01*
X130586500Y-104388303D01*
X130586500Y-106427796D01*
X130586501Y-106427808D01*
X130598132Y-106486277D01*
X130598134Y-106486283D01*
X130642445Y-106552598D01*
X130642448Y-106552602D01*
X130708769Y-106596917D01*
X130753231Y-106605761D01*
X130767241Y-106608548D01*
X130767246Y-106608548D01*
X130767252Y-106608550D01*
X130767253Y-106608550D01*
X132806747Y-106608550D01*
X132806748Y-106608550D01*
X132865231Y-106596917D01*
X132931552Y-106552602D01*
X132975867Y-106486281D01*
X132987500Y-106427798D01*
X132987500Y-105408050D01*
X137081357Y-105408050D01*
X137101885Y-105629586D01*
X137162771Y-105843578D01*
X137261942Y-106042739D01*
X137396019Y-106220286D01*
X137560438Y-106370174D01*
X137749599Y-106487297D01*
X137957060Y-106567668D01*
X138175757Y-106608550D01*
X138398243Y-106608550D01*
X138616940Y-106567668D01*
X138824401Y-106487297D01*
X139013562Y-106370174D01*
X139177981Y-106220286D01*
X139312058Y-106042739D01*
X139411229Y-105843578D01*
X139472115Y-105629586D01*
X139492643Y-105408050D01*
X139472115Y-105186514D01*
X139411229Y-104972522D01*
X139312058Y-104773361D01*
X139177981Y-104595814D01*
X139013562Y-104445926D01*
X138824401Y-104328803D01*
X138616940Y-104248432D01*
X138616939Y-104248431D01*
X138616937Y-104248431D01*
X138398243Y-104207550D01*
X138175757Y-104207550D01*
X137957062Y-104248431D01*
X137880797Y-104277976D01*
X137749599Y-104328803D01*
X137637685Y-104398097D01*
X137560438Y-104445926D01*
X137396020Y-104595813D01*
X137261943Y-104773359D01*
X137261938Y-104773368D01*
X137174766Y-104948432D01*
X137162771Y-104972522D01*
X137101885Y-105186514D01*
X137081357Y-105408050D01*
X132987500Y-105408050D01*
X132987500Y-104388302D01*
X132975867Y-104329819D01*
X132931552Y-104263498D01*
X132909005Y-104248432D01*
X132865233Y-104219184D01*
X132865231Y-104219183D01*
X132865228Y-104219182D01*
X132865227Y-104219182D01*
X132806758Y-104207551D01*
X132806748Y-104207550D01*
X130767252Y-104207550D01*
X130767251Y-104207550D01*
X130767241Y-104207551D01*
X130708772Y-104219182D01*
X130708766Y-104219184D01*
X130642451Y-104263495D01*
X130642445Y-104263501D01*
X130598134Y-104329816D01*
X130598132Y-104329822D01*
X130586501Y-104388291D01*
X130586500Y-104388303D01*
X123887500Y-104388303D01*
X123887500Y-102865546D01*
X124737080Y-102865546D01*
X124737080Y-102865553D01*
X124755913Y-103056776D01*
X124755914Y-103056781D01*
X124811695Y-103240664D01*
X124811697Y-103240669D01*
X124902269Y-103410119D01*
X124902275Y-103410128D01*
X124902277Y-103410131D01*
X124938407Y-103454155D01*
X125024175Y-103558665D01*
X125024184Y-103558674D01*
X125093458Y-103615525D01*
X125172719Y-103680573D01*
X125172723Y-103680575D01*
X125172730Y-103680580D01*
X125331776Y-103765591D01*
X125342186Y-103771155D01*
X125470288Y-103810014D01*
X125526068Y-103826935D01*
X125526073Y-103826936D01*
X125717297Y-103845770D01*
X125717300Y-103845770D01*
X125717303Y-103845770D01*
X125908526Y-103826936D01*
X125908531Y-103826935D01*
X126092414Y-103771155D01*
X126153170Y-103738679D01*
X126261869Y-103680580D01*
X126261872Y-103680577D01*
X126261881Y-103680573D01*
X126410420Y-103558670D01*
X126532323Y-103410131D01*
X126532327Y-103410122D01*
X126532330Y-103410119D01*
X126622902Y-103240669D01*
X126622905Y-103240664D01*
X126678685Y-103056781D01*
X126678686Y-103056776D01*
X126697520Y-102865553D01*
X126697520Y-102865546D01*
X126678686Y-102674323D01*
X126678685Y-102674318D01*
X126647093Y-102570173D01*
X126622905Y-102490436D01*
X126620208Y-102485390D01*
X126532330Y-102320980D01*
X126532325Y-102320973D01*
X126532323Y-102320969D01*
X126467275Y-102241708D01*
X126410424Y-102172434D01*
X126410415Y-102172425D01*
X126323821Y-102101360D01*
X126261881Y-102050527D01*
X126261878Y-102050525D01*
X126261869Y-102050519D01*
X126092419Y-101959947D01*
X126092414Y-101959945D01*
X125908531Y-101904164D01*
X125908526Y-101904163D01*
X125717303Y-101885330D01*
X125717297Y-101885330D01*
X125526073Y-101904163D01*
X125526068Y-101904164D01*
X125342185Y-101959945D01*
X125342180Y-101959947D01*
X125172730Y-102050519D01*
X125172720Y-102050526D01*
X125024184Y-102172425D01*
X125024175Y-102172434D01*
X124902276Y-102320970D01*
X124902269Y-102320980D01*
X124811697Y-102490430D01*
X124811695Y-102490435D01*
X124755914Y-102674318D01*
X124755913Y-102674323D01*
X124737080Y-102865546D01*
X123887500Y-102865546D01*
X123887500Y-101608050D01*
X149081357Y-101608050D01*
X149101885Y-101829586D01*
X149162771Y-102043578D01*
X149261942Y-102242739D01*
X149396019Y-102420286D01*
X149560438Y-102570174D01*
X149749599Y-102687297D01*
X149957060Y-102767668D01*
X150175757Y-102808550D01*
X150398243Y-102808550D01*
X150616940Y-102767668D01*
X150824401Y-102687297D01*
X151013562Y-102570174D01*
X151177981Y-102420286D01*
X151312058Y-102242739D01*
X151411229Y-102043578D01*
X151472115Y-101829586D01*
X151492643Y-101608050D01*
X155581357Y-101608050D01*
X155601885Y-101829586D01*
X155662771Y-102043578D01*
X155761942Y-102242739D01*
X155896019Y-102420286D01*
X156060438Y-102570174D01*
X156249599Y-102687297D01*
X156457060Y-102767668D01*
X156675757Y-102808550D01*
X156898243Y-102808550D01*
X157116940Y-102767668D01*
X157324401Y-102687297D01*
X157513562Y-102570174D01*
X157677981Y-102420286D01*
X157812058Y-102242739D01*
X157911229Y-102043578D01*
X157972115Y-101829586D01*
X157992643Y-101608050D01*
X157972115Y-101386514D01*
X157911229Y-101172522D01*
X157812058Y-100973361D01*
X157677981Y-100795814D01*
X157513562Y-100645926D01*
X157324401Y-100528803D01*
X157116940Y-100448432D01*
X157116939Y-100448431D01*
X157116937Y-100448431D01*
X156898243Y-100407550D01*
X156675757Y-100407550D01*
X156457062Y-100448431D01*
X156453908Y-100449653D01*
X156249599Y-100528803D01*
X156060438Y-100645926D01*
X155896020Y-100795813D01*
X155761943Y-100973359D01*
X155761938Y-100973368D01*
X155678676Y-101140580D01*
X155662771Y-101172522D01*
X155601885Y-101386514D01*
X155581357Y-101608050D01*
X151492643Y-101608050D01*
X151472115Y-101386514D01*
X151411229Y-101172522D01*
X151312058Y-100973361D01*
X151177981Y-100795814D01*
X151013562Y-100645926D01*
X150824401Y-100528803D01*
X150616940Y-100448432D01*
X150616939Y-100448431D01*
X150616937Y-100448431D01*
X150398243Y-100407550D01*
X150175757Y-100407550D01*
X149957062Y-100448431D01*
X149953908Y-100449653D01*
X149749599Y-100528803D01*
X149560438Y-100645926D01*
X149396020Y-100795813D01*
X149261943Y-100973359D01*
X149261938Y-100973368D01*
X149178676Y-101140580D01*
X149162771Y-101172522D01*
X149101885Y-101386514D01*
X149081357Y-101608050D01*
X123887500Y-101608050D01*
X123887500Y-100325546D01*
X124737080Y-100325546D01*
X124737080Y-100325553D01*
X124755913Y-100516776D01*
X124755914Y-100516781D01*
X124811695Y-100700664D01*
X124811697Y-100700669D01*
X124902269Y-100870119D01*
X124902275Y-100870128D01*
X124902277Y-100870131D01*
X124941960Y-100918485D01*
X125024175Y-101018665D01*
X125024184Y-101018674D01*
X125081044Y-101065337D01*
X125172719Y-101140573D01*
X125172723Y-101140575D01*
X125172730Y-101140580D01*
X125342180Y-101231152D01*
X125342186Y-101231155D01*
X125470288Y-101270014D01*
X125526068Y-101286935D01*
X125526073Y-101286936D01*
X125717297Y-101305770D01*
X125717300Y-101305770D01*
X125717303Y-101305770D01*
X125908526Y-101286936D01*
X125908531Y-101286935D01*
X126092414Y-101231155D01*
X126202109Y-101172522D01*
X126261869Y-101140580D01*
X126261872Y-101140577D01*
X126261881Y-101140573D01*
X126410420Y-101018670D01*
X126532323Y-100870131D01*
X126532327Y-100870122D01*
X126532330Y-100870119D01*
X126620758Y-100704681D01*
X126622905Y-100700664D01*
X126678685Y-100516781D01*
X126678686Y-100516776D01*
X126697520Y-100325553D01*
X126697520Y-100325546D01*
X126678686Y-100134323D01*
X126678685Y-100134318D01*
X126647805Y-100032521D01*
X126622905Y-99950436D01*
X126611225Y-99928584D01*
X126532330Y-99780980D01*
X126532325Y-99780973D01*
X126532323Y-99780969D01*
X126467275Y-99701708D01*
X126410424Y-99632434D01*
X126410415Y-99632425D01*
X126323821Y-99561360D01*
X126261881Y-99510527D01*
X126261878Y-99510525D01*
X126261869Y-99510519D01*
X126092419Y-99419947D01*
X126092414Y-99419945D01*
X125908531Y-99364164D01*
X125908526Y-99364163D01*
X125717303Y-99345330D01*
X125717297Y-99345330D01*
X125526073Y-99364163D01*
X125526068Y-99364164D01*
X125342185Y-99419945D01*
X125342180Y-99419947D01*
X125172730Y-99510519D01*
X125172720Y-99510526D01*
X125024184Y-99632425D01*
X125024175Y-99632434D01*
X124902276Y-99780970D01*
X124902269Y-99780980D01*
X124811697Y-99950430D01*
X124811695Y-99950435D01*
X124755914Y-100134318D01*
X124755913Y-100134323D01*
X124737080Y-100325546D01*
X123887500Y-100325546D01*
X123887500Y-97785546D01*
X124737080Y-97785546D01*
X124737080Y-97785553D01*
X124755913Y-97976776D01*
X124755914Y-97976781D01*
X124811695Y-98160664D01*
X124811697Y-98160669D01*
X124902269Y-98330119D01*
X124902275Y-98330128D01*
X124902277Y-98330131D01*
X124949396Y-98387546D01*
X125024175Y-98478665D01*
X125024184Y-98478674D01*
X125093458Y-98535525D01*
X125172719Y-98600573D01*
X125172723Y-98600575D01*
X125172730Y-98600580D01*
X125342180Y-98691152D01*
X125342186Y-98691155D01*
X125470288Y-98730014D01*
X125526068Y-98746935D01*
X125526073Y-98746936D01*
X125717297Y-98765770D01*
X125717300Y-98765770D01*
X125717303Y-98765770D01*
X125908526Y-98746936D01*
X125908531Y-98746935D01*
X126092414Y-98691155D01*
X126153170Y-98658679D01*
X126261869Y-98600580D01*
X126261872Y-98600577D01*
X126261881Y-98600573D01*
X126410420Y-98478670D01*
X126532323Y-98330131D01*
X126532327Y-98330122D01*
X126532330Y-98330119D01*
X126597310Y-98208549D01*
X126622905Y-98160664D01*
X126678685Y-97976781D01*
X126678686Y-97976776D01*
X126697520Y-97785553D01*
X126697520Y-97785546D01*
X126678686Y-97594323D01*
X126678685Y-97594318D01*
X126642765Y-97475907D01*
X126622905Y-97410436D01*
X126621897Y-97408550D01*
X126532330Y-97240980D01*
X126532325Y-97240973D01*
X126532323Y-97240969D01*
X126464270Y-97158046D01*
X126410424Y-97092434D01*
X126410415Y-97092425D01*
X126316794Y-97015593D01*
X126261881Y-96970527D01*
X126261878Y-96970525D01*
X126261869Y-96970519D01*
X126092419Y-96879947D01*
X126092414Y-96879945D01*
X125908531Y-96824164D01*
X125908526Y-96824163D01*
X125717303Y-96805330D01*
X125717297Y-96805330D01*
X125526073Y-96824163D01*
X125526068Y-96824164D01*
X125342185Y-96879945D01*
X125342180Y-96879947D01*
X125172730Y-96970519D01*
X125172720Y-96970526D01*
X125024184Y-97092425D01*
X125024175Y-97092434D01*
X124902276Y-97240970D01*
X124902269Y-97240980D01*
X124811697Y-97410430D01*
X124811695Y-97410435D01*
X124755914Y-97594318D01*
X124755913Y-97594323D01*
X124737080Y-97785546D01*
X123887500Y-97785546D01*
X123887500Y-95245546D01*
X124737080Y-95245546D01*
X124737080Y-95245553D01*
X124755913Y-95436776D01*
X124755914Y-95436781D01*
X124811695Y-95620664D01*
X124811697Y-95620669D01*
X124902269Y-95790119D01*
X124902275Y-95790128D01*
X124902277Y-95790131D01*
X124953110Y-95852071D01*
X125024175Y-95938665D01*
X125024184Y-95938674D01*
X125093458Y-95995525D01*
X125172719Y-96060573D01*
X125172723Y-96060575D01*
X125172730Y-96060580D01*
X125338188Y-96149018D01*
X125342186Y-96151155D01*
X125470288Y-96190014D01*
X125526068Y-96206935D01*
X125526073Y-96206936D01*
X125717297Y-96225770D01*
X125717300Y-96225770D01*
X125717303Y-96225770D01*
X125908526Y-96206936D01*
X125908531Y-96206935D01*
X126092414Y-96151155D01*
X126096412Y-96149017D01*
X126156641Y-96138253D01*
X126211697Y-96164946D01*
X126213096Y-96166317D01*
X129789340Y-99742561D01*
X129789339Y-99742561D01*
X129845289Y-99798510D01*
X129913807Y-99838069D01*
X129913811Y-99838071D01*
X129990235Y-99858549D01*
X129990237Y-99858550D01*
X129990238Y-99858550D01*
X155626563Y-99858550D01*
X155626563Y-99858549D01*
X155702989Y-99838071D01*
X155771511Y-99798510D01*
X155827460Y-99742561D01*
X157182475Y-98387546D01*
X157236992Y-98359769D01*
X157252479Y-98358550D01*
X157308959Y-98358550D01*
X157308961Y-98358550D01*
X157447053Y-98318003D01*
X157568128Y-98240193D01*
X157662377Y-98131423D01*
X157722165Y-98000507D01*
X157742647Y-97858050D01*
X157722165Y-97715593D01*
X157662377Y-97584677D01*
X157568128Y-97475907D01*
X157568127Y-97475906D01*
X157568126Y-97475905D01*
X157447057Y-97398099D01*
X157447054Y-97398097D01*
X157447053Y-97398097D01*
X157447050Y-97398096D01*
X157308964Y-97357550D01*
X157308961Y-97357550D01*
X157165039Y-97357550D01*
X157165035Y-97357550D01*
X157026949Y-97398096D01*
X157026942Y-97398099D01*
X156905873Y-97475905D01*
X156811622Y-97584678D01*
X156751834Y-97715593D01*
X156731353Y-97858047D01*
X156731353Y-97858053D01*
X156740726Y-97923247D01*
X156730293Y-97983536D01*
X156712738Y-98007339D01*
X155491525Y-99228554D01*
X155437008Y-99256331D01*
X155421521Y-99257550D01*
X130195279Y-99257550D01*
X130137088Y-99238643D01*
X130125275Y-99228554D01*
X126638067Y-95741346D01*
X126610290Y-95686829D01*
X126619861Y-95626397D01*
X126620723Y-95624744D01*
X126622905Y-95620664D01*
X126678685Y-95436781D01*
X126678686Y-95436776D01*
X126697520Y-95245553D01*
X126697520Y-95245546D01*
X126678686Y-95054323D01*
X126678685Y-95054318D01*
X126649634Y-94958550D01*
X126622905Y-94870436D01*
X126622902Y-94870430D01*
X126532330Y-94700980D01*
X126532325Y-94700973D01*
X126532323Y-94700969D01*
X126449875Y-94600506D01*
X126410424Y-94552434D01*
X126410415Y-94552425D01*
X126295420Y-94458052D01*
X126261881Y-94430527D01*
X126261878Y-94430525D01*
X126261869Y-94430519D01*
X126092419Y-94339947D01*
X126092414Y-94339945D01*
X125908531Y-94284164D01*
X125908526Y-94284163D01*
X125717303Y-94265330D01*
X125717297Y-94265330D01*
X125526073Y-94284163D01*
X125526068Y-94284164D01*
X125342185Y-94339945D01*
X125342180Y-94339947D01*
X125172730Y-94430519D01*
X125172720Y-94430526D01*
X125024184Y-94552425D01*
X125024175Y-94552434D01*
X124902276Y-94700970D01*
X124902269Y-94700980D01*
X124811697Y-94870430D01*
X124811695Y-94870435D01*
X124755914Y-95054318D01*
X124755913Y-95054323D01*
X124737080Y-95245546D01*
X123887500Y-95245546D01*
X123887500Y-92705546D01*
X124737080Y-92705546D01*
X124737080Y-92705553D01*
X124755913Y-92896776D01*
X124755914Y-92896781D01*
X124811695Y-93080664D01*
X124811697Y-93080669D01*
X124902269Y-93250119D01*
X124902275Y-93250128D01*
X124902277Y-93250131D01*
X124935155Y-93290193D01*
X125024175Y-93398665D01*
X125024184Y-93398674D01*
X125093458Y-93455525D01*
X125172719Y-93520573D01*
X125172723Y-93520575D01*
X125172730Y-93520580D01*
X125338188Y-93609018D01*
X125342186Y-93611155D01*
X125470288Y-93650014D01*
X125526068Y-93666935D01*
X125526073Y-93666936D01*
X125717297Y-93685770D01*
X125717300Y-93685770D01*
X125717303Y-93685770D01*
X125908526Y-93666936D01*
X125908531Y-93666935D01*
X126092414Y-93611155D01*
X126096412Y-93609017D01*
X126156641Y-93598253D01*
X126211697Y-93624946D01*
X126213096Y-93626317D01*
X130679340Y-98092561D01*
X130679339Y-98092561D01*
X130735289Y-98148510D01*
X130803807Y-98188069D01*
X130803811Y-98188071D01*
X130880235Y-98208549D01*
X130880237Y-98208550D01*
X130880238Y-98208550D01*
X148376563Y-98208550D01*
X148376563Y-98208549D01*
X148452989Y-98188071D01*
X148521511Y-98148510D01*
X148549485Y-98120535D01*
X148577461Y-98092561D01*
X148982473Y-97687547D01*
X149036990Y-97659769D01*
X149052477Y-97658550D01*
X149158959Y-97658550D01*
X149158961Y-97658550D01*
X149297053Y-97618003D01*
X149418128Y-97540193D01*
X149512377Y-97431423D01*
X149572165Y-97300507D01*
X149592647Y-97158050D01*
X149592646Y-97158046D01*
X149572165Y-97015593D01*
X149523051Y-96908050D01*
X149512377Y-96884677D01*
X149418128Y-96775907D01*
X149418127Y-96775906D01*
X149418126Y-96775905D01*
X149297057Y-96698099D01*
X149297054Y-96698097D01*
X149297053Y-96698097D01*
X149297050Y-96698096D01*
X149158964Y-96657550D01*
X149158961Y-96657550D01*
X149015039Y-96657550D01*
X149015035Y-96657550D01*
X148876949Y-96698096D01*
X148876942Y-96698099D01*
X148755873Y-96775905D01*
X148661622Y-96884678D01*
X148601834Y-97015593D01*
X148581353Y-97158046D01*
X148581353Y-97158047D01*
X148581353Y-97158050D01*
X148584442Y-97179533D01*
X148574007Y-97239822D01*
X148556453Y-97263624D01*
X148241526Y-97578553D01*
X148187009Y-97606331D01*
X148171522Y-97607550D01*
X131085279Y-97607550D01*
X131027088Y-97588643D01*
X131015275Y-97578554D01*
X130344768Y-96908047D01*
X135081353Y-96908047D01*
X135081353Y-96908052D01*
X135101834Y-97050506D01*
X135150947Y-97158046D01*
X135161623Y-97181423D01*
X135213229Y-97240980D01*
X135255873Y-97290194D01*
X135376942Y-97368000D01*
X135376947Y-97368003D01*
X135479436Y-97398096D01*
X135515035Y-97408549D01*
X135515036Y-97408549D01*
X135515039Y-97408550D01*
X135515041Y-97408550D01*
X135658959Y-97408550D01*
X135658961Y-97408550D01*
X135797053Y-97368003D01*
X135918128Y-97290193D01*
X136012377Y-97181423D01*
X136072165Y-97050507D01*
X136072164Y-97050507D01*
X136072166Y-97050505D01*
X136089631Y-96929027D01*
X136116626Y-96874119D01*
X136117552Y-96873178D01*
X138532684Y-94458047D01*
X150231353Y-94458047D01*
X150231353Y-94458052D01*
X150251834Y-94600506D01*
X150297715Y-94700969D01*
X150311623Y-94731423D01*
X150380682Y-94811122D01*
X150405873Y-94840194D01*
X150452931Y-94870436D01*
X150526947Y-94918003D01*
X150633403Y-94949261D01*
X150665035Y-94958549D01*
X150665036Y-94958549D01*
X150665039Y-94958550D01*
X150665041Y-94958550D01*
X150808959Y-94958550D01*
X150808961Y-94958550D01*
X150947053Y-94918003D01*
X151068128Y-94840193D01*
X151073480Y-94835556D01*
X151074968Y-94837273D01*
X151118341Y-94811122D01*
X151140759Y-94808550D01*
X154683142Y-94808550D01*
X154683144Y-94808550D01*
X154772288Y-94784664D01*
X154852212Y-94738520D01*
X159953186Y-89637546D01*
X160007703Y-89609769D01*
X160023190Y-89608550D01*
X160058959Y-89608550D01*
X160058961Y-89608550D01*
X160197053Y-89568003D01*
X160318128Y-89490193D01*
X160412377Y-89381423D01*
X160472165Y-89250507D01*
X160487769Y-89141979D01*
X160492647Y-89108052D01*
X160492647Y-89108047D01*
X160472165Y-88965593D01*
X160412377Y-88834678D01*
X160412377Y-88834677D01*
X160318128Y-88725907D01*
X160318127Y-88725906D01*
X160318126Y-88725905D01*
X160197057Y-88648099D01*
X160197054Y-88648097D01*
X160197053Y-88648097D01*
X160197050Y-88648096D01*
X160058964Y-88607550D01*
X160058961Y-88607550D01*
X159915039Y-88607550D01*
X159915035Y-88607550D01*
X159776949Y-88648096D01*
X159776942Y-88648099D01*
X159655873Y-88725905D01*
X159561622Y-88834678D01*
X159501834Y-88965594D01*
X159484368Y-89087071D01*
X159457372Y-89141979D01*
X159456380Y-89142986D01*
X154520814Y-94078554D01*
X154466297Y-94106331D01*
X154450810Y-94107550D01*
X151140759Y-94107550D01*
X151082568Y-94088643D01*
X151073596Y-94080409D01*
X151073480Y-94080544D01*
X151068128Y-94075906D01*
X150947057Y-93998099D01*
X150947054Y-93998097D01*
X150947053Y-93998097D01*
X150947050Y-93998096D01*
X150808964Y-93957550D01*
X150808961Y-93957550D01*
X150665039Y-93957550D01*
X150665035Y-93957550D01*
X150526949Y-93998096D01*
X150526942Y-93998099D01*
X150405873Y-94075905D01*
X150311622Y-94184678D01*
X150251834Y-94315593D01*
X150231353Y-94458047D01*
X138532684Y-94458047D01*
X141603186Y-91387546D01*
X141657703Y-91359769D01*
X141673190Y-91358550D01*
X142133241Y-91358550D01*
X142191432Y-91377457D01*
X142200403Y-91385690D01*
X142200520Y-91385556D01*
X142205871Y-91390193D01*
X142326942Y-91468000D01*
X142326947Y-91468003D01*
X142433403Y-91499261D01*
X142465035Y-91508549D01*
X142465036Y-91508549D01*
X142465039Y-91508550D01*
X142465041Y-91508550D01*
X142608959Y-91508550D01*
X142608961Y-91508550D01*
X142747053Y-91468003D01*
X142868128Y-91390193D01*
X142962377Y-91281423D01*
X143022165Y-91150507D01*
X143042647Y-91008050D01*
X143038697Y-90980580D01*
X143022165Y-90865593D01*
X142962377Y-90734678D01*
X142962377Y-90734677D01*
X142868128Y-90625907D01*
X142868127Y-90625906D01*
X142868126Y-90625905D01*
X142747057Y-90548099D01*
X142747054Y-90548097D01*
X142747053Y-90548097D01*
X142747050Y-90548096D01*
X142608964Y-90507550D01*
X142608961Y-90507550D01*
X142465039Y-90507550D01*
X142465035Y-90507550D01*
X142326949Y-90548096D01*
X142326942Y-90548099D01*
X142205871Y-90625906D01*
X142200520Y-90630544D01*
X142199031Y-90628826D01*
X142155659Y-90654978D01*
X142133241Y-90657550D01*
X141440856Y-90657550D01*
X141412927Y-90665033D01*
X141357069Y-90680000D01*
X141351712Y-90681435D01*
X141351708Y-90681437D01*
X141271790Y-90727578D01*
X135620814Y-96378554D01*
X135566297Y-96406331D01*
X135550810Y-96407550D01*
X135515035Y-96407550D01*
X135376949Y-96448096D01*
X135376942Y-96448099D01*
X135255873Y-96525905D01*
X135161622Y-96634678D01*
X135101834Y-96765593D01*
X135081353Y-96908047D01*
X130344768Y-96908047D01*
X126638067Y-93201346D01*
X126610290Y-93146829D01*
X126619861Y-93086397D01*
X126620723Y-93084744D01*
X126622905Y-93080664D01*
X126675268Y-92908047D01*
X131331353Y-92908047D01*
X131331353Y-92908052D01*
X131351834Y-93050506D01*
X131394950Y-93144915D01*
X131411623Y-93181423D01*
X131486550Y-93267894D01*
X131505873Y-93290194D01*
X131626942Y-93368000D01*
X131626947Y-93368003D01*
X131731373Y-93398665D01*
X131765035Y-93408549D01*
X131765036Y-93408549D01*
X131765039Y-93408550D01*
X131765041Y-93408550D01*
X131908959Y-93408550D01*
X131908961Y-93408550D01*
X132047053Y-93368003D01*
X132168128Y-93290193D01*
X132209264Y-93242718D01*
X132261660Y-93211123D01*
X132284083Y-93208550D01*
X134741563Y-93208550D01*
X134741563Y-93208549D01*
X134817989Y-93188071D01*
X134886511Y-93148510D01*
X134942460Y-93092561D01*
X139750784Y-88284235D01*
X139805299Y-88256460D01*
X139865731Y-88266031D01*
X139867454Y-88266931D01*
X139898040Y-88283279D01*
X139898046Y-88283282D01*
X140035997Y-88325128D01*
X140096065Y-88343350D01*
X140096070Y-88343351D01*
X140301997Y-88363633D01*
X140302000Y-88363633D01*
X140302003Y-88363633D01*
X140507929Y-88343351D01*
X140507934Y-88343350D01*
X140705954Y-88283282D01*
X140888450Y-88185735D01*
X141048410Y-88054460D01*
X141179685Y-87894500D01*
X141277232Y-87712004D01*
X141337300Y-87513984D01*
X141337301Y-87513979D01*
X141357583Y-87308053D01*
X141357583Y-87308046D01*
X141347734Y-87208046D01*
X156696417Y-87208046D01*
X156696417Y-87208053D01*
X156716698Y-87413979D01*
X156716699Y-87413984D01*
X156776768Y-87612004D01*
X156874316Y-87794502D01*
X156892596Y-87816776D01*
X157005590Y-87954460D01*
X157005595Y-87954464D01*
X157165547Y-88085733D01*
X157165548Y-88085733D01*
X157165550Y-88085735D01*
X157348046Y-88183282D01*
X157485997Y-88225128D01*
X157546065Y-88243350D01*
X157546070Y-88243351D01*
X157751997Y-88263633D01*
X157752000Y-88263633D01*
X157752003Y-88263633D01*
X157957929Y-88243351D01*
X157957934Y-88243350D01*
X158155954Y-88183282D01*
X158338450Y-88085735D01*
X158498410Y-87954460D01*
X158629685Y-87794500D01*
X158727232Y-87612004D01*
X158787300Y-87413984D01*
X158787301Y-87413979D01*
X158807583Y-87208053D01*
X158807583Y-87208046D01*
X158787301Y-87002120D01*
X158787300Y-87002115D01*
X158757566Y-86904095D01*
X158727232Y-86804096D01*
X158629685Y-86621600D01*
X158610009Y-86597625D01*
X158498414Y-86461645D01*
X158498410Y-86461640D01*
X158498404Y-86461635D01*
X158338452Y-86330366D01*
X158155954Y-86232818D01*
X157957934Y-86172749D01*
X157957929Y-86172748D01*
X157752003Y-86152467D01*
X157751997Y-86152467D01*
X157546070Y-86172748D01*
X157546065Y-86172749D01*
X157348045Y-86232818D01*
X157165547Y-86330366D01*
X157005595Y-86461635D01*
X157005585Y-86461645D01*
X156874316Y-86621597D01*
X156776768Y-86804095D01*
X156716699Y-87002115D01*
X156716698Y-87002120D01*
X156696417Y-87208046D01*
X141347734Y-87208046D01*
X141337301Y-87102120D01*
X141337300Y-87102115D01*
X141306967Y-87002120D01*
X141277232Y-86904096D01*
X141179685Y-86721600D01*
X141178328Y-86719947D01*
X141048414Y-86561645D01*
X141048410Y-86561640D01*
X140963898Y-86492283D01*
X140888452Y-86430366D01*
X140705954Y-86332818D01*
X140507934Y-86272749D01*
X140507929Y-86272748D01*
X140302003Y-86252467D01*
X140301997Y-86252467D01*
X140096070Y-86272748D01*
X140096065Y-86272749D01*
X139898045Y-86332818D01*
X139715547Y-86430366D01*
X139555595Y-86561635D01*
X139555585Y-86561645D01*
X139424316Y-86721597D01*
X139326768Y-86904095D01*
X139266699Y-87102115D01*
X139266698Y-87102120D01*
X139246417Y-87308046D01*
X139246417Y-87308053D01*
X139266698Y-87513979D01*
X139266699Y-87513984D01*
X139326768Y-87712004D01*
X139343118Y-87742593D01*
X139353874Y-87802825D01*
X139327173Y-87857876D01*
X139325812Y-87859265D01*
X134606525Y-92578554D01*
X134552008Y-92606331D01*
X134536521Y-92607550D01*
X132284083Y-92607550D01*
X132225892Y-92588643D01*
X132209264Y-92573381D01*
X132168128Y-92525907D01*
X132135182Y-92504734D01*
X132047057Y-92448099D01*
X132047054Y-92448097D01*
X132047053Y-92448097D01*
X132047050Y-92448096D01*
X131908964Y-92407550D01*
X131908961Y-92407550D01*
X131765039Y-92407550D01*
X131765035Y-92407550D01*
X131626949Y-92448096D01*
X131626942Y-92448099D01*
X131505873Y-92525905D01*
X131411622Y-92634678D01*
X131351834Y-92765593D01*
X131331353Y-92908047D01*
X126675268Y-92908047D01*
X126678685Y-92896781D01*
X126678686Y-92896776D01*
X126697520Y-92705553D01*
X126697520Y-92705546D01*
X126678686Y-92514323D01*
X126678685Y-92514318D01*
X126646297Y-92407550D01*
X126622905Y-92330436D01*
X126622902Y-92330430D01*
X126532330Y-92160980D01*
X126532325Y-92160973D01*
X126532323Y-92160969D01*
X126467275Y-92081708D01*
X126410424Y-92012434D01*
X126410415Y-92012425D01*
X126323821Y-91941360D01*
X126261881Y-91890527D01*
X126261878Y-91890525D01*
X126261869Y-91890519D01*
X126092419Y-91799947D01*
X126092414Y-91799945D01*
X125908531Y-91744164D01*
X125908526Y-91744163D01*
X125717303Y-91725330D01*
X125717297Y-91725330D01*
X125526073Y-91744163D01*
X125526068Y-91744164D01*
X125342185Y-91799945D01*
X125342180Y-91799947D01*
X125172730Y-91890519D01*
X125172720Y-91890526D01*
X125024184Y-92012425D01*
X125024175Y-92012434D01*
X124902276Y-92160970D01*
X124902269Y-92160980D01*
X124811697Y-92330430D01*
X124811695Y-92330435D01*
X124755914Y-92514318D01*
X124755913Y-92514323D01*
X124737080Y-92705546D01*
X123887500Y-92705546D01*
X123887500Y-90165546D01*
X124737080Y-90165546D01*
X124737080Y-90165553D01*
X124755913Y-90356776D01*
X124755914Y-90356781D01*
X124811695Y-90540664D01*
X124811697Y-90540669D01*
X124902269Y-90710119D01*
X124902275Y-90710128D01*
X124902277Y-90710131D01*
X124953110Y-90772071D01*
X125024175Y-90858665D01*
X125024184Y-90858674D01*
X125093458Y-90915525D01*
X125172719Y-90980573D01*
X125172723Y-90980575D01*
X125172730Y-90980580D01*
X125342180Y-91071152D01*
X125342186Y-91071155D01*
X125470288Y-91110014D01*
X125526068Y-91126935D01*
X125526073Y-91126936D01*
X125717297Y-91145770D01*
X125717300Y-91145770D01*
X125717303Y-91145770D01*
X125908526Y-91126936D01*
X125908531Y-91126935D01*
X126092414Y-91071155D01*
X126161180Y-91034399D01*
X126261869Y-90980580D01*
X126261872Y-90980577D01*
X126261881Y-90980573D01*
X126410420Y-90858670D01*
X126532323Y-90710131D01*
X126532327Y-90710122D01*
X126532330Y-90710119D01*
X126618932Y-90548097D01*
X126622905Y-90540664D01*
X126678685Y-90356781D01*
X126678686Y-90356776D01*
X126697520Y-90165553D01*
X126697520Y-90165546D01*
X126678686Y-89974323D01*
X126678685Y-89974318D01*
X126661764Y-89918538D01*
X126622905Y-89790436D01*
X126606480Y-89759707D01*
X126532330Y-89620980D01*
X126532325Y-89620973D01*
X126532323Y-89620969D01*
X126424998Y-89490193D01*
X126410424Y-89472434D01*
X126410415Y-89472425D01*
X126299525Y-89381421D01*
X126261881Y-89350527D01*
X126261878Y-89350525D01*
X126261869Y-89350519D01*
X126092419Y-89259947D01*
X126092414Y-89259945D01*
X125908531Y-89204164D01*
X125908526Y-89204163D01*
X125717303Y-89185330D01*
X125717297Y-89185330D01*
X125526073Y-89204163D01*
X125526068Y-89204164D01*
X125342185Y-89259945D01*
X125342180Y-89259947D01*
X125172730Y-89350519D01*
X125172720Y-89350526D01*
X125024184Y-89472425D01*
X125024175Y-89472434D01*
X124902276Y-89620970D01*
X124902269Y-89620980D01*
X124811697Y-89790430D01*
X124811695Y-89790435D01*
X124755914Y-89974318D01*
X124755913Y-89974323D01*
X124737080Y-90165546D01*
X123887500Y-90165546D01*
X123887500Y-89992040D01*
X123906407Y-89933849D01*
X123916496Y-89922036D01*
X125208486Y-88630046D01*
X125263003Y-88602269D01*
X125278490Y-88601050D01*
X126470127Y-88601050D01*
X126470128Y-88601050D01*
X126542175Y-88586719D01*
X126623877Y-88532127D01*
X126678469Y-88450425D01*
X126692800Y-88378378D01*
X126692800Y-87625546D01*
X127277080Y-87625546D01*
X127277080Y-87625553D01*
X127295913Y-87816776D01*
X127295914Y-87816781D01*
X127351695Y-88000664D01*
X127351697Y-88000669D01*
X127442269Y-88170119D01*
X127442275Y-88170128D01*
X127442277Y-88170131D01*
X127455083Y-88185735D01*
X127564175Y-88318665D01*
X127564184Y-88318674D01*
X127618967Y-88363633D01*
X127712719Y-88440573D01*
X127712723Y-88440575D01*
X127712730Y-88440580D01*
X127882180Y-88531152D01*
X127882186Y-88531155D01*
X128010288Y-88570014D01*
X128066068Y-88586935D01*
X128066073Y-88586936D01*
X128257297Y-88605770D01*
X128257300Y-88605770D01*
X128257303Y-88605770D01*
X128448526Y-88586936D01*
X128448531Y-88586935D01*
X128449250Y-88586717D01*
X128632414Y-88531155D01*
X128693170Y-88498679D01*
X128801869Y-88440580D01*
X128801872Y-88440577D01*
X128801881Y-88440573D01*
X128950420Y-88318670D01*
X129072323Y-88170131D01*
X129072327Y-88170122D01*
X129072330Y-88170119D01*
X129162902Y-88000669D01*
X129162905Y-88000664D01*
X129218685Y-87816781D01*
X129218686Y-87816776D01*
X129237520Y-87625553D01*
X129237520Y-87625546D01*
X129218686Y-87434323D01*
X129218685Y-87434318D01*
X129201764Y-87378538D01*
X129162905Y-87250436D01*
X129140251Y-87208053D01*
X129072330Y-87080980D01*
X129072325Y-87080973D01*
X129072323Y-87080969D01*
X129007275Y-87001708D01*
X128950424Y-86932434D01*
X128950415Y-86932425D01*
X128863821Y-86861360D01*
X128801881Y-86810527D01*
X128801878Y-86810525D01*
X128801869Y-86810519D01*
X128632419Y-86719947D01*
X128632414Y-86719945D01*
X128448531Y-86664164D01*
X128448526Y-86664163D01*
X128257303Y-86645330D01*
X128257297Y-86645330D01*
X128066073Y-86664163D01*
X128066068Y-86664164D01*
X127882185Y-86719945D01*
X127882180Y-86719947D01*
X127712730Y-86810519D01*
X127712720Y-86810526D01*
X127564184Y-86932425D01*
X127564175Y-86932434D01*
X127442276Y-87080970D01*
X127442269Y-87080980D01*
X127351697Y-87250430D01*
X127351695Y-87250435D01*
X127295914Y-87434318D01*
X127295913Y-87434323D01*
X127277080Y-87625546D01*
X126692800Y-87625546D01*
X126692800Y-86872722D01*
X126678469Y-86800675D01*
X126678467Y-86800672D01*
X126678467Y-86800671D01*
X126623879Y-86718976D01*
X126623877Y-86718973D01*
X126623873Y-86718970D01*
X126542177Y-86664382D01*
X126542176Y-86664381D01*
X126542175Y-86664381D01*
X126470128Y-86650050D01*
X124964472Y-86650050D01*
X124964471Y-86650050D01*
X124946581Y-86653608D01*
X124892425Y-86664381D01*
X124892423Y-86664381D01*
X124892423Y-86664382D01*
X124892421Y-86664382D01*
X124810726Y-86718970D01*
X124810720Y-86718976D01*
X124756132Y-86800671D01*
X124756132Y-86800673D01*
X124756131Y-86800675D01*
X124745358Y-86854831D01*
X124741800Y-86872721D01*
X124741800Y-88064360D01*
X124722893Y-88122551D01*
X124712804Y-88134364D01*
X123256530Y-89590638D01*
X123210386Y-89670562D01*
X123186500Y-89759706D01*
X119791600Y-89759706D01*
X119791600Y-85278650D01*
X119810507Y-85220459D01*
X119860007Y-85184495D01*
X119890600Y-85179650D01*
X160017608Y-85179650D01*
X160081443Y-85179650D01*
X160085564Y-85179736D01*
G37*
G04 #@! TD.AperFunction*
G04 #@! TD*
M02*
