G04 #@! TF.GenerationSoftware,KiCad,Pcbnew,8.0.8*
G04 #@! TF.CreationDate,2025-05-26T08:32:39+07:00*
G04 #@! TF.ProjectId,LP_MSPM0C1104-EB-V1.1,4c505f4d-5350-44d3-9043-313130342d45,rev?*
G04 #@! TF.SameCoordinates,Original*
G04 #@! TF.FileFunction,Soldermask,Bot*
G04 #@! TF.FilePolarity,Negative*
%FSLAX46Y46*%
G04 Gerber Fmt 4.6, Leading zero omitted, Abs format (unit mm)*
G04 Created by KiCad (PCBNEW 8.0.8) date 2025-05-26 08:32:39*
%MOMM*%
%LPD*%
G01*
G04 APERTURE LIST*
G04 APERTURE END LIST*
G36*
X150334640Y-121162742D02*
G01*
X150383860Y-121162742D01*
X150438670Y-121172987D01*
X150491845Y-121178225D01*
X150532244Y-121190480D01*
X150574286Y-121198339D01*
X150632513Y-121220896D01*
X150688818Y-121237976D01*
X150720986Y-121255170D01*
X150754932Y-121268321D01*
X150813915Y-121304842D01*
X150870349Y-121335007D01*
X150894061Y-121354467D01*
X150919635Y-121370302D01*
X150976308Y-121421965D01*
X151029462Y-121465588D01*
X151045210Y-121484777D01*
X151062802Y-121500814D01*
X151113866Y-121568435D01*
X151160043Y-121624701D01*
X151168974Y-121641409D01*
X151179545Y-121655408D01*
X151221600Y-121739865D01*
X151257074Y-121806232D01*
X151260857Y-121818704D01*
X151265897Y-121828825D01*
X151295662Y-121933443D01*
X151316825Y-122003205D01*
X151317520Y-122010264D01*
X151318910Y-122015149D01*
X151333364Y-122171140D01*
X151337000Y-122208050D01*
X151333364Y-122244962D01*
X151318910Y-122400950D01*
X151317520Y-122405833D01*
X151316825Y-122412895D01*
X151295658Y-122482672D01*
X151265897Y-122587274D01*
X151260858Y-122597393D01*
X151257074Y-122609868D01*
X151221592Y-122676248D01*
X151179545Y-122760691D01*
X151168975Y-122774686D01*
X151160043Y-122791399D01*
X151113857Y-122847676D01*
X151062802Y-122915285D01*
X151045213Y-122931318D01*
X151029462Y-122950512D01*
X150976297Y-122994143D01*
X150919635Y-123045797D01*
X150894066Y-123061628D01*
X150870349Y-123081093D01*
X150813903Y-123111263D01*
X150754932Y-123147778D01*
X150720993Y-123160925D01*
X150688818Y-123178124D01*
X150632501Y-123195207D01*
X150574286Y-123217760D01*
X150532251Y-123225617D01*
X150491845Y-123237875D01*
X150438666Y-123243112D01*
X150383860Y-123253358D01*
X150334640Y-123253358D01*
X150287000Y-123258050D01*
X150239360Y-123253358D01*
X150190140Y-123253358D01*
X150135332Y-123243112D01*
X150082155Y-123237875D01*
X150041750Y-123225618D01*
X149999713Y-123217760D01*
X149941493Y-123195205D01*
X149885182Y-123178124D01*
X149853009Y-123160927D01*
X149819067Y-123147778D01*
X149760089Y-123111260D01*
X149703651Y-123081093D01*
X149679936Y-123061631D01*
X149654364Y-123045797D01*
X149597692Y-122994134D01*
X149544538Y-122950512D01*
X149528789Y-122931322D01*
X149511197Y-122915285D01*
X149460130Y-122847661D01*
X149413957Y-122791399D01*
X149405026Y-122774691D01*
X149394454Y-122760691D01*
X149352392Y-122676220D01*
X149316926Y-122609868D01*
X149313143Y-122597398D01*
X149308102Y-122587274D01*
X149278325Y-122482618D01*
X149257175Y-122412895D01*
X149256480Y-122405839D01*
X149255089Y-122400950D01*
X149240618Y-122244791D01*
X149237000Y-122208050D01*
X149240618Y-122171311D01*
X149255089Y-122015149D01*
X149256480Y-122010259D01*
X149257175Y-122003205D01*
X149278320Y-121933496D01*
X149308102Y-121828825D01*
X149313144Y-121818698D01*
X149316926Y-121806232D01*
X149352385Y-121739892D01*
X149394454Y-121655408D01*
X149405028Y-121641405D01*
X149413957Y-121624701D01*
X149460120Y-121568450D01*
X149511197Y-121500814D01*
X149528792Y-121484773D01*
X149544538Y-121465588D01*
X149597681Y-121421974D01*
X149654364Y-121370302D01*
X149679941Y-121354464D01*
X149703651Y-121335007D01*
X149760077Y-121304846D01*
X149819067Y-121268321D01*
X149853015Y-121255169D01*
X149885182Y-121237976D01*
X149941481Y-121220897D01*
X149999713Y-121198339D01*
X150041756Y-121190479D01*
X150082155Y-121178225D01*
X150135329Y-121172987D01*
X150190140Y-121162742D01*
X150239360Y-121162742D01*
X150287000Y-121158050D01*
X150334640Y-121162742D01*
G37*
G36*
X156834640Y-121162742D02*
G01*
X156883860Y-121162742D01*
X156938670Y-121172987D01*
X156991845Y-121178225D01*
X157032244Y-121190480D01*
X157074286Y-121198339D01*
X157132513Y-121220896D01*
X157188818Y-121237976D01*
X157220986Y-121255170D01*
X157254932Y-121268321D01*
X157313915Y-121304842D01*
X157370349Y-121335007D01*
X157394061Y-121354467D01*
X157419635Y-121370302D01*
X157476308Y-121421965D01*
X157529462Y-121465588D01*
X157545210Y-121484777D01*
X157562802Y-121500814D01*
X157613866Y-121568435D01*
X157660043Y-121624701D01*
X157668974Y-121641409D01*
X157679545Y-121655408D01*
X157721600Y-121739865D01*
X157757074Y-121806232D01*
X157760857Y-121818704D01*
X157765897Y-121828825D01*
X157795662Y-121933443D01*
X157816825Y-122003205D01*
X157817520Y-122010264D01*
X157818910Y-122015149D01*
X157833364Y-122171140D01*
X157837000Y-122208050D01*
X157833364Y-122244962D01*
X157818910Y-122400950D01*
X157817520Y-122405833D01*
X157816825Y-122412895D01*
X157795658Y-122482672D01*
X157765897Y-122587274D01*
X157760858Y-122597393D01*
X157757074Y-122609868D01*
X157721592Y-122676248D01*
X157679545Y-122760691D01*
X157668975Y-122774686D01*
X157660043Y-122791399D01*
X157613857Y-122847676D01*
X157562802Y-122915285D01*
X157545213Y-122931318D01*
X157529462Y-122950512D01*
X157476297Y-122994143D01*
X157419635Y-123045797D01*
X157394066Y-123061628D01*
X157370349Y-123081093D01*
X157313903Y-123111263D01*
X157254932Y-123147778D01*
X157220993Y-123160925D01*
X157188818Y-123178124D01*
X157132501Y-123195207D01*
X157074286Y-123217760D01*
X157032251Y-123225617D01*
X156991845Y-123237875D01*
X156938666Y-123243112D01*
X156883860Y-123253358D01*
X156834640Y-123253358D01*
X156787000Y-123258050D01*
X156739360Y-123253358D01*
X156690140Y-123253358D01*
X156635332Y-123243112D01*
X156582155Y-123237875D01*
X156541750Y-123225618D01*
X156499713Y-123217760D01*
X156441493Y-123195205D01*
X156385182Y-123178124D01*
X156353009Y-123160927D01*
X156319067Y-123147778D01*
X156260089Y-123111260D01*
X156203651Y-123081093D01*
X156179936Y-123061631D01*
X156154364Y-123045797D01*
X156097692Y-122994134D01*
X156044538Y-122950512D01*
X156028789Y-122931322D01*
X156011197Y-122915285D01*
X155960130Y-122847661D01*
X155913957Y-122791399D01*
X155905026Y-122774691D01*
X155894454Y-122760691D01*
X155852392Y-122676220D01*
X155816926Y-122609868D01*
X155813143Y-122597398D01*
X155808102Y-122587274D01*
X155778325Y-122482618D01*
X155757175Y-122412895D01*
X155756480Y-122405839D01*
X155755089Y-122400950D01*
X155740618Y-122244791D01*
X155737000Y-122208050D01*
X155740618Y-122171311D01*
X155755089Y-122015149D01*
X155756480Y-122010259D01*
X155757175Y-122003205D01*
X155778320Y-121933496D01*
X155808102Y-121828825D01*
X155813144Y-121818698D01*
X155816926Y-121806232D01*
X155852385Y-121739892D01*
X155894454Y-121655408D01*
X155905028Y-121641405D01*
X155913957Y-121624701D01*
X155960120Y-121568450D01*
X156011197Y-121500814D01*
X156028792Y-121484773D01*
X156044538Y-121465588D01*
X156097681Y-121421974D01*
X156154364Y-121370302D01*
X156179941Y-121354464D01*
X156203651Y-121335007D01*
X156260077Y-121304846D01*
X156319067Y-121268321D01*
X156353015Y-121255169D01*
X156385182Y-121237976D01*
X156441481Y-121220897D01*
X156499713Y-121198339D01*
X156541756Y-121190479D01*
X156582155Y-121178225D01*
X156635329Y-121172987D01*
X156690140Y-121162742D01*
X156739360Y-121162742D01*
X156787000Y-121158050D01*
X156834640Y-121162742D01*
G37*
G36*
X136831134Y-121111856D02*
G01*
X136847355Y-121122695D01*
X136858194Y-121138916D01*
X136862000Y-121158050D01*
X136862000Y-122858050D01*
X136858194Y-122877184D01*
X136847355Y-122893405D01*
X136831134Y-122904244D01*
X136812000Y-122908050D01*
X135112000Y-122908050D01*
X135092866Y-122904244D01*
X135076645Y-122893405D01*
X135065806Y-122877184D01*
X135062000Y-122858050D01*
X135062000Y-121158050D01*
X135065806Y-121138916D01*
X135076645Y-121122695D01*
X135092866Y-121111856D01*
X135112000Y-121108050D01*
X136812000Y-121108050D01*
X136831134Y-121111856D01*
G37*
G36*
X138549607Y-121112980D02*
G01*
X138596076Y-121112980D01*
X138636202Y-121121509D01*
X138677533Y-121125580D01*
X138729460Y-121141332D01*
X138780115Y-121152099D01*
X138812527Y-121166529D01*
X138846321Y-121176781D01*
X138900023Y-121205485D01*
X138952000Y-121228627D01*
X138976165Y-121246184D01*
X139001878Y-121259928D01*
X139054333Y-121302977D01*
X139104218Y-121339220D01*
X139120412Y-121357205D01*
X139138225Y-121371824D01*
X139186089Y-121430147D01*
X139230115Y-121479043D01*
X139239365Y-121495065D01*
X139250121Y-121508171D01*
X139289908Y-121582607D01*
X139324191Y-121641987D01*
X139328134Y-121654124D01*
X139333268Y-121663728D01*
X139361568Y-121757021D01*
X139382333Y-121820929D01*
X139383064Y-121827884D01*
X139384469Y-121832516D01*
X139398151Y-121971435D01*
X139402000Y-122008050D01*
X139398151Y-122044667D01*
X139384469Y-122183583D01*
X139383064Y-122188214D01*
X139382333Y-122195171D01*
X139361563Y-122259092D01*
X139333268Y-122352371D01*
X139328135Y-122361973D01*
X139324191Y-122374113D01*
X139289901Y-122433504D01*
X139250121Y-122507928D01*
X139239367Y-122521031D01*
X139230115Y-122537057D01*
X139186080Y-122585962D01*
X139138225Y-122644275D01*
X139120415Y-122658890D01*
X139104218Y-122676880D01*
X139054323Y-122713130D01*
X139001878Y-122756171D01*
X138976171Y-122769911D01*
X138952000Y-122787473D01*
X138900012Y-122810619D01*
X138846321Y-122839318D01*
X138812534Y-122849567D01*
X138780115Y-122864001D01*
X138729449Y-122874770D01*
X138677533Y-122890519D01*
X138636210Y-122894588D01*
X138596076Y-122903120D01*
X138549597Y-122903120D01*
X138502000Y-122907808D01*
X138454403Y-122903120D01*
X138407924Y-122903120D01*
X138367789Y-122894589D01*
X138326466Y-122890519D01*
X138274546Y-122874769D01*
X138223885Y-122864001D01*
X138191467Y-122849567D01*
X138157678Y-122839318D01*
X138103981Y-122810616D01*
X138052000Y-122787473D01*
X138027831Y-122769913D01*
X138002121Y-122756171D01*
X137949667Y-122713124D01*
X137899782Y-122676880D01*
X137883587Y-122658893D01*
X137865774Y-122644275D01*
X137817908Y-122585949D01*
X137773885Y-122537057D01*
X137764634Y-122521035D01*
X137753878Y-122507928D01*
X137714085Y-122433481D01*
X137679809Y-122374113D01*
X137675866Y-122361978D01*
X137670731Y-122352371D01*
X137642421Y-122259046D01*
X137621667Y-122195171D01*
X137620936Y-122188219D01*
X137619530Y-122183583D01*
X137605832Y-122044516D01*
X137602000Y-122008050D01*
X137605832Y-121971586D01*
X137619530Y-121832516D01*
X137620936Y-121827879D01*
X137621667Y-121820929D01*
X137642416Y-121757067D01*
X137670731Y-121663728D01*
X137675866Y-121654119D01*
X137679809Y-121641987D01*
X137714078Y-121582631D01*
X137753878Y-121508171D01*
X137764636Y-121495061D01*
X137773885Y-121479043D01*
X137817898Y-121430160D01*
X137865774Y-121371824D01*
X137883590Y-121357202D01*
X137899782Y-121339220D01*
X137949657Y-121302983D01*
X138002121Y-121259928D01*
X138027836Y-121246182D01*
X138052000Y-121228627D01*
X138103970Y-121205488D01*
X138157678Y-121176781D01*
X138191474Y-121166528D01*
X138223885Y-121152099D01*
X138274535Y-121141332D01*
X138326466Y-121125580D01*
X138367798Y-121121509D01*
X138407924Y-121112980D01*
X138454393Y-121112980D01*
X138502000Y-121108291D01*
X138549607Y-121112980D01*
G37*
G36*
X126561434Y-119774356D02*
G01*
X126577655Y-119785195D01*
X126588494Y-119801416D01*
X126592300Y-119820550D01*
X126592300Y-121470550D01*
X126588494Y-121489684D01*
X126577655Y-121505905D01*
X126561434Y-121516744D01*
X126542300Y-121520550D01*
X124892300Y-121520550D01*
X124873166Y-121516744D01*
X124856945Y-121505905D01*
X124846106Y-121489684D01*
X124842300Y-121470550D01*
X124842300Y-119820550D01*
X124846106Y-119801416D01*
X124856945Y-119785195D01*
X124873166Y-119774356D01*
X124892300Y-119770550D01*
X126542300Y-119770550D01*
X126561434Y-119774356D01*
G37*
G36*
X172281434Y-119774356D02*
G01*
X172297655Y-119785195D01*
X172308494Y-119801416D01*
X172312300Y-119820550D01*
X172312300Y-121470550D01*
X172308494Y-121489684D01*
X172297655Y-121505905D01*
X172281434Y-121516744D01*
X172262300Y-121520550D01*
X170612300Y-121520550D01*
X170593166Y-121516744D01*
X170576945Y-121505905D01*
X170566106Y-121489684D01*
X170562300Y-121470550D01*
X170562300Y-119820550D01*
X170566106Y-119801416D01*
X170576945Y-119785195D01*
X170593166Y-119774356D01*
X170612300Y-119770550D01*
X172262300Y-119770550D01*
X172281434Y-119774356D01*
G37*
G36*
X125987690Y-117273376D02*
G01*
X126154800Y-117347778D01*
X126302789Y-117455298D01*
X126425190Y-117591238D01*
X126516652Y-117749655D01*
X126573179Y-117923627D01*
X126592300Y-118105550D01*
X126573179Y-118287473D01*
X126516652Y-118461445D01*
X126425190Y-118619862D01*
X126302789Y-118755802D01*
X126154800Y-118863322D01*
X125987690Y-118937724D01*
X125808762Y-118975757D01*
X125625838Y-118975757D01*
X125446910Y-118937724D01*
X125279800Y-118863322D01*
X125131811Y-118755802D01*
X125009410Y-118619862D01*
X124917948Y-118461445D01*
X124861421Y-118287473D01*
X124842300Y-118105550D01*
X124861421Y-117923627D01*
X124917948Y-117749655D01*
X125009410Y-117591238D01*
X125131811Y-117455298D01*
X125279800Y-117347778D01*
X125446910Y-117273376D01*
X125625838Y-117235343D01*
X125808762Y-117235343D01*
X125987690Y-117273376D01*
G37*
G36*
X171707690Y-117273376D02*
G01*
X171874800Y-117347778D01*
X172022789Y-117455298D01*
X172145190Y-117591238D01*
X172236652Y-117749655D01*
X172293179Y-117923627D01*
X172312300Y-118105550D01*
X172293179Y-118287473D01*
X172236652Y-118461445D01*
X172145190Y-118619862D01*
X172022789Y-118755802D01*
X171874800Y-118863322D01*
X171707690Y-118937724D01*
X171528762Y-118975757D01*
X171345838Y-118975757D01*
X171166910Y-118937724D01*
X170999800Y-118863322D01*
X170851811Y-118755802D01*
X170729410Y-118619862D01*
X170637948Y-118461445D01*
X170581421Y-118287473D01*
X170562300Y-118105550D01*
X170581421Y-117923627D01*
X170637948Y-117749655D01*
X170729410Y-117591238D01*
X170851811Y-117455298D01*
X170999800Y-117347778D01*
X171166910Y-117273376D01*
X171345838Y-117235343D01*
X171528762Y-117235343D01*
X171707690Y-117273376D01*
G37*
G36*
X150334640Y-116662742D02*
G01*
X150383860Y-116662742D01*
X150438670Y-116672987D01*
X150491845Y-116678225D01*
X150532244Y-116690480D01*
X150574286Y-116698339D01*
X150632513Y-116720896D01*
X150688818Y-116737976D01*
X150720986Y-116755170D01*
X150754932Y-116768321D01*
X150813915Y-116804842D01*
X150870349Y-116835007D01*
X150894061Y-116854467D01*
X150919635Y-116870302D01*
X150976308Y-116921965D01*
X151029462Y-116965588D01*
X151045210Y-116984777D01*
X151062802Y-117000814D01*
X151113866Y-117068435D01*
X151160043Y-117124701D01*
X151168974Y-117141409D01*
X151179545Y-117155408D01*
X151221600Y-117239865D01*
X151257074Y-117306232D01*
X151260857Y-117318704D01*
X151265897Y-117328825D01*
X151295662Y-117433443D01*
X151316825Y-117503205D01*
X151317520Y-117510264D01*
X151318910Y-117515149D01*
X151333364Y-117671140D01*
X151337000Y-117708050D01*
X151333364Y-117744962D01*
X151318910Y-117900950D01*
X151317520Y-117905833D01*
X151316825Y-117912895D01*
X151295658Y-117982672D01*
X151265897Y-118087274D01*
X151260858Y-118097393D01*
X151257074Y-118109868D01*
X151221592Y-118176248D01*
X151179545Y-118260691D01*
X151168975Y-118274686D01*
X151160043Y-118291399D01*
X151113857Y-118347676D01*
X151062802Y-118415285D01*
X151045213Y-118431318D01*
X151029462Y-118450512D01*
X150976297Y-118494143D01*
X150919635Y-118545797D01*
X150894066Y-118561628D01*
X150870349Y-118581093D01*
X150813903Y-118611263D01*
X150754932Y-118647778D01*
X150720993Y-118660925D01*
X150688818Y-118678124D01*
X150632501Y-118695207D01*
X150574286Y-118717760D01*
X150532251Y-118725617D01*
X150491845Y-118737875D01*
X150438666Y-118743112D01*
X150383860Y-118753358D01*
X150334640Y-118753358D01*
X150287000Y-118758050D01*
X150239360Y-118753358D01*
X150190140Y-118753358D01*
X150135332Y-118743112D01*
X150082155Y-118737875D01*
X150041750Y-118725618D01*
X149999713Y-118717760D01*
X149941493Y-118695205D01*
X149885182Y-118678124D01*
X149853009Y-118660927D01*
X149819067Y-118647778D01*
X149760089Y-118611260D01*
X149703651Y-118581093D01*
X149679936Y-118561631D01*
X149654364Y-118545797D01*
X149597692Y-118494134D01*
X149544538Y-118450512D01*
X149528789Y-118431322D01*
X149511197Y-118415285D01*
X149460130Y-118347661D01*
X149413957Y-118291399D01*
X149405026Y-118274691D01*
X149394454Y-118260691D01*
X149352392Y-118176220D01*
X149316926Y-118109868D01*
X149313143Y-118097398D01*
X149308102Y-118087274D01*
X149278325Y-117982618D01*
X149257175Y-117912895D01*
X149256480Y-117905839D01*
X149255089Y-117900950D01*
X149240618Y-117744791D01*
X149237000Y-117708050D01*
X149240618Y-117671311D01*
X149255089Y-117515149D01*
X149256480Y-117510259D01*
X149257175Y-117503205D01*
X149278320Y-117433496D01*
X149308102Y-117328825D01*
X149313144Y-117318698D01*
X149316926Y-117306232D01*
X149352385Y-117239892D01*
X149394454Y-117155408D01*
X149405028Y-117141405D01*
X149413957Y-117124701D01*
X149460120Y-117068450D01*
X149511197Y-117000814D01*
X149528792Y-116984773D01*
X149544538Y-116965588D01*
X149597681Y-116921974D01*
X149654364Y-116870302D01*
X149679941Y-116854464D01*
X149703651Y-116835007D01*
X149760077Y-116804846D01*
X149819067Y-116768321D01*
X149853015Y-116755169D01*
X149885182Y-116737976D01*
X149941481Y-116720897D01*
X149999713Y-116698339D01*
X150041756Y-116690479D01*
X150082155Y-116678225D01*
X150135329Y-116672987D01*
X150190140Y-116662742D01*
X150239360Y-116662742D01*
X150287000Y-116658050D01*
X150334640Y-116662742D01*
G37*
G36*
X156834640Y-116662742D02*
G01*
X156883860Y-116662742D01*
X156938670Y-116672987D01*
X156991845Y-116678225D01*
X157032244Y-116690480D01*
X157074286Y-116698339D01*
X157132513Y-116720896D01*
X157188818Y-116737976D01*
X157220986Y-116755170D01*
X157254932Y-116768321D01*
X157313915Y-116804842D01*
X157370349Y-116835007D01*
X157394061Y-116854467D01*
X157419635Y-116870302D01*
X157476308Y-116921965D01*
X157529462Y-116965588D01*
X157545210Y-116984777D01*
X157562802Y-117000814D01*
X157613866Y-117068435D01*
X157660043Y-117124701D01*
X157668974Y-117141409D01*
X157679545Y-117155408D01*
X157721600Y-117239865D01*
X157757074Y-117306232D01*
X157760857Y-117318704D01*
X157765897Y-117328825D01*
X157795662Y-117433443D01*
X157816825Y-117503205D01*
X157817520Y-117510264D01*
X157818910Y-117515149D01*
X157833364Y-117671140D01*
X157837000Y-117708050D01*
X157833364Y-117744962D01*
X157818910Y-117900950D01*
X157817520Y-117905833D01*
X157816825Y-117912895D01*
X157795658Y-117982672D01*
X157765897Y-118087274D01*
X157760858Y-118097393D01*
X157757074Y-118109868D01*
X157721592Y-118176248D01*
X157679545Y-118260691D01*
X157668975Y-118274686D01*
X157660043Y-118291399D01*
X157613857Y-118347676D01*
X157562802Y-118415285D01*
X157545213Y-118431318D01*
X157529462Y-118450512D01*
X157476297Y-118494143D01*
X157419635Y-118545797D01*
X157394066Y-118561628D01*
X157370349Y-118581093D01*
X157313903Y-118611263D01*
X157254932Y-118647778D01*
X157220993Y-118660925D01*
X157188818Y-118678124D01*
X157132501Y-118695207D01*
X157074286Y-118717760D01*
X157032251Y-118725617D01*
X156991845Y-118737875D01*
X156938666Y-118743112D01*
X156883860Y-118753358D01*
X156834640Y-118753358D01*
X156787000Y-118758050D01*
X156739360Y-118753358D01*
X156690140Y-118753358D01*
X156635332Y-118743112D01*
X156582155Y-118737875D01*
X156541750Y-118725618D01*
X156499713Y-118717760D01*
X156441493Y-118695205D01*
X156385182Y-118678124D01*
X156353009Y-118660927D01*
X156319067Y-118647778D01*
X156260089Y-118611260D01*
X156203651Y-118581093D01*
X156179936Y-118561631D01*
X156154364Y-118545797D01*
X156097692Y-118494134D01*
X156044538Y-118450512D01*
X156028789Y-118431322D01*
X156011197Y-118415285D01*
X155960130Y-118347661D01*
X155913957Y-118291399D01*
X155905026Y-118274691D01*
X155894454Y-118260691D01*
X155852392Y-118176220D01*
X155816926Y-118109868D01*
X155813143Y-118097398D01*
X155808102Y-118087274D01*
X155778325Y-117982618D01*
X155757175Y-117912895D01*
X155756480Y-117905839D01*
X155755089Y-117900950D01*
X155740618Y-117744791D01*
X155737000Y-117708050D01*
X155740618Y-117671311D01*
X155755089Y-117515149D01*
X155756480Y-117510259D01*
X155757175Y-117503205D01*
X155778320Y-117433496D01*
X155808102Y-117328825D01*
X155813144Y-117318698D01*
X155816926Y-117306232D01*
X155852385Y-117239892D01*
X155894454Y-117155408D01*
X155905028Y-117141405D01*
X155913957Y-117124701D01*
X155960120Y-117068450D01*
X156011197Y-117000814D01*
X156028792Y-116984773D01*
X156044538Y-116965588D01*
X156097681Y-116921974D01*
X156154364Y-116870302D01*
X156179941Y-116854464D01*
X156203651Y-116835007D01*
X156260077Y-116804846D01*
X156319067Y-116768321D01*
X156353015Y-116755169D01*
X156385182Y-116737976D01*
X156441481Y-116720897D01*
X156499713Y-116698339D01*
X156541756Y-116690479D01*
X156582155Y-116678225D01*
X156635329Y-116672987D01*
X156690140Y-116662742D01*
X156739360Y-116662742D01*
X156787000Y-116658050D01*
X156834640Y-116662742D01*
G37*
G36*
X125987690Y-114733376D02*
G01*
X126154800Y-114807778D01*
X126302789Y-114915298D01*
X126425190Y-115051238D01*
X126516652Y-115209655D01*
X126573179Y-115383627D01*
X126592300Y-115565550D01*
X126573179Y-115747473D01*
X126516652Y-115921445D01*
X126425190Y-116079862D01*
X126302789Y-116215802D01*
X126154800Y-116323322D01*
X125987690Y-116397724D01*
X125808762Y-116435757D01*
X125625838Y-116435757D01*
X125446910Y-116397724D01*
X125279800Y-116323322D01*
X125131811Y-116215802D01*
X125009410Y-116079862D01*
X124917948Y-115921445D01*
X124861421Y-115747473D01*
X124842300Y-115565550D01*
X124861421Y-115383627D01*
X124917948Y-115209655D01*
X125009410Y-115051238D01*
X125131811Y-114915298D01*
X125279800Y-114807778D01*
X125446910Y-114733376D01*
X125625838Y-114695343D01*
X125808762Y-114695343D01*
X125987690Y-114733376D01*
G37*
G36*
X171707690Y-114733376D02*
G01*
X171874800Y-114807778D01*
X172022789Y-114915298D01*
X172145190Y-115051238D01*
X172236652Y-115209655D01*
X172293179Y-115383627D01*
X172312300Y-115565550D01*
X172293179Y-115747473D01*
X172236652Y-115921445D01*
X172145190Y-116079862D01*
X172022789Y-116215802D01*
X171874800Y-116323322D01*
X171707690Y-116397724D01*
X171528762Y-116435757D01*
X171345838Y-116435757D01*
X171166910Y-116397724D01*
X170999800Y-116323322D01*
X170851811Y-116215802D01*
X170729410Y-116079862D01*
X170637948Y-115921445D01*
X170581421Y-115747473D01*
X170562300Y-115565550D01*
X170581421Y-115383627D01*
X170637948Y-115209655D01*
X170729410Y-115051238D01*
X170851811Y-114915298D01*
X170999800Y-114807778D01*
X171166910Y-114733376D01*
X171345838Y-114695343D01*
X171528762Y-114695343D01*
X171707690Y-114733376D01*
G37*
G36*
X150334640Y-113462742D02*
G01*
X150383860Y-113462742D01*
X150438670Y-113472987D01*
X150491845Y-113478225D01*
X150532244Y-113490480D01*
X150574286Y-113498339D01*
X150632513Y-113520896D01*
X150688818Y-113537976D01*
X150720986Y-113555170D01*
X150754932Y-113568321D01*
X150813915Y-113604842D01*
X150870349Y-113635007D01*
X150894061Y-113654467D01*
X150919635Y-113670302D01*
X150976308Y-113721965D01*
X151029462Y-113765588D01*
X151045210Y-113784777D01*
X151062802Y-113800814D01*
X151113866Y-113868435D01*
X151160043Y-113924701D01*
X151168974Y-113941409D01*
X151179545Y-113955408D01*
X151221600Y-114039865D01*
X151257074Y-114106232D01*
X151260857Y-114118704D01*
X151265897Y-114128825D01*
X151295662Y-114233443D01*
X151316825Y-114303205D01*
X151317520Y-114310264D01*
X151318910Y-114315149D01*
X151333364Y-114471140D01*
X151337000Y-114508050D01*
X151333364Y-114544962D01*
X151318910Y-114700950D01*
X151317520Y-114705833D01*
X151316825Y-114712895D01*
X151295658Y-114782672D01*
X151265897Y-114887274D01*
X151260858Y-114897393D01*
X151257074Y-114909868D01*
X151221592Y-114976248D01*
X151179545Y-115060691D01*
X151168975Y-115074686D01*
X151160043Y-115091399D01*
X151113857Y-115147676D01*
X151062802Y-115215285D01*
X151045213Y-115231318D01*
X151029462Y-115250512D01*
X150976297Y-115294143D01*
X150919635Y-115345797D01*
X150894066Y-115361628D01*
X150870349Y-115381093D01*
X150813903Y-115411263D01*
X150754932Y-115447778D01*
X150720993Y-115460925D01*
X150688818Y-115478124D01*
X150632501Y-115495207D01*
X150574286Y-115517760D01*
X150532251Y-115525617D01*
X150491845Y-115537875D01*
X150438666Y-115543112D01*
X150383860Y-115553358D01*
X150334640Y-115553358D01*
X150287000Y-115558050D01*
X150239360Y-115553358D01*
X150190140Y-115553358D01*
X150135332Y-115543112D01*
X150082155Y-115537875D01*
X150041750Y-115525618D01*
X149999713Y-115517760D01*
X149941493Y-115495205D01*
X149885182Y-115478124D01*
X149853009Y-115460927D01*
X149819067Y-115447778D01*
X149760089Y-115411260D01*
X149703651Y-115381093D01*
X149679936Y-115361631D01*
X149654364Y-115345797D01*
X149597692Y-115294134D01*
X149544538Y-115250512D01*
X149528789Y-115231322D01*
X149511197Y-115215285D01*
X149460130Y-115147661D01*
X149413957Y-115091399D01*
X149405026Y-115074691D01*
X149394454Y-115060691D01*
X149352392Y-114976220D01*
X149316926Y-114909868D01*
X149313143Y-114897398D01*
X149308102Y-114887274D01*
X149278325Y-114782618D01*
X149257175Y-114712895D01*
X149256480Y-114705839D01*
X149255089Y-114700950D01*
X149240618Y-114544791D01*
X149237000Y-114508050D01*
X149240618Y-114471311D01*
X149255089Y-114315149D01*
X149256480Y-114310259D01*
X149257175Y-114303205D01*
X149278320Y-114233496D01*
X149308102Y-114128825D01*
X149313144Y-114118698D01*
X149316926Y-114106232D01*
X149352385Y-114039892D01*
X149394454Y-113955408D01*
X149405028Y-113941405D01*
X149413957Y-113924701D01*
X149460120Y-113868450D01*
X149511197Y-113800814D01*
X149528792Y-113784773D01*
X149544538Y-113765588D01*
X149597681Y-113721974D01*
X149654364Y-113670302D01*
X149679941Y-113654464D01*
X149703651Y-113635007D01*
X149760077Y-113604846D01*
X149819067Y-113568321D01*
X149853015Y-113555169D01*
X149885182Y-113537976D01*
X149941481Y-113520897D01*
X149999713Y-113498339D01*
X150041756Y-113490479D01*
X150082155Y-113478225D01*
X150135329Y-113472987D01*
X150190140Y-113462742D01*
X150239360Y-113462742D01*
X150287000Y-113458050D01*
X150334640Y-113462742D01*
G37*
G36*
X156834640Y-113462742D02*
G01*
X156883860Y-113462742D01*
X156938670Y-113472987D01*
X156991845Y-113478225D01*
X157032244Y-113490480D01*
X157074286Y-113498339D01*
X157132513Y-113520896D01*
X157188818Y-113537976D01*
X157220986Y-113555170D01*
X157254932Y-113568321D01*
X157313915Y-113604842D01*
X157370349Y-113635007D01*
X157394061Y-113654467D01*
X157419635Y-113670302D01*
X157476308Y-113721965D01*
X157529462Y-113765588D01*
X157545210Y-113784777D01*
X157562802Y-113800814D01*
X157613866Y-113868435D01*
X157660043Y-113924701D01*
X157668974Y-113941409D01*
X157679545Y-113955408D01*
X157721600Y-114039865D01*
X157757074Y-114106232D01*
X157760857Y-114118704D01*
X157765897Y-114128825D01*
X157795662Y-114233443D01*
X157816825Y-114303205D01*
X157817520Y-114310264D01*
X157818910Y-114315149D01*
X157833364Y-114471140D01*
X157837000Y-114508050D01*
X157833364Y-114544962D01*
X157818910Y-114700950D01*
X157817520Y-114705833D01*
X157816825Y-114712895D01*
X157795658Y-114782672D01*
X157765897Y-114887274D01*
X157760858Y-114897393D01*
X157757074Y-114909868D01*
X157721592Y-114976248D01*
X157679545Y-115060691D01*
X157668975Y-115074686D01*
X157660043Y-115091399D01*
X157613857Y-115147676D01*
X157562802Y-115215285D01*
X157545213Y-115231318D01*
X157529462Y-115250512D01*
X157476297Y-115294143D01*
X157419635Y-115345797D01*
X157394066Y-115361628D01*
X157370349Y-115381093D01*
X157313903Y-115411263D01*
X157254932Y-115447778D01*
X157220993Y-115460925D01*
X157188818Y-115478124D01*
X157132501Y-115495207D01*
X157074286Y-115517760D01*
X157032251Y-115525617D01*
X156991845Y-115537875D01*
X156938666Y-115543112D01*
X156883860Y-115553358D01*
X156834640Y-115553358D01*
X156787000Y-115558050D01*
X156739360Y-115553358D01*
X156690140Y-115553358D01*
X156635332Y-115543112D01*
X156582155Y-115537875D01*
X156541750Y-115525618D01*
X156499713Y-115517760D01*
X156441493Y-115495205D01*
X156385182Y-115478124D01*
X156353009Y-115460927D01*
X156319067Y-115447778D01*
X156260089Y-115411260D01*
X156203651Y-115381093D01*
X156179936Y-115361631D01*
X156154364Y-115345797D01*
X156097692Y-115294134D01*
X156044538Y-115250512D01*
X156028789Y-115231322D01*
X156011197Y-115215285D01*
X155960130Y-115147661D01*
X155913957Y-115091399D01*
X155905026Y-115074691D01*
X155894454Y-115060691D01*
X155852392Y-114976220D01*
X155816926Y-114909868D01*
X155813143Y-114897398D01*
X155808102Y-114887274D01*
X155778325Y-114782618D01*
X155757175Y-114712895D01*
X155756480Y-114705839D01*
X155755089Y-114700950D01*
X155740618Y-114544791D01*
X155737000Y-114508050D01*
X155740618Y-114471311D01*
X155755089Y-114315149D01*
X155756480Y-114310259D01*
X155757175Y-114303205D01*
X155778320Y-114233496D01*
X155808102Y-114128825D01*
X155813144Y-114118698D01*
X155816926Y-114106232D01*
X155852385Y-114039892D01*
X155894454Y-113955408D01*
X155905028Y-113941405D01*
X155913957Y-113924701D01*
X155960120Y-113868450D01*
X156011197Y-113800814D01*
X156028792Y-113784773D01*
X156044538Y-113765588D01*
X156097681Y-113721974D01*
X156154364Y-113670302D01*
X156179941Y-113654464D01*
X156203651Y-113635007D01*
X156260077Y-113604846D01*
X156319067Y-113568321D01*
X156353015Y-113555169D01*
X156385182Y-113537976D01*
X156441481Y-113520897D01*
X156499713Y-113498339D01*
X156541756Y-113490479D01*
X156582155Y-113478225D01*
X156635329Y-113472987D01*
X156690140Y-113462742D01*
X156739360Y-113462742D01*
X156787000Y-113458050D01*
X156834640Y-113462742D01*
G37*
G36*
X125972239Y-109700928D02*
G01*
X126129800Y-109771079D01*
X126269333Y-109872456D01*
X126384739Y-110000627D01*
X126470975Y-110149992D01*
X126524272Y-110314023D01*
X126542300Y-110485550D01*
X126524272Y-110657077D01*
X126470975Y-110821108D01*
X126384739Y-110970473D01*
X126269333Y-111098644D01*
X126129800Y-111200021D01*
X125972239Y-111270172D01*
X125803536Y-111306031D01*
X125631064Y-111306031D01*
X125462361Y-111270172D01*
X125304800Y-111200021D01*
X125165267Y-111098644D01*
X125049861Y-110970473D01*
X124963625Y-110821108D01*
X124910328Y-110657077D01*
X124892300Y-110485550D01*
X124910328Y-110314023D01*
X124963625Y-110149992D01*
X125049861Y-110000627D01*
X125165267Y-109872456D01*
X125304800Y-109771079D01*
X125462361Y-109700928D01*
X125631064Y-109665069D01*
X125803536Y-109665069D01*
X125972239Y-109700928D01*
G37*
G36*
X171692239Y-109700928D02*
G01*
X171849800Y-109771079D01*
X171989333Y-109872456D01*
X172104739Y-110000627D01*
X172190975Y-110149992D01*
X172244272Y-110314023D01*
X172262300Y-110485550D01*
X172244272Y-110657077D01*
X172190975Y-110821108D01*
X172104739Y-110970473D01*
X171989333Y-111098644D01*
X171849800Y-111200021D01*
X171692239Y-111270172D01*
X171523536Y-111306031D01*
X171351064Y-111306031D01*
X171182361Y-111270172D01*
X171024800Y-111200021D01*
X170885267Y-111098644D01*
X170769861Y-110970473D01*
X170683625Y-110821108D01*
X170630328Y-110657077D01*
X170612300Y-110485550D01*
X170630328Y-110314023D01*
X170683625Y-110149992D01*
X170769861Y-110000627D01*
X170885267Y-109872456D01*
X171024800Y-109771079D01*
X171182361Y-109700928D01*
X171351064Y-109665069D01*
X171523536Y-109665069D01*
X171692239Y-109700928D01*
G37*
G36*
X150334640Y-108962742D02*
G01*
X150383860Y-108962742D01*
X150438670Y-108972987D01*
X150491845Y-108978225D01*
X150532244Y-108990480D01*
X150574286Y-108998339D01*
X150632513Y-109020896D01*
X150688818Y-109037976D01*
X150720986Y-109055170D01*
X150754932Y-109068321D01*
X150813915Y-109104842D01*
X150870349Y-109135007D01*
X150894061Y-109154467D01*
X150919635Y-109170302D01*
X150976308Y-109221965D01*
X151029462Y-109265588D01*
X151045210Y-109284777D01*
X151062802Y-109300814D01*
X151113866Y-109368435D01*
X151160043Y-109424701D01*
X151168974Y-109441409D01*
X151179545Y-109455408D01*
X151221600Y-109539865D01*
X151257074Y-109606232D01*
X151260857Y-109618704D01*
X151265897Y-109628825D01*
X151295662Y-109733443D01*
X151316825Y-109803205D01*
X151317520Y-109810264D01*
X151318910Y-109815149D01*
X151333364Y-109971140D01*
X151337000Y-110008050D01*
X151333364Y-110044962D01*
X151318910Y-110200950D01*
X151317520Y-110205833D01*
X151316825Y-110212895D01*
X151295658Y-110282672D01*
X151265897Y-110387274D01*
X151260858Y-110397393D01*
X151257074Y-110409868D01*
X151221592Y-110476248D01*
X151179545Y-110560691D01*
X151168975Y-110574686D01*
X151160043Y-110591399D01*
X151113857Y-110647676D01*
X151062802Y-110715285D01*
X151045213Y-110731318D01*
X151029462Y-110750512D01*
X150976297Y-110794143D01*
X150919635Y-110845797D01*
X150894066Y-110861628D01*
X150870349Y-110881093D01*
X150813903Y-110911263D01*
X150754932Y-110947778D01*
X150720993Y-110960925D01*
X150688818Y-110978124D01*
X150632501Y-110995207D01*
X150574286Y-111017760D01*
X150532251Y-111025617D01*
X150491845Y-111037875D01*
X150438666Y-111043112D01*
X150383860Y-111053358D01*
X150334640Y-111053358D01*
X150287000Y-111058050D01*
X150239360Y-111053358D01*
X150190140Y-111053358D01*
X150135332Y-111043112D01*
X150082155Y-111037875D01*
X150041750Y-111025618D01*
X149999713Y-111017760D01*
X149941493Y-110995205D01*
X149885182Y-110978124D01*
X149853009Y-110960927D01*
X149819067Y-110947778D01*
X149760089Y-110911260D01*
X149703651Y-110881093D01*
X149679936Y-110861631D01*
X149654364Y-110845797D01*
X149597692Y-110794134D01*
X149544538Y-110750512D01*
X149528789Y-110731322D01*
X149511197Y-110715285D01*
X149460130Y-110647661D01*
X149413957Y-110591399D01*
X149405026Y-110574691D01*
X149394454Y-110560691D01*
X149352392Y-110476220D01*
X149316926Y-110409868D01*
X149313143Y-110397398D01*
X149308102Y-110387274D01*
X149278325Y-110282618D01*
X149257175Y-110212895D01*
X149256480Y-110205839D01*
X149255089Y-110200950D01*
X149240618Y-110044791D01*
X149237000Y-110008050D01*
X149240618Y-109971311D01*
X149255089Y-109815149D01*
X149256480Y-109810259D01*
X149257175Y-109803205D01*
X149278320Y-109733496D01*
X149308102Y-109628825D01*
X149313144Y-109618698D01*
X149316926Y-109606232D01*
X149352385Y-109539892D01*
X149394454Y-109455408D01*
X149405028Y-109441405D01*
X149413957Y-109424701D01*
X149460120Y-109368450D01*
X149511197Y-109300814D01*
X149528792Y-109284773D01*
X149544538Y-109265588D01*
X149597681Y-109221974D01*
X149654364Y-109170302D01*
X149679941Y-109154464D01*
X149703651Y-109135007D01*
X149760077Y-109104846D01*
X149819067Y-109068321D01*
X149853015Y-109055169D01*
X149885182Y-109037976D01*
X149941481Y-109020897D01*
X149999713Y-108998339D01*
X150041756Y-108990479D01*
X150082155Y-108978225D01*
X150135329Y-108972987D01*
X150190140Y-108962742D01*
X150239360Y-108962742D01*
X150287000Y-108958050D01*
X150334640Y-108962742D01*
G37*
G36*
X156834640Y-108962742D02*
G01*
X156883860Y-108962742D01*
X156938670Y-108972987D01*
X156991845Y-108978225D01*
X157032244Y-108990480D01*
X157074286Y-108998339D01*
X157132513Y-109020896D01*
X157188818Y-109037976D01*
X157220986Y-109055170D01*
X157254932Y-109068321D01*
X157313915Y-109104842D01*
X157370349Y-109135007D01*
X157394061Y-109154467D01*
X157419635Y-109170302D01*
X157476308Y-109221965D01*
X157529462Y-109265588D01*
X157545210Y-109284777D01*
X157562802Y-109300814D01*
X157613866Y-109368435D01*
X157660043Y-109424701D01*
X157668974Y-109441409D01*
X157679545Y-109455408D01*
X157721600Y-109539865D01*
X157757074Y-109606232D01*
X157760857Y-109618704D01*
X157765897Y-109628825D01*
X157795662Y-109733443D01*
X157816825Y-109803205D01*
X157817520Y-109810264D01*
X157818910Y-109815149D01*
X157833364Y-109971140D01*
X157837000Y-110008050D01*
X157833364Y-110044962D01*
X157818910Y-110200950D01*
X157817520Y-110205833D01*
X157816825Y-110212895D01*
X157795658Y-110282672D01*
X157765897Y-110387274D01*
X157760858Y-110397393D01*
X157757074Y-110409868D01*
X157721592Y-110476248D01*
X157679545Y-110560691D01*
X157668975Y-110574686D01*
X157660043Y-110591399D01*
X157613857Y-110647676D01*
X157562802Y-110715285D01*
X157545213Y-110731318D01*
X157529462Y-110750512D01*
X157476297Y-110794143D01*
X157419635Y-110845797D01*
X157394066Y-110861628D01*
X157370349Y-110881093D01*
X157313903Y-110911263D01*
X157254932Y-110947778D01*
X157220993Y-110960925D01*
X157188818Y-110978124D01*
X157132501Y-110995207D01*
X157074286Y-111017760D01*
X157032251Y-111025617D01*
X156991845Y-111037875D01*
X156938666Y-111043112D01*
X156883860Y-111053358D01*
X156834640Y-111053358D01*
X156787000Y-111058050D01*
X156739360Y-111053358D01*
X156690140Y-111053358D01*
X156635332Y-111043112D01*
X156582155Y-111037875D01*
X156541750Y-111025618D01*
X156499713Y-111017760D01*
X156441493Y-110995205D01*
X156385182Y-110978124D01*
X156353009Y-110960927D01*
X156319067Y-110947778D01*
X156260089Y-110911260D01*
X156203651Y-110881093D01*
X156179936Y-110861631D01*
X156154364Y-110845797D01*
X156097692Y-110794134D01*
X156044538Y-110750512D01*
X156028789Y-110731322D01*
X156011197Y-110715285D01*
X155960130Y-110647661D01*
X155913957Y-110591399D01*
X155905026Y-110574691D01*
X155894454Y-110560691D01*
X155852392Y-110476220D01*
X155816926Y-110409868D01*
X155813143Y-110397398D01*
X155808102Y-110387274D01*
X155778325Y-110282618D01*
X155757175Y-110212895D01*
X155756480Y-110205839D01*
X155755089Y-110200950D01*
X155740618Y-110044791D01*
X155737000Y-110008050D01*
X155740618Y-109971311D01*
X155755089Y-109815149D01*
X155756480Y-109810259D01*
X155757175Y-109803205D01*
X155778320Y-109733496D01*
X155808102Y-109628825D01*
X155813144Y-109618698D01*
X155816926Y-109606232D01*
X155852385Y-109539892D01*
X155894454Y-109455408D01*
X155905028Y-109441405D01*
X155913957Y-109424701D01*
X155960120Y-109368450D01*
X156011197Y-109300814D01*
X156028792Y-109284773D01*
X156044538Y-109265588D01*
X156097681Y-109221974D01*
X156154364Y-109170302D01*
X156179941Y-109154464D01*
X156203651Y-109135007D01*
X156260077Y-109104846D01*
X156319067Y-109068321D01*
X156353015Y-109055169D01*
X156385182Y-109037976D01*
X156441481Y-109020897D01*
X156499713Y-108998339D01*
X156541756Y-108990479D01*
X156582155Y-108978225D01*
X156635329Y-108972987D01*
X156690140Y-108962742D01*
X156739360Y-108962742D01*
X156787000Y-108958050D01*
X156834640Y-108962742D01*
G37*
G36*
X125972239Y-107160928D02*
G01*
X126129800Y-107231079D01*
X126269333Y-107332456D01*
X126384739Y-107460627D01*
X126470975Y-107609992D01*
X126524272Y-107774023D01*
X126542300Y-107945550D01*
X126524272Y-108117077D01*
X126470975Y-108281108D01*
X126384739Y-108430473D01*
X126269333Y-108558644D01*
X126129800Y-108660021D01*
X125972239Y-108730172D01*
X125803536Y-108766031D01*
X125631064Y-108766031D01*
X125462361Y-108730172D01*
X125304800Y-108660021D01*
X125165267Y-108558644D01*
X125049861Y-108430473D01*
X124963625Y-108281108D01*
X124910328Y-108117077D01*
X124892300Y-107945550D01*
X124910328Y-107774023D01*
X124963625Y-107609992D01*
X125049861Y-107460627D01*
X125165267Y-107332456D01*
X125304800Y-107231079D01*
X125462361Y-107160928D01*
X125631064Y-107125069D01*
X125803536Y-107125069D01*
X125972239Y-107160928D01*
G37*
G36*
X171692239Y-107160928D02*
G01*
X171849800Y-107231079D01*
X171989333Y-107332456D01*
X172104739Y-107460627D01*
X172190975Y-107609992D01*
X172244272Y-107774023D01*
X172262300Y-107945550D01*
X172244272Y-108117077D01*
X172190975Y-108281108D01*
X172104739Y-108430473D01*
X171989333Y-108558644D01*
X171849800Y-108660021D01*
X171692239Y-108730172D01*
X171523536Y-108766031D01*
X171351064Y-108766031D01*
X171182361Y-108730172D01*
X171024800Y-108660021D01*
X170885267Y-108558644D01*
X170769861Y-108430473D01*
X170683625Y-108281108D01*
X170630328Y-108117077D01*
X170612300Y-107945550D01*
X170630328Y-107774023D01*
X170683625Y-107609992D01*
X170769861Y-107460627D01*
X170885267Y-107332456D01*
X171024800Y-107231079D01*
X171182361Y-107160928D01*
X171351064Y-107125069D01*
X171523536Y-107125069D01*
X171692239Y-107160928D01*
G37*
G36*
X150334640Y-105062742D02*
G01*
X150383860Y-105062742D01*
X150438670Y-105072987D01*
X150491845Y-105078225D01*
X150532244Y-105090480D01*
X150574286Y-105098339D01*
X150632513Y-105120896D01*
X150688818Y-105137976D01*
X150720986Y-105155170D01*
X150754932Y-105168321D01*
X150813915Y-105204842D01*
X150870349Y-105235007D01*
X150894061Y-105254467D01*
X150919635Y-105270302D01*
X150976308Y-105321965D01*
X151029462Y-105365588D01*
X151045210Y-105384777D01*
X151062802Y-105400814D01*
X151113866Y-105468435D01*
X151160043Y-105524701D01*
X151168974Y-105541409D01*
X151179545Y-105555408D01*
X151221600Y-105639865D01*
X151257074Y-105706232D01*
X151260857Y-105718704D01*
X151265897Y-105728825D01*
X151295662Y-105833443D01*
X151316825Y-105903205D01*
X151317520Y-105910264D01*
X151318910Y-105915149D01*
X151333364Y-106071140D01*
X151337000Y-106108050D01*
X151333364Y-106144962D01*
X151318910Y-106300950D01*
X151317520Y-106305833D01*
X151316825Y-106312895D01*
X151295658Y-106382672D01*
X151265897Y-106487274D01*
X151260858Y-106497393D01*
X151257074Y-106509868D01*
X151221592Y-106576248D01*
X151179545Y-106660691D01*
X151168975Y-106674686D01*
X151160043Y-106691399D01*
X151113857Y-106747676D01*
X151062802Y-106815285D01*
X151045213Y-106831318D01*
X151029462Y-106850512D01*
X150976297Y-106894143D01*
X150919635Y-106945797D01*
X150894066Y-106961628D01*
X150870349Y-106981093D01*
X150813903Y-107011263D01*
X150754932Y-107047778D01*
X150720993Y-107060925D01*
X150688818Y-107078124D01*
X150632501Y-107095207D01*
X150574286Y-107117760D01*
X150532251Y-107125617D01*
X150491845Y-107137875D01*
X150438666Y-107143112D01*
X150383860Y-107153358D01*
X150334640Y-107153358D01*
X150287000Y-107158050D01*
X150239360Y-107153358D01*
X150190140Y-107153358D01*
X150135332Y-107143112D01*
X150082155Y-107137875D01*
X150041750Y-107125618D01*
X149999713Y-107117760D01*
X149941493Y-107095205D01*
X149885182Y-107078124D01*
X149853009Y-107060927D01*
X149819067Y-107047778D01*
X149760089Y-107011260D01*
X149703651Y-106981093D01*
X149679936Y-106961631D01*
X149654364Y-106945797D01*
X149597692Y-106894134D01*
X149544538Y-106850512D01*
X149528789Y-106831322D01*
X149511197Y-106815285D01*
X149460130Y-106747661D01*
X149413957Y-106691399D01*
X149405026Y-106674691D01*
X149394454Y-106660691D01*
X149352392Y-106576220D01*
X149316926Y-106509868D01*
X149313143Y-106497398D01*
X149308102Y-106487274D01*
X149278325Y-106382618D01*
X149257175Y-106312895D01*
X149256480Y-106305839D01*
X149255089Y-106300950D01*
X149240618Y-106144791D01*
X149237000Y-106108050D01*
X149240618Y-106071311D01*
X149255089Y-105915149D01*
X149256480Y-105910259D01*
X149257175Y-105903205D01*
X149278320Y-105833496D01*
X149308102Y-105728825D01*
X149313144Y-105718698D01*
X149316926Y-105706232D01*
X149352385Y-105639892D01*
X149394454Y-105555408D01*
X149405028Y-105541405D01*
X149413957Y-105524701D01*
X149460120Y-105468450D01*
X149511197Y-105400814D01*
X149528792Y-105384773D01*
X149544538Y-105365588D01*
X149597681Y-105321974D01*
X149654364Y-105270302D01*
X149679941Y-105254464D01*
X149703651Y-105235007D01*
X149760077Y-105204846D01*
X149819067Y-105168321D01*
X149853015Y-105155169D01*
X149885182Y-105137976D01*
X149941481Y-105120897D01*
X149999713Y-105098339D01*
X150041756Y-105090479D01*
X150082155Y-105078225D01*
X150135329Y-105072987D01*
X150190140Y-105062742D01*
X150239360Y-105062742D01*
X150287000Y-105058050D01*
X150334640Y-105062742D01*
G37*
G36*
X156834640Y-105062742D02*
G01*
X156883860Y-105062742D01*
X156938670Y-105072987D01*
X156991845Y-105078225D01*
X157032244Y-105090480D01*
X157074286Y-105098339D01*
X157132513Y-105120896D01*
X157188818Y-105137976D01*
X157220986Y-105155170D01*
X157254932Y-105168321D01*
X157313915Y-105204842D01*
X157370349Y-105235007D01*
X157394061Y-105254467D01*
X157419635Y-105270302D01*
X157476308Y-105321965D01*
X157529462Y-105365588D01*
X157545210Y-105384777D01*
X157562802Y-105400814D01*
X157613866Y-105468435D01*
X157660043Y-105524701D01*
X157668974Y-105541409D01*
X157679545Y-105555408D01*
X157721600Y-105639865D01*
X157757074Y-105706232D01*
X157760857Y-105718704D01*
X157765897Y-105728825D01*
X157795662Y-105833443D01*
X157816825Y-105903205D01*
X157817520Y-105910264D01*
X157818910Y-105915149D01*
X157833364Y-106071140D01*
X157837000Y-106108050D01*
X157833364Y-106144962D01*
X157818910Y-106300950D01*
X157817520Y-106305833D01*
X157816825Y-106312895D01*
X157795658Y-106382672D01*
X157765897Y-106487274D01*
X157760858Y-106497393D01*
X157757074Y-106509868D01*
X157721592Y-106576248D01*
X157679545Y-106660691D01*
X157668975Y-106674686D01*
X157660043Y-106691399D01*
X157613857Y-106747676D01*
X157562802Y-106815285D01*
X157545213Y-106831318D01*
X157529462Y-106850512D01*
X157476297Y-106894143D01*
X157419635Y-106945797D01*
X157394066Y-106961628D01*
X157370349Y-106981093D01*
X157313903Y-107011263D01*
X157254932Y-107047778D01*
X157220993Y-107060925D01*
X157188818Y-107078124D01*
X157132501Y-107095207D01*
X157074286Y-107117760D01*
X157032251Y-107125617D01*
X156991845Y-107137875D01*
X156938666Y-107143112D01*
X156883860Y-107153358D01*
X156834640Y-107153358D01*
X156787000Y-107158050D01*
X156739360Y-107153358D01*
X156690140Y-107153358D01*
X156635332Y-107143112D01*
X156582155Y-107137875D01*
X156541750Y-107125618D01*
X156499713Y-107117760D01*
X156441493Y-107095205D01*
X156385182Y-107078124D01*
X156353009Y-107060927D01*
X156319067Y-107047778D01*
X156260089Y-107011260D01*
X156203651Y-106981093D01*
X156179936Y-106961631D01*
X156154364Y-106945797D01*
X156097692Y-106894134D01*
X156044538Y-106850512D01*
X156028789Y-106831322D01*
X156011197Y-106815285D01*
X155960130Y-106747661D01*
X155913957Y-106691399D01*
X155905026Y-106674691D01*
X155894454Y-106660691D01*
X155852392Y-106576220D01*
X155816926Y-106509868D01*
X155813143Y-106497398D01*
X155808102Y-106487274D01*
X155778325Y-106382618D01*
X155757175Y-106312895D01*
X155756480Y-106305839D01*
X155755089Y-106300950D01*
X155740618Y-106144791D01*
X155737000Y-106108050D01*
X155740618Y-106071311D01*
X155755089Y-105915149D01*
X155756480Y-105910259D01*
X155757175Y-105903205D01*
X155778320Y-105833496D01*
X155808102Y-105728825D01*
X155813144Y-105718698D01*
X155816926Y-105706232D01*
X155852385Y-105639892D01*
X155894454Y-105555408D01*
X155905028Y-105541405D01*
X155913957Y-105524701D01*
X155960120Y-105468450D01*
X156011197Y-105400814D01*
X156028792Y-105384773D01*
X156044538Y-105365588D01*
X156097681Y-105321974D01*
X156154364Y-105270302D01*
X156179941Y-105254464D01*
X156203651Y-105235007D01*
X156260077Y-105204846D01*
X156319067Y-105168321D01*
X156353015Y-105155169D01*
X156385182Y-105137976D01*
X156441481Y-105120897D01*
X156499713Y-105098339D01*
X156541756Y-105090479D01*
X156582155Y-105078225D01*
X156635329Y-105072987D01*
X156690140Y-105062742D01*
X156739360Y-105062742D01*
X156787000Y-105058050D01*
X156834640Y-105062742D01*
G37*
G36*
X132806134Y-104361856D02*
G01*
X132822355Y-104372695D01*
X132833194Y-104388916D01*
X132837000Y-104408050D01*
X132837000Y-106408050D01*
X132833194Y-106427184D01*
X132822355Y-106443405D01*
X132806134Y-106454244D01*
X132787000Y-106458050D01*
X130787000Y-106458050D01*
X130767866Y-106454244D01*
X130751645Y-106443405D01*
X130740806Y-106427184D01*
X130737000Y-106408050D01*
X130737000Y-104408050D01*
X130740806Y-104388916D01*
X130751645Y-104372695D01*
X130767866Y-104361856D01*
X130787000Y-104358050D01*
X132787000Y-104358050D01*
X132806134Y-104361856D01*
G37*
G36*
X138334640Y-104362742D02*
G01*
X138383860Y-104362742D01*
X138438670Y-104372987D01*
X138491845Y-104378225D01*
X138532244Y-104390480D01*
X138574286Y-104398339D01*
X138632513Y-104420896D01*
X138688818Y-104437976D01*
X138720986Y-104455170D01*
X138754932Y-104468321D01*
X138813915Y-104504842D01*
X138870349Y-104535007D01*
X138894061Y-104554467D01*
X138919635Y-104570302D01*
X138976308Y-104621965D01*
X139029462Y-104665588D01*
X139045210Y-104684777D01*
X139062802Y-104700814D01*
X139113866Y-104768435D01*
X139160043Y-104824701D01*
X139168974Y-104841409D01*
X139179545Y-104855408D01*
X139221600Y-104939865D01*
X139257074Y-105006232D01*
X139260857Y-105018704D01*
X139265897Y-105028825D01*
X139295662Y-105133443D01*
X139316825Y-105203205D01*
X139317520Y-105210264D01*
X139318910Y-105215149D01*
X139333364Y-105371140D01*
X139337000Y-105408050D01*
X139333364Y-105444962D01*
X139318910Y-105600950D01*
X139317520Y-105605833D01*
X139316825Y-105612895D01*
X139295658Y-105682672D01*
X139265897Y-105787274D01*
X139260858Y-105797393D01*
X139257074Y-105809868D01*
X139221592Y-105876248D01*
X139179545Y-105960691D01*
X139168975Y-105974686D01*
X139160043Y-105991399D01*
X139113857Y-106047676D01*
X139062802Y-106115285D01*
X139045213Y-106131318D01*
X139029462Y-106150512D01*
X138976297Y-106194143D01*
X138919635Y-106245797D01*
X138894066Y-106261628D01*
X138870349Y-106281093D01*
X138813903Y-106311263D01*
X138754932Y-106347778D01*
X138720993Y-106360925D01*
X138688818Y-106378124D01*
X138632501Y-106395207D01*
X138574286Y-106417760D01*
X138532251Y-106425617D01*
X138491845Y-106437875D01*
X138438666Y-106443112D01*
X138383860Y-106453358D01*
X138334640Y-106453358D01*
X138287000Y-106458050D01*
X138239360Y-106453358D01*
X138190140Y-106453358D01*
X138135332Y-106443112D01*
X138082155Y-106437875D01*
X138041750Y-106425618D01*
X137999713Y-106417760D01*
X137941493Y-106395205D01*
X137885182Y-106378124D01*
X137853009Y-106360927D01*
X137819067Y-106347778D01*
X137760089Y-106311260D01*
X137703651Y-106281093D01*
X137679936Y-106261631D01*
X137654364Y-106245797D01*
X137597692Y-106194134D01*
X137544538Y-106150512D01*
X137528789Y-106131322D01*
X137511197Y-106115285D01*
X137460130Y-106047661D01*
X137413957Y-105991399D01*
X137405026Y-105974691D01*
X137394454Y-105960691D01*
X137352392Y-105876220D01*
X137316926Y-105809868D01*
X137313143Y-105797398D01*
X137308102Y-105787274D01*
X137278325Y-105682618D01*
X137257175Y-105612895D01*
X137256480Y-105605839D01*
X137255089Y-105600950D01*
X137240618Y-105444791D01*
X137237000Y-105408050D01*
X137240618Y-105371311D01*
X137255089Y-105215149D01*
X137256480Y-105210259D01*
X137257175Y-105203205D01*
X137278320Y-105133496D01*
X137308102Y-105028825D01*
X137313144Y-105018698D01*
X137316926Y-105006232D01*
X137352385Y-104939892D01*
X137394454Y-104855408D01*
X137405028Y-104841405D01*
X137413957Y-104824701D01*
X137460120Y-104768450D01*
X137511197Y-104700814D01*
X137528792Y-104684773D01*
X137544538Y-104665588D01*
X137597681Y-104621974D01*
X137654364Y-104570302D01*
X137679941Y-104554464D01*
X137703651Y-104535007D01*
X137760077Y-104504846D01*
X137819067Y-104468321D01*
X137853015Y-104455169D01*
X137885182Y-104437976D01*
X137941481Y-104420897D01*
X137999713Y-104398339D01*
X138041756Y-104390479D01*
X138082155Y-104378225D01*
X138135329Y-104372987D01*
X138190140Y-104362742D01*
X138239360Y-104362742D01*
X138287000Y-104358050D01*
X138334640Y-104362742D01*
G37*
G36*
X125972239Y-104620928D02*
G01*
X126129800Y-104691079D01*
X126269333Y-104792456D01*
X126384739Y-104920627D01*
X126470975Y-105069992D01*
X126524272Y-105234023D01*
X126542300Y-105405550D01*
X126524272Y-105577077D01*
X126470975Y-105741108D01*
X126384739Y-105890473D01*
X126269333Y-106018644D01*
X126129800Y-106120021D01*
X125972239Y-106190172D01*
X125803536Y-106226031D01*
X125631064Y-106226031D01*
X125462361Y-106190172D01*
X125304800Y-106120021D01*
X125165267Y-106018644D01*
X125049861Y-105890473D01*
X124963625Y-105741108D01*
X124910328Y-105577077D01*
X124892300Y-105405550D01*
X124910328Y-105234023D01*
X124963625Y-105069992D01*
X125049861Y-104920627D01*
X125165267Y-104792456D01*
X125304800Y-104691079D01*
X125462361Y-104620928D01*
X125631064Y-104585069D01*
X125803536Y-104585069D01*
X125972239Y-104620928D01*
G37*
G36*
X171692239Y-104620928D02*
G01*
X171849800Y-104691079D01*
X171989333Y-104792456D01*
X172104739Y-104920627D01*
X172190975Y-105069992D01*
X172244272Y-105234023D01*
X172262300Y-105405550D01*
X172244272Y-105577077D01*
X172190975Y-105741108D01*
X172104739Y-105890473D01*
X171989333Y-106018644D01*
X171849800Y-106120021D01*
X171692239Y-106190172D01*
X171523536Y-106226031D01*
X171351064Y-106226031D01*
X171182361Y-106190172D01*
X171024800Y-106120021D01*
X170885267Y-106018644D01*
X170769861Y-105890473D01*
X170683625Y-105741108D01*
X170630328Y-105577077D01*
X170612300Y-105405550D01*
X170630328Y-105234023D01*
X170683625Y-105069992D01*
X170769861Y-104920627D01*
X170885267Y-104792456D01*
X171024800Y-104691079D01*
X171182361Y-104620928D01*
X171351064Y-104585069D01*
X171523536Y-104585069D01*
X171692239Y-104620928D01*
G37*
G36*
X125972239Y-102080928D02*
G01*
X126129800Y-102151079D01*
X126269333Y-102252456D01*
X126384739Y-102380627D01*
X126470975Y-102529992D01*
X126524272Y-102694023D01*
X126542300Y-102865550D01*
X126524272Y-103037077D01*
X126470975Y-103201108D01*
X126384739Y-103350473D01*
X126269333Y-103478644D01*
X126129800Y-103580021D01*
X125972239Y-103650172D01*
X125803536Y-103686031D01*
X125631064Y-103686031D01*
X125462361Y-103650172D01*
X125304800Y-103580021D01*
X125165267Y-103478644D01*
X125049861Y-103350473D01*
X124963625Y-103201108D01*
X124910328Y-103037077D01*
X124892300Y-102865550D01*
X124910328Y-102694023D01*
X124963625Y-102529992D01*
X125049861Y-102380627D01*
X125165267Y-102252456D01*
X125304800Y-102151079D01*
X125462361Y-102080928D01*
X125631064Y-102045069D01*
X125803536Y-102045069D01*
X125972239Y-102080928D01*
G37*
G36*
X171692239Y-102080928D02*
G01*
X171849800Y-102151079D01*
X171989333Y-102252456D01*
X172104739Y-102380627D01*
X172190975Y-102529992D01*
X172244272Y-102694023D01*
X172262300Y-102865550D01*
X172244272Y-103037077D01*
X172190975Y-103201108D01*
X172104739Y-103350473D01*
X171989333Y-103478644D01*
X171849800Y-103580021D01*
X171692239Y-103650172D01*
X171523536Y-103686031D01*
X171351064Y-103686031D01*
X171182361Y-103650172D01*
X171024800Y-103580021D01*
X170885267Y-103478644D01*
X170769861Y-103350473D01*
X170683625Y-103201108D01*
X170630328Y-103037077D01*
X170612300Y-102865550D01*
X170630328Y-102694023D01*
X170683625Y-102529992D01*
X170769861Y-102380627D01*
X170885267Y-102252456D01*
X171024800Y-102151079D01*
X171182361Y-102080928D01*
X171351064Y-102045069D01*
X171523536Y-102045069D01*
X171692239Y-102080928D01*
G37*
G36*
X150334640Y-100562742D02*
G01*
X150383860Y-100562742D01*
X150438670Y-100572987D01*
X150491845Y-100578225D01*
X150532244Y-100590480D01*
X150574286Y-100598339D01*
X150632513Y-100620896D01*
X150688818Y-100637976D01*
X150720986Y-100655170D01*
X150754932Y-100668321D01*
X150813915Y-100704842D01*
X150870349Y-100735007D01*
X150894061Y-100754467D01*
X150919635Y-100770302D01*
X150976308Y-100821965D01*
X151029462Y-100865588D01*
X151045210Y-100884777D01*
X151062802Y-100900814D01*
X151113866Y-100968435D01*
X151160043Y-101024701D01*
X151168974Y-101041409D01*
X151179545Y-101055408D01*
X151221600Y-101139865D01*
X151257074Y-101206232D01*
X151260857Y-101218704D01*
X151265897Y-101228825D01*
X151295662Y-101333443D01*
X151316825Y-101403205D01*
X151317520Y-101410264D01*
X151318910Y-101415149D01*
X151333364Y-101571140D01*
X151337000Y-101608050D01*
X151333364Y-101644962D01*
X151318910Y-101800950D01*
X151317520Y-101805833D01*
X151316825Y-101812895D01*
X151295658Y-101882672D01*
X151265897Y-101987274D01*
X151260858Y-101997393D01*
X151257074Y-102009868D01*
X151221592Y-102076248D01*
X151179545Y-102160691D01*
X151168975Y-102174686D01*
X151160043Y-102191399D01*
X151113857Y-102247676D01*
X151062802Y-102315285D01*
X151045213Y-102331318D01*
X151029462Y-102350512D01*
X150976297Y-102394143D01*
X150919635Y-102445797D01*
X150894066Y-102461628D01*
X150870349Y-102481093D01*
X150813903Y-102511263D01*
X150754932Y-102547778D01*
X150720993Y-102560925D01*
X150688818Y-102578124D01*
X150632501Y-102595207D01*
X150574286Y-102617760D01*
X150532251Y-102625617D01*
X150491845Y-102637875D01*
X150438666Y-102643112D01*
X150383860Y-102653358D01*
X150334640Y-102653358D01*
X150287000Y-102658050D01*
X150239360Y-102653358D01*
X150190140Y-102653358D01*
X150135332Y-102643112D01*
X150082155Y-102637875D01*
X150041750Y-102625618D01*
X149999713Y-102617760D01*
X149941493Y-102595205D01*
X149885182Y-102578124D01*
X149853009Y-102560927D01*
X149819067Y-102547778D01*
X149760089Y-102511260D01*
X149703651Y-102481093D01*
X149679936Y-102461631D01*
X149654364Y-102445797D01*
X149597692Y-102394134D01*
X149544538Y-102350512D01*
X149528789Y-102331322D01*
X149511197Y-102315285D01*
X149460130Y-102247661D01*
X149413957Y-102191399D01*
X149405026Y-102174691D01*
X149394454Y-102160691D01*
X149352392Y-102076220D01*
X149316926Y-102009868D01*
X149313143Y-101997398D01*
X149308102Y-101987274D01*
X149278325Y-101882618D01*
X149257175Y-101812895D01*
X149256480Y-101805839D01*
X149255089Y-101800950D01*
X149240618Y-101644791D01*
X149237000Y-101608050D01*
X149240618Y-101571311D01*
X149255089Y-101415149D01*
X149256480Y-101410259D01*
X149257175Y-101403205D01*
X149278320Y-101333496D01*
X149308102Y-101228825D01*
X149313144Y-101218698D01*
X149316926Y-101206232D01*
X149352385Y-101139892D01*
X149394454Y-101055408D01*
X149405028Y-101041405D01*
X149413957Y-101024701D01*
X149460120Y-100968450D01*
X149511197Y-100900814D01*
X149528792Y-100884773D01*
X149544538Y-100865588D01*
X149597681Y-100821974D01*
X149654364Y-100770302D01*
X149679941Y-100754464D01*
X149703651Y-100735007D01*
X149760077Y-100704846D01*
X149819067Y-100668321D01*
X149853015Y-100655169D01*
X149885182Y-100637976D01*
X149941481Y-100620897D01*
X149999713Y-100598339D01*
X150041756Y-100590479D01*
X150082155Y-100578225D01*
X150135329Y-100572987D01*
X150190140Y-100562742D01*
X150239360Y-100562742D01*
X150287000Y-100558050D01*
X150334640Y-100562742D01*
G37*
G36*
X156834640Y-100562742D02*
G01*
X156883860Y-100562742D01*
X156938670Y-100572987D01*
X156991845Y-100578225D01*
X157032244Y-100590480D01*
X157074286Y-100598339D01*
X157132513Y-100620896D01*
X157188818Y-100637976D01*
X157220986Y-100655170D01*
X157254932Y-100668321D01*
X157313915Y-100704842D01*
X157370349Y-100735007D01*
X157394061Y-100754467D01*
X157419635Y-100770302D01*
X157476308Y-100821965D01*
X157529462Y-100865588D01*
X157545210Y-100884777D01*
X157562802Y-100900814D01*
X157613866Y-100968435D01*
X157660043Y-101024701D01*
X157668974Y-101041409D01*
X157679545Y-101055408D01*
X157721600Y-101139865D01*
X157757074Y-101206232D01*
X157760857Y-101218704D01*
X157765897Y-101228825D01*
X157795662Y-101333443D01*
X157816825Y-101403205D01*
X157817520Y-101410264D01*
X157818910Y-101415149D01*
X157833364Y-101571140D01*
X157837000Y-101608050D01*
X157833364Y-101644962D01*
X157818910Y-101800950D01*
X157817520Y-101805833D01*
X157816825Y-101812895D01*
X157795658Y-101882672D01*
X157765897Y-101987274D01*
X157760858Y-101997393D01*
X157757074Y-102009868D01*
X157721592Y-102076248D01*
X157679545Y-102160691D01*
X157668975Y-102174686D01*
X157660043Y-102191399D01*
X157613857Y-102247676D01*
X157562802Y-102315285D01*
X157545213Y-102331318D01*
X157529462Y-102350512D01*
X157476297Y-102394143D01*
X157419635Y-102445797D01*
X157394066Y-102461628D01*
X157370349Y-102481093D01*
X157313903Y-102511263D01*
X157254932Y-102547778D01*
X157220993Y-102560925D01*
X157188818Y-102578124D01*
X157132501Y-102595207D01*
X157074286Y-102617760D01*
X157032251Y-102625617D01*
X156991845Y-102637875D01*
X156938666Y-102643112D01*
X156883860Y-102653358D01*
X156834640Y-102653358D01*
X156787000Y-102658050D01*
X156739360Y-102653358D01*
X156690140Y-102653358D01*
X156635332Y-102643112D01*
X156582155Y-102637875D01*
X156541750Y-102625618D01*
X156499713Y-102617760D01*
X156441493Y-102595205D01*
X156385182Y-102578124D01*
X156353009Y-102560927D01*
X156319067Y-102547778D01*
X156260089Y-102511260D01*
X156203651Y-102481093D01*
X156179936Y-102461631D01*
X156154364Y-102445797D01*
X156097692Y-102394134D01*
X156044538Y-102350512D01*
X156028789Y-102331322D01*
X156011197Y-102315285D01*
X155960130Y-102247661D01*
X155913957Y-102191399D01*
X155905026Y-102174691D01*
X155894454Y-102160691D01*
X155852392Y-102076220D01*
X155816926Y-102009868D01*
X155813143Y-101997398D01*
X155808102Y-101987274D01*
X155778325Y-101882618D01*
X155757175Y-101812895D01*
X155756480Y-101805839D01*
X155755089Y-101800950D01*
X155740618Y-101644791D01*
X155737000Y-101608050D01*
X155740618Y-101571311D01*
X155755089Y-101415149D01*
X155756480Y-101410259D01*
X155757175Y-101403205D01*
X155778320Y-101333496D01*
X155808102Y-101228825D01*
X155813144Y-101218698D01*
X155816926Y-101206232D01*
X155852385Y-101139892D01*
X155894454Y-101055408D01*
X155905028Y-101041405D01*
X155913957Y-101024701D01*
X155960120Y-100968450D01*
X156011197Y-100900814D01*
X156028792Y-100884773D01*
X156044538Y-100865588D01*
X156097681Y-100821974D01*
X156154364Y-100770302D01*
X156179941Y-100754464D01*
X156203651Y-100735007D01*
X156260077Y-100704846D01*
X156319067Y-100668321D01*
X156353015Y-100655169D01*
X156385182Y-100637976D01*
X156441481Y-100620897D01*
X156499713Y-100598339D01*
X156541756Y-100590479D01*
X156582155Y-100578225D01*
X156635329Y-100572987D01*
X156690140Y-100562742D01*
X156739360Y-100562742D01*
X156787000Y-100558050D01*
X156834640Y-100562742D01*
G37*
G36*
X125972239Y-99540928D02*
G01*
X126129800Y-99611079D01*
X126269333Y-99712456D01*
X126384739Y-99840627D01*
X126470975Y-99989992D01*
X126524272Y-100154023D01*
X126542300Y-100325550D01*
X126524272Y-100497077D01*
X126470975Y-100661108D01*
X126384739Y-100810473D01*
X126269333Y-100938644D01*
X126129800Y-101040021D01*
X125972239Y-101110172D01*
X125803536Y-101146031D01*
X125631064Y-101146031D01*
X125462361Y-101110172D01*
X125304800Y-101040021D01*
X125165267Y-100938644D01*
X125049861Y-100810473D01*
X124963625Y-100661108D01*
X124910328Y-100497077D01*
X124892300Y-100325550D01*
X124910328Y-100154023D01*
X124963625Y-99989992D01*
X125049861Y-99840627D01*
X125165267Y-99712456D01*
X125304800Y-99611079D01*
X125462361Y-99540928D01*
X125631064Y-99505069D01*
X125803536Y-99505069D01*
X125972239Y-99540928D01*
G37*
G36*
X171692239Y-99540928D02*
G01*
X171849800Y-99611079D01*
X171989333Y-99712456D01*
X172104739Y-99840627D01*
X172190975Y-99989992D01*
X172244272Y-100154023D01*
X172262300Y-100325550D01*
X172244272Y-100497077D01*
X172190975Y-100661108D01*
X172104739Y-100810473D01*
X171989333Y-100938644D01*
X171849800Y-101040021D01*
X171692239Y-101110172D01*
X171523536Y-101146031D01*
X171351064Y-101146031D01*
X171182361Y-101110172D01*
X171024800Y-101040021D01*
X170885267Y-100938644D01*
X170769861Y-100810473D01*
X170683625Y-100661108D01*
X170630328Y-100497077D01*
X170612300Y-100325550D01*
X170630328Y-100154023D01*
X170683625Y-99989992D01*
X170769861Y-99840627D01*
X170885267Y-99712456D01*
X171024800Y-99611079D01*
X171182361Y-99540928D01*
X171351064Y-99505069D01*
X171523536Y-99505069D01*
X171692239Y-99540928D01*
G37*
G36*
X125972239Y-97000928D02*
G01*
X126129800Y-97071079D01*
X126269333Y-97172456D01*
X126384739Y-97300627D01*
X126470975Y-97449992D01*
X126524272Y-97614023D01*
X126542300Y-97785550D01*
X126524272Y-97957077D01*
X126470975Y-98121108D01*
X126384739Y-98270473D01*
X126269333Y-98398644D01*
X126129800Y-98500021D01*
X125972239Y-98570172D01*
X125803536Y-98606031D01*
X125631064Y-98606031D01*
X125462361Y-98570172D01*
X125304800Y-98500021D01*
X125165267Y-98398644D01*
X125049861Y-98270473D01*
X124963625Y-98121108D01*
X124910328Y-97957077D01*
X124892300Y-97785550D01*
X124910328Y-97614023D01*
X124963625Y-97449992D01*
X125049861Y-97300627D01*
X125165267Y-97172456D01*
X125304800Y-97071079D01*
X125462361Y-97000928D01*
X125631064Y-96965069D01*
X125803536Y-96965069D01*
X125972239Y-97000928D01*
G37*
G36*
X171692239Y-97000928D02*
G01*
X171849800Y-97071079D01*
X171989333Y-97172456D01*
X172104739Y-97300627D01*
X172190975Y-97449992D01*
X172244272Y-97614023D01*
X172262300Y-97785550D01*
X172244272Y-97957077D01*
X172190975Y-98121108D01*
X172104739Y-98270473D01*
X171989333Y-98398644D01*
X171849800Y-98500021D01*
X171692239Y-98570172D01*
X171523536Y-98606031D01*
X171351064Y-98606031D01*
X171182361Y-98570172D01*
X171024800Y-98500021D01*
X170885267Y-98398644D01*
X170769861Y-98270473D01*
X170683625Y-98121108D01*
X170630328Y-97957077D01*
X170612300Y-97785550D01*
X170630328Y-97614023D01*
X170683625Y-97449992D01*
X170769861Y-97300627D01*
X170885267Y-97172456D01*
X171024800Y-97071079D01*
X171182361Y-97000928D01*
X171351064Y-96965069D01*
X171523536Y-96965069D01*
X171692239Y-97000928D01*
G37*
G36*
X125972239Y-94460928D02*
G01*
X126129800Y-94531079D01*
X126269333Y-94632456D01*
X126384739Y-94760627D01*
X126470975Y-94909992D01*
X126524272Y-95074023D01*
X126542300Y-95245550D01*
X126524272Y-95417077D01*
X126470975Y-95581108D01*
X126384739Y-95730473D01*
X126269333Y-95858644D01*
X126129800Y-95960021D01*
X125972239Y-96030172D01*
X125803536Y-96066031D01*
X125631064Y-96066031D01*
X125462361Y-96030172D01*
X125304800Y-95960021D01*
X125165267Y-95858644D01*
X125049861Y-95730473D01*
X124963625Y-95581108D01*
X124910328Y-95417077D01*
X124892300Y-95245550D01*
X124910328Y-95074023D01*
X124963625Y-94909992D01*
X125049861Y-94760627D01*
X125165267Y-94632456D01*
X125304800Y-94531079D01*
X125462361Y-94460928D01*
X125631064Y-94425069D01*
X125803536Y-94425069D01*
X125972239Y-94460928D01*
G37*
G36*
X171692239Y-94460928D02*
G01*
X171849800Y-94531079D01*
X171989333Y-94632456D01*
X172104739Y-94760627D01*
X172190975Y-94909992D01*
X172244272Y-95074023D01*
X172262300Y-95245550D01*
X172244272Y-95417077D01*
X172190975Y-95581108D01*
X172104739Y-95730473D01*
X171989333Y-95858644D01*
X171849800Y-95960021D01*
X171692239Y-96030172D01*
X171523536Y-96066031D01*
X171351064Y-96066031D01*
X171182361Y-96030172D01*
X171024800Y-95960021D01*
X170885267Y-95858644D01*
X170769861Y-95730473D01*
X170683625Y-95581108D01*
X170630328Y-95417077D01*
X170612300Y-95245550D01*
X170630328Y-95074023D01*
X170683625Y-94909992D01*
X170769861Y-94760627D01*
X170885267Y-94632456D01*
X171024800Y-94531079D01*
X171182361Y-94460928D01*
X171351064Y-94425069D01*
X171523536Y-94425069D01*
X171692239Y-94460928D01*
G37*
G36*
X125972239Y-91920928D02*
G01*
X126129800Y-91991079D01*
X126269333Y-92092456D01*
X126384739Y-92220627D01*
X126470975Y-92369992D01*
X126524272Y-92534023D01*
X126542300Y-92705550D01*
X126524272Y-92877077D01*
X126470975Y-93041108D01*
X126384739Y-93190473D01*
X126269333Y-93318644D01*
X126129800Y-93420021D01*
X125972239Y-93490172D01*
X125803536Y-93526031D01*
X125631064Y-93526031D01*
X125462361Y-93490172D01*
X125304800Y-93420021D01*
X125165267Y-93318644D01*
X125049861Y-93190473D01*
X124963625Y-93041108D01*
X124910328Y-92877077D01*
X124892300Y-92705550D01*
X124910328Y-92534023D01*
X124963625Y-92369992D01*
X125049861Y-92220627D01*
X125165267Y-92092456D01*
X125304800Y-91991079D01*
X125462361Y-91920928D01*
X125631064Y-91885069D01*
X125803536Y-91885069D01*
X125972239Y-91920928D01*
G37*
G36*
X171692239Y-91920928D02*
G01*
X171849800Y-91991079D01*
X171989333Y-92092456D01*
X172104739Y-92220627D01*
X172190975Y-92369992D01*
X172244272Y-92534023D01*
X172262300Y-92705550D01*
X172244272Y-92877077D01*
X172190975Y-93041108D01*
X172104739Y-93190473D01*
X171989333Y-93318644D01*
X171849800Y-93420021D01*
X171692239Y-93490172D01*
X171523536Y-93526031D01*
X171351064Y-93526031D01*
X171182361Y-93490172D01*
X171024800Y-93420021D01*
X170885267Y-93318644D01*
X170769861Y-93190473D01*
X170683625Y-93041108D01*
X170630328Y-92877077D01*
X170612300Y-92705550D01*
X170630328Y-92534023D01*
X170683625Y-92369992D01*
X170769861Y-92220627D01*
X170885267Y-92092456D01*
X171024800Y-91991079D01*
X171182361Y-91920928D01*
X171351064Y-91885069D01*
X171523536Y-91885069D01*
X171692239Y-91920928D01*
G37*
G36*
X125972239Y-89380928D02*
G01*
X126129800Y-89451079D01*
X126269333Y-89552456D01*
X126384739Y-89680627D01*
X126470975Y-89829992D01*
X126524272Y-89994023D01*
X126542300Y-90165550D01*
X126524272Y-90337077D01*
X126470975Y-90501108D01*
X126384739Y-90650473D01*
X126269333Y-90778644D01*
X126129800Y-90880021D01*
X125972239Y-90950172D01*
X125803536Y-90986031D01*
X125631064Y-90986031D01*
X125462361Y-90950172D01*
X125304800Y-90880021D01*
X125165267Y-90778644D01*
X125049861Y-90650473D01*
X124963625Y-90501108D01*
X124910328Y-90337077D01*
X124892300Y-90165550D01*
X124910328Y-89994023D01*
X124963625Y-89829992D01*
X125049861Y-89680627D01*
X125165267Y-89552456D01*
X125304800Y-89451079D01*
X125462361Y-89380928D01*
X125631064Y-89345069D01*
X125803536Y-89345069D01*
X125972239Y-89380928D01*
G37*
G36*
X128512239Y-89380928D02*
G01*
X128669800Y-89451079D01*
X128809333Y-89552456D01*
X128924739Y-89680627D01*
X129010975Y-89829992D01*
X129064272Y-89994023D01*
X129082300Y-90165550D01*
X129064272Y-90337077D01*
X129010975Y-90501108D01*
X128924739Y-90650473D01*
X128809333Y-90778644D01*
X128669800Y-90880021D01*
X128512239Y-90950172D01*
X128343536Y-90986031D01*
X128171064Y-90986031D01*
X128002361Y-90950172D01*
X127844800Y-90880021D01*
X127705267Y-90778644D01*
X127589861Y-90650473D01*
X127503625Y-90501108D01*
X127450328Y-90337077D01*
X127432300Y-90165550D01*
X127450328Y-89994023D01*
X127503625Y-89829992D01*
X127589861Y-89680627D01*
X127705267Y-89552456D01*
X127844800Y-89451079D01*
X128002361Y-89380928D01*
X128171064Y-89345069D01*
X128343536Y-89345069D01*
X128512239Y-89380928D01*
G37*
G36*
X171692239Y-89380928D02*
G01*
X171849800Y-89451079D01*
X171989333Y-89552456D01*
X172104739Y-89680627D01*
X172190975Y-89829992D01*
X172244272Y-89994023D01*
X172262300Y-90165550D01*
X172244272Y-90337077D01*
X172190975Y-90501108D01*
X172104739Y-90650473D01*
X171989333Y-90778644D01*
X171849800Y-90880021D01*
X171692239Y-90950172D01*
X171523536Y-90986031D01*
X171351064Y-90986031D01*
X171182361Y-90950172D01*
X171024800Y-90880021D01*
X170885267Y-90778644D01*
X170769861Y-90650473D01*
X170683625Y-90501108D01*
X170630328Y-90337077D01*
X170612300Y-90165550D01*
X170630328Y-89994023D01*
X170683625Y-89829992D01*
X170769861Y-89680627D01*
X170885267Y-89552456D01*
X171024800Y-89451079D01*
X171182361Y-89380928D01*
X171351064Y-89345069D01*
X171523536Y-89345069D01*
X171692239Y-89380928D01*
G37*
G36*
X126482729Y-86807896D02*
G01*
X126514036Y-86828814D01*
X126534954Y-86860121D01*
X126542300Y-86897050D01*
X126542300Y-88354050D01*
X126534954Y-88390979D01*
X126514036Y-88422286D01*
X126482729Y-88443204D01*
X126445800Y-88450550D01*
X124988800Y-88450550D01*
X124951871Y-88443204D01*
X124920564Y-88422286D01*
X124899646Y-88390979D01*
X124892300Y-88354050D01*
X124892300Y-86897050D01*
X124899646Y-86860121D01*
X124920564Y-86828814D01*
X124951871Y-86807896D01*
X124988800Y-86800550D01*
X126445800Y-86800550D01*
X126482729Y-86807896D01*
G37*
G36*
X128512239Y-86840928D02*
G01*
X128669800Y-86911079D01*
X128809333Y-87012456D01*
X128924739Y-87140627D01*
X129010975Y-87289992D01*
X129064272Y-87454023D01*
X129082300Y-87625550D01*
X129064272Y-87797077D01*
X129010975Y-87961108D01*
X128924739Y-88110473D01*
X128809333Y-88238644D01*
X128669800Y-88340021D01*
X128512239Y-88410172D01*
X128343536Y-88446031D01*
X128171064Y-88446031D01*
X128002361Y-88410172D01*
X127844800Y-88340021D01*
X127705267Y-88238644D01*
X127589861Y-88110473D01*
X127503625Y-87961108D01*
X127450328Y-87797077D01*
X127432300Y-87625550D01*
X127450328Y-87454023D01*
X127503625Y-87289992D01*
X127589861Y-87140627D01*
X127705267Y-87012456D01*
X127844800Y-86911079D01*
X128002361Y-86840928D01*
X128171064Y-86805069D01*
X128343536Y-86805069D01*
X128512239Y-86840928D01*
G37*
G36*
X171692239Y-86840928D02*
G01*
X171849800Y-86911079D01*
X171989333Y-87012456D01*
X172104739Y-87140627D01*
X172190975Y-87289992D01*
X172244272Y-87454023D01*
X172262300Y-87625550D01*
X172244272Y-87797077D01*
X172190975Y-87961108D01*
X172104739Y-88110473D01*
X171989333Y-88238644D01*
X171849800Y-88340021D01*
X171692239Y-88410172D01*
X171523536Y-88446031D01*
X171351064Y-88446031D01*
X171182361Y-88410172D01*
X171024800Y-88340021D01*
X170885267Y-88238644D01*
X170769861Y-88110473D01*
X170683625Y-87961108D01*
X170630328Y-87797077D01*
X170612300Y-87625550D01*
X170630328Y-87454023D01*
X170683625Y-87289992D01*
X170769861Y-87140627D01*
X170885267Y-87012456D01*
X171024800Y-86911079D01*
X171182361Y-86840928D01*
X171351064Y-86805069D01*
X171523536Y-86805069D01*
X171692239Y-86840928D01*
G37*
G36*
X138631134Y-86411856D02*
G01*
X138647355Y-86422695D01*
X138658194Y-86438916D01*
X138662000Y-86458050D01*
X138662000Y-88158050D01*
X138658194Y-88177184D01*
X138647355Y-88193405D01*
X138631134Y-88204244D01*
X138612000Y-88208050D01*
X136912000Y-88208050D01*
X136892866Y-88204244D01*
X136876645Y-88193405D01*
X136865806Y-88177184D01*
X136862000Y-88158050D01*
X136862000Y-86458050D01*
X136865806Y-86438916D01*
X136876645Y-86422695D01*
X136892866Y-86411856D01*
X136912000Y-86408050D01*
X138612000Y-86408050D01*
X138631134Y-86411856D01*
G37*
G36*
X140349607Y-86412980D02*
G01*
X140396076Y-86412980D01*
X140436202Y-86421509D01*
X140477533Y-86425580D01*
X140529460Y-86441332D01*
X140580115Y-86452099D01*
X140612527Y-86466529D01*
X140646321Y-86476781D01*
X140700023Y-86505485D01*
X140752000Y-86528627D01*
X140776165Y-86546184D01*
X140801878Y-86559928D01*
X140854333Y-86602977D01*
X140904218Y-86639220D01*
X140920412Y-86657205D01*
X140938225Y-86671824D01*
X140986089Y-86730147D01*
X141030115Y-86779043D01*
X141039365Y-86795065D01*
X141050121Y-86808171D01*
X141089908Y-86882607D01*
X141124191Y-86941987D01*
X141128134Y-86954124D01*
X141133268Y-86963728D01*
X141161568Y-87057021D01*
X141182333Y-87120929D01*
X141183064Y-87127884D01*
X141184469Y-87132516D01*
X141198151Y-87271435D01*
X141202000Y-87308050D01*
X141198151Y-87344667D01*
X141184469Y-87483583D01*
X141183064Y-87488214D01*
X141182333Y-87495171D01*
X141161563Y-87559092D01*
X141133268Y-87652371D01*
X141128135Y-87661973D01*
X141124191Y-87674113D01*
X141089901Y-87733504D01*
X141050121Y-87807928D01*
X141039367Y-87821031D01*
X141030115Y-87837057D01*
X140986080Y-87885962D01*
X140938225Y-87944275D01*
X140920415Y-87958890D01*
X140904218Y-87976880D01*
X140854323Y-88013130D01*
X140801878Y-88056171D01*
X140776171Y-88069911D01*
X140752000Y-88087473D01*
X140700012Y-88110619D01*
X140646321Y-88139318D01*
X140612534Y-88149567D01*
X140580115Y-88164001D01*
X140529449Y-88174770D01*
X140477533Y-88190519D01*
X140436210Y-88194588D01*
X140396076Y-88203120D01*
X140349597Y-88203120D01*
X140302000Y-88207808D01*
X140254403Y-88203120D01*
X140207924Y-88203120D01*
X140167789Y-88194589D01*
X140126466Y-88190519D01*
X140074546Y-88174769D01*
X140023885Y-88164001D01*
X139991467Y-88149567D01*
X139957678Y-88139318D01*
X139903981Y-88110616D01*
X139852000Y-88087473D01*
X139827831Y-88069913D01*
X139802121Y-88056171D01*
X139749667Y-88013124D01*
X139699782Y-87976880D01*
X139683587Y-87958893D01*
X139665774Y-87944275D01*
X139617908Y-87885949D01*
X139573885Y-87837057D01*
X139564634Y-87821035D01*
X139553878Y-87807928D01*
X139514085Y-87733481D01*
X139479809Y-87674113D01*
X139475866Y-87661978D01*
X139470731Y-87652371D01*
X139442421Y-87559046D01*
X139421667Y-87495171D01*
X139420936Y-87488219D01*
X139419530Y-87483583D01*
X139405832Y-87344516D01*
X139402000Y-87308050D01*
X139405832Y-87271586D01*
X139419530Y-87132516D01*
X139420936Y-87127879D01*
X139421667Y-87120929D01*
X139442416Y-87057067D01*
X139470731Y-86963728D01*
X139475866Y-86954119D01*
X139479809Y-86941987D01*
X139514078Y-86882631D01*
X139553878Y-86808171D01*
X139564636Y-86795061D01*
X139573885Y-86779043D01*
X139617898Y-86730160D01*
X139665774Y-86671824D01*
X139683590Y-86657202D01*
X139699782Y-86639220D01*
X139749657Y-86602983D01*
X139802121Y-86559928D01*
X139827836Y-86546182D01*
X139852000Y-86528627D01*
X139903970Y-86505488D01*
X139957678Y-86476781D01*
X139991474Y-86466528D01*
X140023885Y-86452099D01*
X140074535Y-86441332D01*
X140126466Y-86425580D01*
X140167798Y-86421509D01*
X140207924Y-86412980D01*
X140254393Y-86412980D01*
X140302000Y-86408291D01*
X140349607Y-86412980D01*
G37*
G36*
X156081134Y-86311856D02*
G01*
X156097355Y-86322695D01*
X156108194Y-86338916D01*
X156112000Y-86358050D01*
X156112000Y-88058050D01*
X156108194Y-88077184D01*
X156097355Y-88093405D01*
X156081134Y-88104244D01*
X156062000Y-88108050D01*
X154362000Y-88108050D01*
X154342866Y-88104244D01*
X154326645Y-88093405D01*
X154315806Y-88077184D01*
X154312000Y-88058050D01*
X154312000Y-86358050D01*
X154315806Y-86338916D01*
X154326645Y-86322695D01*
X154342866Y-86311856D01*
X154362000Y-86308050D01*
X156062000Y-86308050D01*
X156081134Y-86311856D01*
G37*
G36*
X157799607Y-86312980D02*
G01*
X157846076Y-86312980D01*
X157886202Y-86321509D01*
X157927533Y-86325580D01*
X157979460Y-86341332D01*
X158030115Y-86352099D01*
X158062527Y-86366529D01*
X158096321Y-86376781D01*
X158150023Y-86405485D01*
X158202000Y-86428627D01*
X158226165Y-86446184D01*
X158251878Y-86459928D01*
X158304333Y-86502977D01*
X158354218Y-86539220D01*
X158370412Y-86557205D01*
X158388225Y-86571824D01*
X158436089Y-86630147D01*
X158480115Y-86679043D01*
X158489365Y-86695065D01*
X158500121Y-86708171D01*
X158539908Y-86782607D01*
X158574191Y-86841987D01*
X158578134Y-86854124D01*
X158583268Y-86863728D01*
X158611568Y-86957021D01*
X158632333Y-87020929D01*
X158633064Y-87027884D01*
X158634469Y-87032516D01*
X158648151Y-87171435D01*
X158652000Y-87208050D01*
X158648151Y-87244667D01*
X158634469Y-87383583D01*
X158633064Y-87388214D01*
X158632333Y-87395171D01*
X158611563Y-87459092D01*
X158583268Y-87552371D01*
X158578135Y-87561973D01*
X158574191Y-87574113D01*
X158539901Y-87633504D01*
X158500121Y-87707928D01*
X158489367Y-87721031D01*
X158480115Y-87737057D01*
X158436080Y-87785962D01*
X158388225Y-87844275D01*
X158370415Y-87858890D01*
X158354218Y-87876880D01*
X158304323Y-87913130D01*
X158251878Y-87956171D01*
X158226171Y-87969911D01*
X158202000Y-87987473D01*
X158150012Y-88010619D01*
X158096321Y-88039318D01*
X158062534Y-88049567D01*
X158030115Y-88064001D01*
X157979449Y-88074770D01*
X157927533Y-88090519D01*
X157886210Y-88094588D01*
X157846076Y-88103120D01*
X157799597Y-88103120D01*
X157752000Y-88107808D01*
X157704403Y-88103120D01*
X157657924Y-88103120D01*
X157617789Y-88094589D01*
X157576466Y-88090519D01*
X157524546Y-88074769D01*
X157473885Y-88064001D01*
X157441467Y-88049567D01*
X157407678Y-88039318D01*
X157353981Y-88010616D01*
X157302000Y-87987473D01*
X157277831Y-87969913D01*
X157252121Y-87956171D01*
X157199667Y-87913124D01*
X157149782Y-87876880D01*
X157133587Y-87858893D01*
X157115774Y-87844275D01*
X157067908Y-87785949D01*
X157023885Y-87737057D01*
X157014634Y-87721035D01*
X157003878Y-87707928D01*
X156964085Y-87633481D01*
X156929809Y-87574113D01*
X156925866Y-87561978D01*
X156920731Y-87552371D01*
X156892421Y-87459046D01*
X156871667Y-87395171D01*
X156870936Y-87388219D01*
X156869530Y-87383583D01*
X156855832Y-87244516D01*
X156852000Y-87208050D01*
X156855832Y-87171586D01*
X156869530Y-87032516D01*
X156870936Y-87027879D01*
X156871667Y-87020929D01*
X156892416Y-86957067D01*
X156920731Y-86863728D01*
X156925866Y-86854119D01*
X156929809Y-86841987D01*
X156964078Y-86782631D01*
X157003878Y-86708171D01*
X157014636Y-86695061D01*
X157023885Y-86679043D01*
X157067898Y-86630160D01*
X157115774Y-86571824D01*
X157133590Y-86557202D01*
X157149782Y-86539220D01*
X157199657Y-86502983D01*
X157252121Y-86459928D01*
X157277836Y-86446182D01*
X157302000Y-86428627D01*
X157353970Y-86405488D01*
X157407678Y-86376781D01*
X157441474Y-86366528D01*
X157473885Y-86352099D01*
X157524535Y-86341332D01*
X157576466Y-86325580D01*
X157617798Y-86321509D01*
X157657924Y-86312980D01*
X157704393Y-86312980D01*
X157752000Y-86308291D01*
X157799607Y-86312980D01*
G37*
M02*
